%TF.GenerationSoftware,KiCad,Pcbnew,7.0.7*%
%TF.CreationDate,2023-09-04T20:39:43-04:00*%
%TF.ProjectId,PRJ,50524a2e-6b69-4636-9164-5f7063625858,rev?*%
%TF.SameCoordinates,Original*%
%TF.FileFunction,Paste,Top*%
%TF.FilePolarity,Positive*%
%FSLAX46Y46*%
G04 Gerber Fmt 4.6, Leading zero omitted, Abs format (unit mm)*
G04 Created by KiCad (PCBNEW 7.0.7) date 2023-09-04 20:39:43*
%MOMM*%
%LPD*%
G01*
G04 APERTURE LIST*
G04 Aperture macros list*
%AMRoundRect*
0 Rectangle with rounded corners*
0 $1 Rounding radius*
0 $2 $3 $4 $5 $6 $7 $8 $9 X,Y pos of 4 corners*
0 Add a 4 corners polygon primitive as box body*
4,1,4,$2,$3,$4,$5,$6,$7,$8,$9,$2,$3,0*
0 Add four circle primitives for the rounded corners*
1,1,$1+$1,$2,$3*
1,1,$1+$1,$4,$5*
1,1,$1+$1,$6,$7*
1,1,$1+$1,$8,$9*
0 Add four rect primitives between the rounded corners*
20,1,$1+$1,$2,$3,$4,$5,0*
20,1,$1+$1,$4,$5,$6,$7,0*
20,1,$1+$1,$6,$7,$8,$9,0*
20,1,$1+$1,$8,$9,$2,$3,0*%
G04 Aperture macros list end*
%ADD10RoundRect,0.250000X0.350000X0.450000X-0.350000X0.450000X-0.350000X-0.450000X0.350000X-0.450000X0*%
%ADD11RoundRect,0.250000X0.475000X-0.337500X0.475000X0.337500X-0.475000X0.337500X-0.475000X-0.337500X0*%
%ADD12RoundRect,0.250000X-0.450000X0.350000X-0.450000X-0.350000X0.450000X-0.350000X0.450000X0.350000X0*%
%ADD13RoundRect,0.150000X-0.850000X-0.150000X0.850000X-0.150000X0.850000X0.150000X-0.850000X0.150000X0*%
%ADD14RoundRect,0.250000X0.337500X0.475000X-0.337500X0.475000X-0.337500X-0.475000X0.337500X-0.475000X0*%
%ADD15R,1.500000X2.000000*%
%ADD16R,3.800000X2.000000*%
%ADD17RoundRect,0.150000X-0.825000X-0.150000X0.825000X-0.150000X0.825000X0.150000X-0.825000X0.150000X0*%
%ADD18RoundRect,0.250000X-0.337500X-0.475000X0.337500X-0.475000X0.337500X0.475000X-0.337500X0.475000X0*%
%ADD19RoundRect,0.250000X-0.475000X0.337500X-0.475000X-0.337500X0.475000X-0.337500X0.475000X0.337500X0*%
%ADD20RoundRect,0.250000X-0.450000X0.325000X-0.450000X-0.325000X0.450000X-0.325000X0.450000X0.325000X0*%
%ADD21RoundRect,0.250000X-0.350000X-0.450000X0.350000X-0.450000X0.350000X0.450000X-0.350000X0.450000X0*%
G04 APERTURE END LIST*
D10*
%TO.C,R3*%
X127000000Y-96750000D03*
X125000000Y-96750000D03*
%TD*%
D11*
%TO.C,C7*%
X107000000Y-102787500D03*
X107000000Y-100712500D03*
%TD*%
D12*
%TO.C,R9*%
X125800000Y-108200000D03*
X125800000Y-110200000D03*
%TD*%
D10*
%TO.C,R2*%
X109000000Y-98750000D03*
X107000000Y-98750000D03*
%TD*%
D11*
%TO.C,C4*%
X119800000Y-93075000D03*
X119800000Y-91000000D03*
%TD*%
D13*
%TO.C,U1*%
X111750000Y-90555000D03*
X111750000Y-91825000D03*
X111750000Y-93095000D03*
X111750000Y-94365000D03*
X111750000Y-95635000D03*
X111750000Y-96905000D03*
X111750000Y-98175000D03*
X111750000Y-99445000D03*
X116750000Y-99445000D03*
X116750000Y-98175000D03*
X116750000Y-96905000D03*
X116750000Y-95635000D03*
X116750000Y-94365000D03*
X116750000Y-93095000D03*
X116750000Y-91825000D03*
X116750000Y-90555000D03*
%TD*%
D11*
%TO.C,C9*%
X119400000Y-101837500D03*
X119400000Y-99762500D03*
%TD*%
D14*
%TO.C,C2*%
X109037500Y-94250000D03*
X106962500Y-94250000D03*
%TD*%
D15*
%TO.C,U3*%
X114300000Y-101600000D03*
X112000000Y-101600000D03*
D16*
X112000000Y-107900000D03*
D15*
X109700000Y-101600000D03*
%TD*%
D17*
%TO.C,U2*%
X122800000Y-102250000D03*
X122800000Y-103520000D03*
X122800000Y-104790000D03*
X122800000Y-106060000D03*
X127750000Y-106060000D03*
X127750000Y-104790000D03*
X127750000Y-103520000D03*
X127750000Y-102250000D03*
%TD*%
D18*
%TO.C,C3*%
X106962500Y-89000000D03*
X109037500Y-89000000D03*
%TD*%
D10*
%TO.C,R4*%
X127000000Y-99250000D03*
X125000000Y-99250000D03*
%TD*%
D19*
%TO.C,C8*%
X107000000Y-104712500D03*
X107000000Y-106787500D03*
%TD*%
D11*
%TO.C,C5*%
X123000000Y-99037500D03*
X123000000Y-96962500D03*
%TD*%
D14*
%TO.C,C1*%
X109037500Y-92000000D03*
X106962500Y-92000000D03*
%TD*%
D12*
%TO.C,R10*%
X119000000Y-104750000D03*
X119000000Y-106750000D03*
%TD*%
D20*
%TO.C,D1*%
X116750000Y-104725000D03*
X116750000Y-106775000D03*
%TD*%
D18*
%TO.C,C6*%
X112962500Y-111500000D03*
X115037500Y-111500000D03*
%TD*%
D21*
%TO.C,R1*%
X107000000Y-96500000D03*
X109000000Y-96500000D03*
%TD*%
M02*
