%TF.GenerationSoftware,KiCad,Pcbnew,7.0.7*%
%TF.CreationDate,2023-09-04T20:39:43-04:00*%
%TF.ProjectId,PRJ,50524a2e-6b69-4636-9164-5f7063625858,rev?*%
%TF.SameCoordinates,Original*%
%TF.FileFunction,Legend,Top*%
%TF.FilePolarity,Positive*%
%FSLAX46Y46*%
G04 Gerber Fmt 4.6, Leading zero omitted, Abs format (unit mm)*
G04 Created by KiCad (PCBNEW 7.0.7) date 2023-09-04 20:39:43*
%MOMM*%
%LPD*%
G01*
G04 APERTURE LIST*
G04 Aperture macros list*
%AMRoundRect*
0 Rectangle with rounded corners*
0 $1 Rounding radius*
0 $2 $3 $4 $5 $6 $7 $8 $9 X,Y pos of 4 corners*
0 Add a 4 corners polygon primitive as box body*
4,1,4,$2,$3,$4,$5,$6,$7,$8,$9,$2,$3,0*
0 Add four circle primitives for the rounded corners*
1,1,$1+$1,$2,$3*
1,1,$1+$1,$4,$5*
1,1,$1+$1,$6,$7*
1,1,$1+$1,$8,$9*
0 Add four rect primitives between the rounded corners*
20,1,$1+$1,$2,$3,$4,$5,0*
20,1,$1+$1,$4,$5,$6,$7,0*
20,1,$1+$1,$6,$7,$8,$9,0*
20,1,$1+$1,$8,$9,$2,$3,0*%
G04 Aperture macros list end*
%ADD10C,0.325000*%
%ADD11C,0.150000*%
%ADD12C,0.120000*%
%ADD13C,0.000000*%
%ADD14RoundRect,0.288000X0.350000X0.450000X-0.350000X0.450000X-0.350000X-0.450000X0.350000X-0.450000X0*%
%ADD15RoundRect,0.288000X0.475000X-0.337500X0.475000X0.337500X-0.475000X0.337500X-0.475000X-0.337500X0*%
%ADD16RoundRect,0.038000X-0.850000X-0.850000X0.850000X-0.850000X0.850000X0.850000X-0.850000X0.850000X0*%
%ADD17O,1.776000X1.776000*%
%ADD18RoundRect,0.288000X-0.450000X0.350000X-0.450000X-0.350000X0.450000X-0.350000X0.450000X0.350000X0*%
%ADD19C,0.876000*%
%ADD20C,6.476000*%
%ADD21RoundRect,0.188000X-0.850000X-0.150000X0.850000X-0.150000X0.850000X0.150000X-0.850000X0.150000X0*%
%ADD22RoundRect,0.288000X0.337500X0.475000X-0.337500X0.475000X-0.337500X-0.475000X0.337500X-0.475000X0*%
%ADD23RoundRect,0.038000X0.850000X-0.850000X0.850000X0.850000X-0.850000X0.850000X-0.850000X-0.850000X0*%
%ADD24RoundRect,0.038000X-0.750000X1.000000X-0.750000X-1.000000X0.750000X-1.000000X0.750000X1.000000X0*%
%ADD25RoundRect,0.038000X-1.900000X1.000000X-1.900000X-1.000000X1.900000X-1.000000X1.900000X1.000000X0*%
%ADD26RoundRect,0.188000X-0.825000X-0.150000X0.825000X-0.150000X0.825000X0.150000X-0.825000X0.150000X0*%
%ADD27RoundRect,0.288000X-0.337500X-0.475000X0.337500X-0.475000X0.337500X0.475000X-0.337500X0.475000X0*%
%ADD28RoundRect,0.288000X-0.475000X0.337500X-0.475000X-0.337500X0.475000X-0.337500X0.475000X0.337500X0*%
%ADD29RoundRect,0.288000X-0.450000X0.325000X-0.450000X-0.325000X0.450000X-0.325000X0.450000X0.325000X0*%
%ADD30RoundRect,0.288000X-0.350000X-0.450000X0.350000X-0.450000X0.350000X0.450000X-0.350000X0.450000X0*%
G04 APERTURE END LIST*
D10*
X113662500Y-90500000D02*
G75*
G03*
X113662500Y-90500000I-162500J0D01*
G01*
D11*
X132525000Y-96650000D02*
X132650000Y-96650000D01*
D10*
X124412500Y-102500000D02*
G75*
G03*
X124412500Y-102500000I-162500J0D01*
G01*
D11*
X132650000Y-99200000D02*
X132525000Y-99200000D01*
X132650000Y-96650000D02*
X132650000Y-99200000D01*
X133569104Y-95366666D02*
X133569104Y-95033333D01*
X133854819Y-95433333D02*
X132854819Y-95200000D01*
X132854819Y-95200000D02*
X133854819Y-94966666D01*
X132854819Y-94833333D02*
X133854819Y-94600000D01*
X133854819Y-94600000D02*
X132854819Y-94366666D01*
X133854819Y-94133333D02*
X132854819Y-94133333D01*
X132854819Y-94133333D02*
X132854819Y-93966666D01*
X132854819Y-93966666D02*
X132902438Y-93866666D01*
X132902438Y-93866666D02*
X132997676Y-93800000D01*
X132997676Y-93800000D02*
X133092914Y-93766666D01*
X133092914Y-93766666D02*
X133283390Y-93733333D01*
X133283390Y-93733333D02*
X133426247Y-93733333D01*
X133426247Y-93733333D02*
X133616723Y-93766666D01*
X133616723Y-93766666D02*
X133711961Y-93800000D01*
X133711961Y-93800000D02*
X133807200Y-93866666D01*
X133807200Y-93866666D02*
X133854819Y-93966666D01*
X133854819Y-93966666D02*
X133854819Y-94133333D01*
X133854819Y-93433333D02*
X132854819Y-93433333D01*
X132854819Y-93433333D02*
X132854819Y-93266666D01*
X132854819Y-93266666D02*
X132902438Y-93166666D01*
X132902438Y-93166666D02*
X132997676Y-93100000D01*
X132997676Y-93100000D02*
X133092914Y-93066666D01*
X133092914Y-93066666D02*
X133283390Y-93033333D01*
X133283390Y-93033333D02*
X133426247Y-93033333D01*
X133426247Y-93033333D02*
X133616723Y-93066666D01*
X133616723Y-93066666D02*
X133711961Y-93100000D01*
X133711961Y-93100000D02*
X133807200Y-93166666D01*
X133807200Y-93166666D02*
X133854819Y-93266666D01*
X133854819Y-93266666D02*
X133854819Y-93433333D01*
X132902438Y-106933332D02*
X132854819Y-106999999D01*
X132854819Y-106999999D02*
X132854819Y-107099999D01*
X132854819Y-107099999D02*
X132902438Y-107199999D01*
X132902438Y-107199999D02*
X132997676Y-107266666D01*
X132997676Y-107266666D02*
X133092914Y-107299999D01*
X133092914Y-107299999D02*
X133283390Y-107333332D01*
X133283390Y-107333332D02*
X133426247Y-107333332D01*
X133426247Y-107333332D02*
X133616723Y-107299999D01*
X133616723Y-107299999D02*
X133711961Y-107266666D01*
X133711961Y-107266666D02*
X133807200Y-107199999D01*
X133807200Y-107199999D02*
X133854819Y-107099999D01*
X133854819Y-107099999D02*
X133854819Y-107033332D01*
X133854819Y-107033332D02*
X133807200Y-106933332D01*
X133807200Y-106933332D02*
X133759580Y-106899999D01*
X133759580Y-106899999D02*
X133426247Y-106899999D01*
X133426247Y-106899999D02*
X133426247Y-107033332D01*
X133854819Y-106599999D02*
X132854819Y-106599999D01*
X132854819Y-106599999D02*
X133854819Y-106199999D01*
X133854819Y-106199999D02*
X132854819Y-106199999D01*
X133854819Y-105866666D02*
X132854819Y-105866666D01*
X132854819Y-105866666D02*
X132854819Y-105699999D01*
X132854819Y-105699999D02*
X132902438Y-105599999D01*
X132902438Y-105599999D02*
X132997676Y-105533333D01*
X132997676Y-105533333D02*
X133092914Y-105499999D01*
X133092914Y-105499999D02*
X133283390Y-105466666D01*
X133283390Y-105466666D02*
X133426247Y-105466666D01*
X133426247Y-105466666D02*
X133616723Y-105499999D01*
X133616723Y-105499999D02*
X133711961Y-105533333D01*
X133711961Y-105533333D02*
X133807200Y-105599999D01*
X133807200Y-105599999D02*
X133854819Y-105699999D01*
X133854819Y-105699999D02*
X133854819Y-105866666D01*
X123733333Y-115054819D02*
X123733333Y-115864342D01*
X123733333Y-115864342D02*
X123766667Y-115959580D01*
X123766667Y-115959580D02*
X123800000Y-116007200D01*
X123800000Y-116007200D02*
X123866667Y-116054819D01*
X123866667Y-116054819D02*
X124000000Y-116054819D01*
X124000000Y-116054819D02*
X124066667Y-116007200D01*
X124066667Y-116007200D02*
X124100000Y-115959580D01*
X124100000Y-115959580D02*
X124133333Y-115864342D01*
X124133333Y-115864342D02*
X124133333Y-115054819D01*
X124466666Y-116054819D02*
X124466666Y-115054819D01*
X124466666Y-115054819D02*
X124733333Y-115054819D01*
X124733333Y-115054819D02*
X124800000Y-115102438D01*
X124800000Y-115102438D02*
X124833333Y-115150057D01*
X124833333Y-115150057D02*
X124866666Y-115245295D01*
X124866666Y-115245295D02*
X124866666Y-115388152D01*
X124866666Y-115388152D02*
X124833333Y-115483390D01*
X124833333Y-115483390D02*
X124800000Y-115531009D01*
X124800000Y-115531009D02*
X124733333Y-115578628D01*
X124733333Y-115578628D02*
X124466666Y-115578628D01*
X125166666Y-116054819D02*
X125166666Y-115054819D01*
X125166666Y-115054819D02*
X125333333Y-115054819D01*
X125333333Y-115054819D02*
X125433333Y-115102438D01*
X125433333Y-115102438D02*
X125500000Y-115197676D01*
X125500000Y-115197676D02*
X125533333Y-115292914D01*
X125533333Y-115292914D02*
X125566666Y-115483390D01*
X125566666Y-115483390D02*
X125566666Y-115626247D01*
X125566666Y-115626247D02*
X125533333Y-115816723D01*
X125533333Y-115816723D02*
X125500000Y-115911961D01*
X125500000Y-115911961D02*
X125433333Y-116007200D01*
X125433333Y-116007200D02*
X125333333Y-116054819D01*
X125333333Y-116054819D02*
X125166666Y-116054819D01*
X125866666Y-116054819D02*
X125866666Y-115054819D01*
X133807200Y-112449999D02*
X133854819Y-112349999D01*
X133854819Y-112349999D02*
X133854819Y-112183333D01*
X133854819Y-112183333D02*
X133807200Y-112116666D01*
X133807200Y-112116666D02*
X133759580Y-112083333D01*
X133759580Y-112083333D02*
X133664342Y-112049999D01*
X133664342Y-112049999D02*
X133569104Y-112049999D01*
X133569104Y-112049999D02*
X133473866Y-112083333D01*
X133473866Y-112083333D02*
X133426247Y-112116666D01*
X133426247Y-112116666D02*
X133378628Y-112183333D01*
X133378628Y-112183333D02*
X133331009Y-112316666D01*
X133331009Y-112316666D02*
X133283390Y-112383333D01*
X133283390Y-112383333D02*
X133235771Y-112416666D01*
X133235771Y-112416666D02*
X133140533Y-112449999D01*
X133140533Y-112449999D02*
X133045295Y-112449999D01*
X133045295Y-112449999D02*
X132950057Y-112416666D01*
X132950057Y-112416666D02*
X132902438Y-112383333D01*
X132902438Y-112383333D02*
X132854819Y-112316666D01*
X132854819Y-112316666D02*
X132854819Y-112149999D01*
X132854819Y-112149999D02*
X132902438Y-112049999D01*
X133854819Y-111749999D02*
X132854819Y-111749999D01*
X132854819Y-111749999D02*
X132854819Y-111583332D01*
X132854819Y-111583332D02*
X132902438Y-111483332D01*
X132902438Y-111483332D02*
X132997676Y-111416666D01*
X132997676Y-111416666D02*
X133092914Y-111383332D01*
X133092914Y-111383332D02*
X133283390Y-111349999D01*
X133283390Y-111349999D02*
X133426247Y-111349999D01*
X133426247Y-111349999D02*
X133616723Y-111383332D01*
X133616723Y-111383332D02*
X133711961Y-111416666D01*
X133711961Y-111416666D02*
X133807200Y-111483332D01*
X133807200Y-111483332D02*
X133854819Y-111583332D01*
X133854819Y-111583332D02*
X133854819Y-111749999D01*
X133569104Y-111083332D02*
X133569104Y-110749999D01*
X133854819Y-111149999D02*
X132854819Y-110916666D01*
X132854819Y-110916666D02*
X133854819Y-110683332D01*
X133807200Y-99599999D02*
X133854819Y-99499999D01*
X133854819Y-99499999D02*
X133854819Y-99333333D01*
X133854819Y-99333333D02*
X133807200Y-99266666D01*
X133807200Y-99266666D02*
X133759580Y-99233333D01*
X133759580Y-99233333D02*
X133664342Y-99199999D01*
X133664342Y-99199999D02*
X133569104Y-99199999D01*
X133569104Y-99199999D02*
X133473866Y-99233333D01*
X133473866Y-99233333D02*
X133426247Y-99266666D01*
X133426247Y-99266666D02*
X133378628Y-99333333D01*
X133378628Y-99333333D02*
X133331009Y-99466666D01*
X133331009Y-99466666D02*
X133283390Y-99533333D01*
X133283390Y-99533333D02*
X133235771Y-99566666D01*
X133235771Y-99566666D02*
X133140533Y-99599999D01*
X133140533Y-99599999D02*
X133045295Y-99599999D01*
X133045295Y-99599999D02*
X132950057Y-99566666D01*
X132950057Y-99566666D02*
X132902438Y-99533333D01*
X132902438Y-99533333D02*
X132854819Y-99466666D01*
X132854819Y-99466666D02*
X132854819Y-99299999D01*
X132854819Y-99299999D02*
X132902438Y-99199999D01*
X132854819Y-98999999D02*
X132854819Y-98599999D01*
X133854819Y-98799999D02*
X132854819Y-98799999D01*
X133854819Y-97966666D02*
X133378628Y-98199999D01*
X133854819Y-98366666D02*
X132854819Y-98366666D01*
X132854819Y-98366666D02*
X132854819Y-98099999D01*
X132854819Y-98099999D02*
X132902438Y-98033333D01*
X132902438Y-98033333D02*
X132950057Y-97999999D01*
X132950057Y-97999999D02*
X133045295Y-97966666D01*
X133045295Y-97966666D02*
X133188152Y-97966666D01*
X133188152Y-97966666D02*
X133283390Y-97999999D01*
X133283390Y-97999999D02*
X133331009Y-98033333D01*
X133331009Y-98033333D02*
X133378628Y-98099999D01*
X133378628Y-98099999D02*
X133378628Y-98366666D01*
X133569104Y-97699999D02*
X133569104Y-97366666D01*
X133854819Y-97766666D02*
X132854819Y-97533333D01*
X132854819Y-97533333D02*
X133854819Y-97299999D01*
X133854819Y-97066666D02*
X132854819Y-97066666D01*
X133854819Y-96733333D02*
X132854819Y-96733333D01*
X132854819Y-96733333D02*
X133854819Y-96333333D01*
X133854819Y-96333333D02*
X132854819Y-96333333D01*
X119496624Y-109948612D02*
X119734719Y-110615279D01*
X119734719Y-110615279D02*
X119972814Y-109948612D01*
X120544243Y-109615279D02*
X120639481Y-109615279D01*
X120639481Y-109615279D02*
X120734719Y-109662898D01*
X120734719Y-109662898D02*
X120782338Y-109710517D01*
X120782338Y-109710517D02*
X120829957Y-109805755D01*
X120829957Y-109805755D02*
X120877576Y-109996231D01*
X120877576Y-109996231D02*
X120877576Y-110234326D01*
X120877576Y-110234326D02*
X120829957Y-110424802D01*
X120829957Y-110424802D02*
X120782338Y-110520040D01*
X120782338Y-110520040D02*
X120734719Y-110567660D01*
X120734719Y-110567660D02*
X120639481Y-110615279D01*
X120639481Y-110615279D02*
X120544243Y-110615279D01*
X120544243Y-110615279D02*
X120449005Y-110567660D01*
X120449005Y-110567660D02*
X120401386Y-110520040D01*
X120401386Y-110520040D02*
X120353767Y-110424802D01*
X120353767Y-110424802D02*
X120306148Y-110234326D01*
X120306148Y-110234326D02*
X120306148Y-109996231D01*
X120306148Y-109996231D02*
X120353767Y-109805755D01*
X120353767Y-109805755D02*
X120401386Y-109710517D01*
X120401386Y-109710517D02*
X120449005Y-109662898D01*
X120449005Y-109662898D02*
X120544243Y-109615279D01*
X121306148Y-110520040D02*
X121353767Y-110567660D01*
X121353767Y-110567660D02*
X121306148Y-110615279D01*
X121306148Y-110615279D02*
X121258529Y-110567660D01*
X121258529Y-110567660D02*
X121306148Y-110520040D01*
X121306148Y-110520040D02*
X121306148Y-110615279D01*
X122306147Y-110615279D02*
X121734719Y-110615279D01*
X122020433Y-110615279D02*
X122020433Y-109615279D01*
X122020433Y-109615279D02*
X121925195Y-109758136D01*
X121925195Y-109758136D02*
X121829957Y-109853374D01*
X121829957Y-109853374D02*
X121734719Y-109900993D01*
X132854819Y-104133333D02*
X132854819Y-104466666D01*
X132854819Y-104466666D02*
X133331009Y-104499999D01*
X133331009Y-104499999D02*
X133283390Y-104466666D01*
X133283390Y-104466666D02*
X133235771Y-104399999D01*
X133235771Y-104399999D02*
X133235771Y-104233333D01*
X133235771Y-104233333D02*
X133283390Y-104166666D01*
X133283390Y-104166666D02*
X133331009Y-104133333D01*
X133331009Y-104133333D02*
X133426247Y-104099999D01*
X133426247Y-104099999D02*
X133664342Y-104099999D01*
X133664342Y-104099999D02*
X133759580Y-104133333D01*
X133759580Y-104133333D02*
X133807200Y-104166666D01*
X133807200Y-104166666D02*
X133854819Y-104233333D01*
X133854819Y-104233333D02*
X133854819Y-104399999D01*
X133854819Y-104399999D02*
X133807200Y-104466666D01*
X133807200Y-104466666D02*
X133759580Y-104499999D01*
X132854819Y-103899999D02*
X133854819Y-103666666D01*
X133854819Y-103666666D02*
X132854819Y-103433332D01*
X133807200Y-109833333D02*
X133854819Y-109733333D01*
X133854819Y-109733333D02*
X133854819Y-109566667D01*
X133854819Y-109566667D02*
X133807200Y-109500000D01*
X133807200Y-109500000D02*
X133759580Y-109466667D01*
X133759580Y-109466667D02*
X133664342Y-109433333D01*
X133664342Y-109433333D02*
X133569104Y-109433333D01*
X133569104Y-109433333D02*
X133473866Y-109466667D01*
X133473866Y-109466667D02*
X133426247Y-109500000D01*
X133426247Y-109500000D02*
X133378628Y-109566667D01*
X133378628Y-109566667D02*
X133331009Y-109700000D01*
X133331009Y-109700000D02*
X133283390Y-109766667D01*
X133283390Y-109766667D02*
X133235771Y-109800000D01*
X133235771Y-109800000D02*
X133140533Y-109833333D01*
X133140533Y-109833333D02*
X133045295Y-109833333D01*
X133045295Y-109833333D02*
X132950057Y-109800000D01*
X132950057Y-109800000D02*
X132902438Y-109766667D01*
X132902438Y-109766667D02*
X132854819Y-109700000D01*
X132854819Y-109700000D02*
X132854819Y-109533333D01*
X132854819Y-109533333D02*
X132902438Y-109433333D01*
X133759580Y-108733333D02*
X133807200Y-108766666D01*
X133807200Y-108766666D02*
X133854819Y-108866666D01*
X133854819Y-108866666D02*
X133854819Y-108933333D01*
X133854819Y-108933333D02*
X133807200Y-109033333D01*
X133807200Y-109033333D02*
X133711961Y-109100000D01*
X133711961Y-109100000D02*
X133616723Y-109133333D01*
X133616723Y-109133333D02*
X133426247Y-109166666D01*
X133426247Y-109166666D02*
X133283390Y-109166666D01*
X133283390Y-109166666D02*
X133092914Y-109133333D01*
X133092914Y-109133333D02*
X132997676Y-109100000D01*
X132997676Y-109100000D02*
X132902438Y-109033333D01*
X132902438Y-109033333D02*
X132854819Y-108933333D01*
X132854819Y-108933333D02*
X132854819Y-108866666D01*
X132854819Y-108866666D02*
X132902438Y-108766666D01*
X132902438Y-108766666D02*
X132950057Y-108733333D01*
X133854819Y-108100000D02*
X133854819Y-108433333D01*
X133854819Y-108433333D02*
X132854819Y-108433333D01*
X121666667Y-115102438D02*
X121600000Y-115054819D01*
X121600000Y-115054819D02*
X121500000Y-115054819D01*
X121500000Y-115054819D02*
X121400000Y-115102438D01*
X121400000Y-115102438D02*
X121333334Y-115197676D01*
X121333334Y-115197676D02*
X121300000Y-115292914D01*
X121300000Y-115292914D02*
X121266667Y-115483390D01*
X121266667Y-115483390D02*
X121266667Y-115626247D01*
X121266667Y-115626247D02*
X121300000Y-115816723D01*
X121300000Y-115816723D02*
X121333334Y-115911961D01*
X121333334Y-115911961D02*
X121400000Y-116007200D01*
X121400000Y-116007200D02*
X121500000Y-116054819D01*
X121500000Y-116054819D02*
X121566667Y-116054819D01*
X121566667Y-116054819D02*
X121666667Y-116007200D01*
X121666667Y-116007200D02*
X121700000Y-115959580D01*
X121700000Y-115959580D02*
X121700000Y-115626247D01*
X121700000Y-115626247D02*
X121566667Y-115626247D01*
X122000000Y-116054819D02*
X122000000Y-115054819D01*
X122000000Y-115054819D02*
X122400000Y-116054819D01*
X122400000Y-116054819D02*
X122400000Y-115054819D01*
X122733333Y-116054819D02*
X122733333Y-115054819D01*
X122733333Y-115054819D02*
X122900000Y-115054819D01*
X122900000Y-115054819D02*
X123000000Y-115102438D01*
X123000000Y-115102438D02*
X123066667Y-115197676D01*
X123066667Y-115197676D02*
X123100000Y-115292914D01*
X123100000Y-115292914D02*
X123133333Y-115483390D01*
X123133333Y-115483390D02*
X123133333Y-115626247D01*
X123133333Y-115626247D02*
X123100000Y-115816723D01*
X123100000Y-115816723D02*
X123066667Y-115911961D01*
X123066667Y-115911961D02*
X123000000Y-116007200D01*
X123000000Y-116007200D02*
X122900000Y-116054819D01*
X122900000Y-116054819D02*
X122733333Y-116054819D01*
X132902438Y-92133332D02*
X132854819Y-92199999D01*
X132854819Y-92199999D02*
X132854819Y-92299999D01*
X132854819Y-92299999D02*
X132902438Y-92399999D01*
X132902438Y-92399999D02*
X132997676Y-92466666D01*
X132997676Y-92466666D02*
X133092914Y-92499999D01*
X133092914Y-92499999D02*
X133283390Y-92533332D01*
X133283390Y-92533332D02*
X133426247Y-92533332D01*
X133426247Y-92533332D02*
X133616723Y-92499999D01*
X133616723Y-92499999D02*
X133711961Y-92466666D01*
X133711961Y-92466666D02*
X133807200Y-92399999D01*
X133807200Y-92399999D02*
X133854819Y-92299999D01*
X133854819Y-92299999D02*
X133854819Y-92233332D01*
X133854819Y-92233332D02*
X133807200Y-92133332D01*
X133807200Y-92133332D02*
X133759580Y-92099999D01*
X133759580Y-92099999D02*
X133426247Y-92099999D01*
X133426247Y-92099999D02*
X133426247Y-92233332D01*
X133854819Y-91799999D02*
X132854819Y-91799999D01*
X132854819Y-91799999D02*
X133854819Y-91399999D01*
X133854819Y-91399999D02*
X132854819Y-91399999D01*
X133854819Y-91066666D02*
X132854819Y-91066666D01*
X132854819Y-91066666D02*
X132854819Y-90899999D01*
X132854819Y-90899999D02*
X132902438Y-90799999D01*
X132902438Y-90799999D02*
X132997676Y-90733333D01*
X132997676Y-90733333D02*
X133092914Y-90699999D01*
X133092914Y-90699999D02*
X133283390Y-90666666D01*
X133283390Y-90666666D02*
X133426247Y-90666666D01*
X133426247Y-90666666D02*
X133616723Y-90699999D01*
X133616723Y-90699999D02*
X133711961Y-90733333D01*
X133711961Y-90733333D02*
X133807200Y-90799999D01*
X133807200Y-90799999D02*
X133854819Y-90899999D01*
X133854819Y-90899999D02*
X133854819Y-91066666D01*
X128954819Y-97016666D02*
X128478628Y-97349999D01*
X128954819Y-97588094D02*
X127954819Y-97588094D01*
X127954819Y-97588094D02*
X127954819Y-97207142D01*
X127954819Y-97207142D02*
X128002438Y-97111904D01*
X128002438Y-97111904D02*
X128050057Y-97064285D01*
X128050057Y-97064285D02*
X128145295Y-97016666D01*
X128145295Y-97016666D02*
X128288152Y-97016666D01*
X128288152Y-97016666D02*
X128383390Y-97064285D01*
X128383390Y-97064285D02*
X128431009Y-97111904D01*
X128431009Y-97111904D02*
X128478628Y-97207142D01*
X128478628Y-97207142D02*
X128478628Y-97588094D01*
X127954819Y-96683332D02*
X127954819Y-96064285D01*
X127954819Y-96064285D02*
X128335771Y-96397618D01*
X128335771Y-96397618D02*
X128335771Y-96254761D01*
X128335771Y-96254761D02*
X128383390Y-96159523D01*
X128383390Y-96159523D02*
X128431009Y-96111904D01*
X128431009Y-96111904D02*
X128526247Y-96064285D01*
X128526247Y-96064285D02*
X128764342Y-96064285D01*
X128764342Y-96064285D02*
X128859580Y-96111904D01*
X128859580Y-96111904D02*
X128907200Y-96159523D01*
X128907200Y-96159523D02*
X128954819Y-96254761D01*
X128954819Y-96254761D02*
X128954819Y-96540475D01*
X128954819Y-96540475D02*
X128907200Y-96635713D01*
X128907200Y-96635713D02*
X128859580Y-96683332D01*
X105859580Y-101916666D02*
X105907200Y-101964285D01*
X105907200Y-101964285D02*
X105954819Y-102107142D01*
X105954819Y-102107142D02*
X105954819Y-102202380D01*
X105954819Y-102202380D02*
X105907200Y-102345237D01*
X105907200Y-102345237D02*
X105811961Y-102440475D01*
X105811961Y-102440475D02*
X105716723Y-102488094D01*
X105716723Y-102488094D02*
X105526247Y-102535713D01*
X105526247Y-102535713D02*
X105383390Y-102535713D01*
X105383390Y-102535713D02*
X105192914Y-102488094D01*
X105192914Y-102488094D02*
X105097676Y-102440475D01*
X105097676Y-102440475D02*
X105002438Y-102345237D01*
X105002438Y-102345237D02*
X104954819Y-102202380D01*
X104954819Y-102202380D02*
X104954819Y-102107142D01*
X104954819Y-102107142D02*
X105002438Y-101964285D01*
X105002438Y-101964285D02*
X105050057Y-101916666D01*
X104954819Y-101583332D02*
X104954819Y-100916666D01*
X104954819Y-100916666D02*
X105954819Y-101345237D01*
X130666666Y-88454819D02*
X130666666Y-89169104D01*
X130666666Y-89169104D02*
X130619047Y-89311961D01*
X130619047Y-89311961D02*
X130523809Y-89407200D01*
X130523809Y-89407200D02*
X130380952Y-89454819D01*
X130380952Y-89454819D02*
X130285714Y-89454819D01*
X131666666Y-89454819D02*
X131095238Y-89454819D01*
X131380952Y-89454819D02*
X131380952Y-88454819D01*
X131380952Y-88454819D02*
X131285714Y-88597676D01*
X131285714Y-88597676D02*
X131190476Y-88692914D01*
X131190476Y-88692914D02*
X131095238Y-88740533D01*
X127633333Y-109654819D02*
X127300000Y-109178628D01*
X127061905Y-109654819D02*
X127061905Y-108654819D01*
X127061905Y-108654819D02*
X127442857Y-108654819D01*
X127442857Y-108654819D02*
X127538095Y-108702438D01*
X127538095Y-108702438D02*
X127585714Y-108750057D01*
X127585714Y-108750057D02*
X127633333Y-108845295D01*
X127633333Y-108845295D02*
X127633333Y-108988152D01*
X127633333Y-108988152D02*
X127585714Y-109083390D01*
X127585714Y-109083390D02*
X127538095Y-109131009D01*
X127538095Y-109131009D02*
X127442857Y-109178628D01*
X127442857Y-109178628D02*
X127061905Y-109178628D01*
X128109524Y-109654819D02*
X128300000Y-109654819D01*
X128300000Y-109654819D02*
X128395238Y-109607200D01*
X128395238Y-109607200D02*
X128442857Y-109559580D01*
X128442857Y-109559580D02*
X128538095Y-109416723D01*
X128538095Y-109416723D02*
X128585714Y-109226247D01*
X128585714Y-109226247D02*
X128585714Y-108845295D01*
X128585714Y-108845295D02*
X128538095Y-108750057D01*
X128538095Y-108750057D02*
X128490476Y-108702438D01*
X128490476Y-108702438D02*
X128395238Y-108654819D01*
X128395238Y-108654819D02*
X128204762Y-108654819D01*
X128204762Y-108654819D02*
X128109524Y-108702438D01*
X128109524Y-108702438D02*
X128061905Y-108750057D01*
X128061905Y-108750057D02*
X128014286Y-108845295D01*
X128014286Y-108845295D02*
X128014286Y-109083390D01*
X128014286Y-109083390D02*
X128061905Y-109178628D01*
X128061905Y-109178628D02*
X128109524Y-109226247D01*
X128109524Y-109226247D02*
X128204762Y-109273866D01*
X128204762Y-109273866D02*
X128395238Y-109273866D01*
X128395238Y-109273866D02*
X128490476Y-109226247D01*
X128490476Y-109226247D02*
X128538095Y-109178628D01*
X128538095Y-109178628D02*
X128585714Y-109083390D01*
X105954819Y-98916666D02*
X105478628Y-99249999D01*
X105954819Y-99488094D02*
X104954819Y-99488094D01*
X104954819Y-99488094D02*
X104954819Y-99107142D01*
X104954819Y-99107142D02*
X105002438Y-99011904D01*
X105002438Y-99011904D02*
X105050057Y-98964285D01*
X105050057Y-98964285D02*
X105145295Y-98916666D01*
X105145295Y-98916666D02*
X105288152Y-98916666D01*
X105288152Y-98916666D02*
X105383390Y-98964285D01*
X105383390Y-98964285D02*
X105431009Y-99011904D01*
X105431009Y-99011904D02*
X105478628Y-99107142D01*
X105478628Y-99107142D02*
X105478628Y-99488094D01*
X105050057Y-98535713D02*
X105002438Y-98488094D01*
X105002438Y-98488094D02*
X104954819Y-98392856D01*
X104954819Y-98392856D02*
X104954819Y-98154761D01*
X104954819Y-98154761D02*
X105002438Y-98059523D01*
X105002438Y-98059523D02*
X105050057Y-98011904D01*
X105050057Y-98011904D02*
X105145295Y-97964285D01*
X105145295Y-97964285D02*
X105240533Y-97964285D01*
X105240533Y-97964285D02*
X105383390Y-98011904D01*
X105383390Y-98011904D02*
X105954819Y-98583332D01*
X105954819Y-98583332D02*
X105954819Y-97964285D01*
X121909580Y-92166666D02*
X121957200Y-92214285D01*
X121957200Y-92214285D02*
X122004819Y-92357142D01*
X122004819Y-92357142D02*
X122004819Y-92452380D01*
X122004819Y-92452380D02*
X121957200Y-92595237D01*
X121957200Y-92595237D02*
X121861961Y-92690475D01*
X121861961Y-92690475D02*
X121766723Y-92738094D01*
X121766723Y-92738094D02*
X121576247Y-92785713D01*
X121576247Y-92785713D02*
X121433390Y-92785713D01*
X121433390Y-92785713D02*
X121242914Y-92738094D01*
X121242914Y-92738094D02*
X121147676Y-92690475D01*
X121147676Y-92690475D02*
X121052438Y-92595237D01*
X121052438Y-92595237D02*
X121004819Y-92452380D01*
X121004819Y-92452380D02*
X121004819Y-92357142D01*
X121004819Y-92357142D02*
X121052438Y-92214285D01*
X121052438Y-92214285D02*
X121100057Y-92166666D01*
X121338152Y-91309523D02*
X122004819Y-91309523D01*
X120957200Y-91547618D02*
X121671485Y-91785713D01*
X121671485Y-91785713D02*
X121671485Y-91166666D01*
X113488095Y-88554819D02*
X113488095Y-89364342D01*
X113488095Y-89364342D02*
X113535714Y-89459580D01*
X113535714Y-89459580D02*
X113583333Y-89507200D01*
X113583333Y-89507200D02*
X113678571Y-89554819D01*
X113678571Y-89554819D02*
X113869047Y-89554819D01*
X113869047Y-89554819D02*
X113964285Y-89507200D01*
X113964285Y-89507200D02*
X114011904Y-89459580D01*
X114011904Y-89459580D02*
X114059523Y-89364342D01*
X114059523Y-89364342D02*
X114059523Y-88554819D01*
X115059523Y-89554819D02*
X114488095Y-89554819D01*
X114773809Y-89554819D02*
X114773809Y-88554819D01*
X114773809Y-88554819D02*
X114678571Y-88697676D01*
X114678571Y-88697676D02*
X114583333Y-88792914D01*
X114583333Y-88792914D02*
X114488095Y-88840533D01*
X119233333Y-98659580D02*
X119185714Y-98707200D01*
X119185714Y-98707200D02*
X119042857Y-98754819D01*
X119042857Y-98754819D02*
X118947619Y-98754819D01*
X118947619Y-98754819D02*
X118804762Y-98707200D01*
X118804762Y-98707200D02*
X118709524Y-98611961D01*
X118709524Y-98611961D02*
X118661905Y-98516723D01*
X118661905Y-98516723D02*
X118614286Y-98326247D01*
X118614286Y-98326247D02*
X118614286Y-98183390D01*
X118614286Y-98183390D02*
X118661905Y-97992914D01*
X118661905Y-97992914D02*
X118709524Y-97897676D01*
X118709524Y-97897676D02*
X118804762Y-97802438D01*
X118804762Y-97802438D02*
X118947619Y-97754819D01*
X118947619Y-97754819D02*
X119042857Y-97754819D01*
X119042857Y-97754819D02*
X119185714Y-97802438D01*
X119185714Y-97802438D02*
X119233333Y-97850057D01*
X119709524Y-98754819D02*
X119900000Y-98754819D01*
X119900000Y-98754819D02*
X119995238Y-98707200D01*
X119995238Y-98707200D02*
X120042857Y-98659580D01*
X120042857Y-98659580D02*
X120138095Y-98516723D01*
X120138095Y-98516723D02*
X120185714Y-98326247D01*
X120185714Y-98326247D02*
X120185714Y-97945295D01*
X120185714Y-97945295D02*
X120138095Y-97850057D01*
X120138095Y-97850057D02*
X120090476Y-97802438D01*
X120090476Y-97802438D02*
X119995238Y-97754819D01*
X119995238Y-97754819D02*
X119804762Y-97754819D01*
X119804762Y-97754819D02*
X119709524Y-97802438D01*
X119709524Y-97802438D02*
X119661905Y-97850057D01*
X119661905Y-97850057D02*
X119614286Y-97945295D01*
X119614286Y-97945295D02*
X119614286Y-98183390D01*
X119614286Y-98183390D02*
X119661905Y-98278628D01*
X119661905Y-98278628D02*
X119709524Y-98326247D01*
X119709524Y-98326247D02*
X119804762Y-98373866D01*
X119804762Y-98373866D02*
X119995238Y-98373866D01*
X119995238Y-98373866D02*
X120090476Y-98326247D01*
X120090476Y-98326247D02*
X120138095Y-98278628D01*
X120138095Y-98278628D02*
X120185714Y-98183390D01*
X105859580Y-94416666D02*
X105907200Y-94464285D01*
X105907200Y-94464285D02*
X105954819Y-94607142D01*
X105954819Y-94607142D02*
X105954819Y-94702380D01*
X105954819Y-94702380D02*
X105907200Y-94845237D01*
X105907200Y-94845237D02*
X105811961Y-94940475D01*
X105811961Y-94940475D02*
X105716723Y-94988094D01*
X105716723Y-94988094D02*
X105526247Y-95035713D01*
X105526247Y-95035713D02*
X105383390Y-95035713D01*
X105383390Y-95035713D02*
X105192914Y-94988094D01*
X105192914Y-94988094D02*
X105097676Y-94940475D01*
X105097676Y-94940475D02*
X105002438Y-94845237D01*
X105002438Y-94845237D02*
X104954819Y-94702380D01*
X104954819Y-94702380D02*
X104954819Y-94607142D01*
X104954819Y-94607142D02*
X105002438Y-94464285D01*
X105002438Y-94464285D02*
X105050057Y-94416666D01*
X105050057Y-94035713D02*
X105002438Y-93988094D01*
X105002438Y-93988094D02*
X104954819Y-93892856D01*
X104954819Y-93892856D02*
X104954819Y-93654761D01*
X104954819Y-93654761D02*
X105002438Y-93559523D01*
X105002438Y-93559523D02*
X105050057Y-93511904D01*
X105050057Y-93511904D02*
X105145295Y-93464285D01*
X105145295Y-93464285D02*
X105240533Y-93464285D01*
X105240533Y-93464285D02*
X105383390Y-93511904D01*
X105383390Y-93511904D02*
X105954819Y-94083332D01*
X105954819Y-94083332D02*
X105954819Y-93464285D01*
X126954819Y-113558333D02*
X127669104Y-113558333D01*
X127669104Y-113558333D02*
X127811961Y-113605952D01*
X127811961Y-113605952D02*
X127907200Y-113701190D01*
X127907200Y-113701190D02*
X127954819Y-113844047D01*
X127954819Y-113844047D02*
X127954819Y-113939285D01*
X127050057Y-113129761D02*
X127002438Y-113082142D01*
X127002438Y-113082142D02*
X126954819Y-112986904D01*
X126954819Y-112986904D02*
X126954819Y-112748809D01*
X126954819Y-112748809D02*
X127002438Y-112653571D01*
X127002438Y-112653571D02*
X127050057Y-112605952D01*
X127050057Y-112605952D02*
X127145295Y-112558333D01*
X127145295Y-112558333D02*
X127240533Y-112558333D01*
X127240533Y-112558333D02*
X127383390Y-112605952D01*
X127383390Y-112605952D02*
X127954819Y-113177380D01*
X127954819Y-113177380D02*
X127954819Y-112558333D01*
X108704819Y-108761904D02*
X109514342Y-108761904D01*
X109514342Y-108761904D02*
X109609580Y-108714285D01*
X109609580Y-108714285D02*
X109657200Y-108666666D01*
X109657200Y-108666666D02*
X109704819Y-108571428D01*
X109704819Y-108571428D02*
X109704819Y-108380952D01*
X109704819Y-108380952D02*
X109657200Y-108285714D01*
X109657200Y-108285714D02*
X109609580Y-108238095D01*
X109609580Y-108238095D02*
X109514342Y-108190476D01*
X109514342Y-108190476D02*
X108704819Y-108190476D01*
X108704819Y-107809523D02*
X108704819Y-107190476D01*
X108704819Y-107190476D02*
X109085771Y-107523809D01*
X109085771Y-107523809D02*
X109085771Y-107380952D01*
X109085771Y-107380952D02*
X109133390Y-107285714D01*
X109133390Y-107285714D02*
X109181009Y-107238095D01*
X109181009Y-107238095D02*
X109276247Y-107190476D01*
X109276247Y-107190476D02*
X109514342Y-107190476D01*
X109514342Y-107190476D02*
X109609580Y-107238095D01*
X109609580Y-107238095D02*
X109657200Y-107285714D01*
X109657200Y-107285714D02*
X109704819Y-107380952D01*
X109704819Y-107380952D02*
X109704819Y-107666666D01*
X109704819Y-107666666D02*
X109657200Y-107761904D01*
X109657200Y-107761904D02*
X109609580Y-107809523D01*
X124238095Y-100204819D02*
X124238095Y-101014342D01*
X124238095Y-101014342D02*
X124285714Y-101109580D01*
X124285714Y-101109580D02*
X124333333Y-101157200D01*
X124333333Y-101157200D02*
X124428571Y-101204819D01*
X124428571Y-101204819D02*
X124619047Y-101204819D01*
X124619047Y-101204819D02*
X124714285Y-101157200D01*
X124714285Y-101157200D02*
X124761904Y-101109580D01*
X124761904Y-101109580D02*
X124809523Y-101014342D01*
X124809523Y-101014342D02*
X124809523Y-100204819D01*
X125238095Y-100300057D02*
X125285714Y-100252438D01*
X125285714Y-100252438D02*
X125380952Y-100204819D01*
X125380952Y-100204819D02*
X125619047Y-100204819D01*
X125619047Y-100204819D02*
X125714285Y-100252438D01*
X125714285Y-100252438D02*
X125761904Y-100300057D01*
X125761904Y-100300057D02*
X125809523Y-100395295D01*
X125809523Y-100395295D02*
X125809523Y-100490533D01*
X125809523Y-100490533D02*
X125761904Y-100633390D01*
X125761904Y-100633390D02*
X125190476Y-101204819D01*
X125190476Y-101204819D02*
X125809523Y-101204819D01*
X130666666Y-100954819D02*
X130666666Y-101669104D01*
X130666666Y-101669104D02*
X130619047Y-101811961D01*
X130619047Y-101811961D02*
X130523809Y-101907200D01*
X130523809Y-101907200D02*
X130380952Y-101954819D01*
X130380952Y-101954819D02*
X130285714Y-101954819D01*
X131047619Y-100954819D02*
X131666666Y-100954819D01*
X131666666Y-100954819D02*
X131333333Y-101335771D01*
X131333333Y-101335771D02*
X131476190Y-101335771D01*
X131476190Y-101335771D02*
X131571428Y-101383390D01*
X131571428Y-101383390D02*
X131619047Y-101431009D01*
X131619047Y-101431009D02*
X131666666Y-101526247D01*
X131666666Y-101526247D02*
X131666666Y-101764342D01*
X131666666Y-101764342D02*
X131619047Y-101859580D01*
X131619047Y-101859580D02*
X131571428Y-101907200D01*
X131571428Y-101907200D02*
X131476190Y-101954819D01*
X131476190Y-101954819D02*
X131190476Y-101954819D01*
X131190476Y-101954819D02*
X131095238Y-101907200D01*
X131095238Y-101907200D02*
X131047619Y-101859580D01*
X105859580Y-89166666D02*
X105907200Y-89214285D01*
X105907200Y-89214285D02*
X105954819Y-89357142D01*
X105954819Y-89357142D02*
X105954819Y-89452380D01*
X105954819Y-89452380D02*
X105907200Y-89595237D01*
X105907200Y-89595237D02*
X105811961Y-89690475D01*
X105811961Y-89690475D02*
X105716723Y-89738094D01*
X105716723Y-89738094D02*
X105526247Y-89785713D01*
X105526247Y-89785713D02*
X105383390Y-89785713D01*
X105383390Y-89785713D02*
X105192914Y-89738094D01*
X105192914Y-89738094D02*
X105097676Y-89690475D01*
X105097676Y-89690475D02*
X105002438Y-89595237D01*
X105002438Y-89595237D02*
X104954819Y-89452380D01*
X104954819Y-89452380D02*
X104954819Y-89357142D01*
X104954819Y-89357142D02*
X105002438Y-89214285D01*
X105002438Y-89214285D02*
X105050057Y-89166666D01*
X104954819Y-88833332D02*
X104954819Y-88214285D01*
X104954819Y-88214285D02*
X105335771Y-88547618D01*
X105335771Y-88547618D02*
X105335771Y-88404761D01*
X105335771Y-88404761D02*
X105383390Y-88309523D01*
X105383390Y-88309523D02*
X105431009Y-88261904D01*
X105431009Y-88261904D02*
X105526247Y-88214285D01*
X105526247Y-88214285D02*
X105764342Y-88214285D01*
X105764342Y-88214285D02*
X105859580Y-88261904D01*
X105859580Y-88261904D02*
X105907200Y-88309523D01*
X105907200Y-88309523D02*
X105954819Y-88404761D01*
X105954819Y-88404761D02*
X105954819Y-88690475D01*
X105954819Y-88690475D02*
X105907200Y-88785713D01*
X105907200Y-88785713D02*
X105859580Y-88833332D01*
X128954819Y-99316666D02*
X128478628Y-99649999D01*
X128954819Y-99888094D02*
X127954819Y-99888094D01*
X127954819Y-99888094D02*
X127954819Y-99507142D01*
X127954819Y-99507142D02*
X128002438Y-99411904D01*
X128002438Y-99411904D02*
X128050057Y-99364285D01*
X128050057Y-99364285D02*
X128145295Y-99316666D01*
X128145295Y-99316666D02*
X128288152Y-99316666D01*
X128288152Y-99316666D02*
X128383390Y-99364285D01*
X128383390Y-99364285D02*
X128431009Y-99411904D01*
X128431009Y-99411904D02*
X128478628Y-99507142D01*
X128478628Y-99507142D02*
X128478628Y-99888094D01*
X128288152Y-98459523D02*
X128954819Y-98459523D01*
X127907200Y-98697618D02*
X128621485Y-98935713D01*
X128621485Y-98935713D02*
X128621485Y-98316666D01*
X105859580Y-105966666D02*
X105907200Y-106014285D01*
X105907200Y-106014285D02*
X105954819Y-106157142D01*
X105954819Y-106157142D02*
X105954819Y-106252380D01*
X105954819Y-106252380D02*
X105907200Y-106395237D01*
X105907200Y-106395237D02*
X105811961Y-106490475D01*
X105811961Y-106490475D02*
X105716723Y-106538094D01*
X105716723Y-106538094D02*
X105526247Y-106585713D01*
X105526247Y-106585713D02*
X105383390Y-106585713D01*
X105383390Y-106585713D02*
X105192914Y-106538094D01*
X105192914Y-106538094D02*
X105097676Y-106490475D01*
X105097676Y-106490475D02*
X105002438Y-106395237D01*
X105002438Y-106395237D02*
X104954819Y-106252380D01*
X104954819Y-106252380D02*
X104954819Y-106157142D01*
X104954819Y-106157142D02*
X105002438Y-106014285D01*
X105002438Y-106014285D02*
X105050057Y-105966666D01*
X105383390Y-105395237D02*
X105335771Y-105490475D01*
X105335771Y-105490475D02*
X105288152Y-105538094D01*
X105288152Y-105538094D02*
X105192914Y-105585713D01*
X105192914Y-105585713D02*
X105145295Y-105585713D01*
X105145295Y-105585713D02*
X105050057Y-105538094D01*
X105050057Y-105538094D02*
X105002438Y-105490475D01*
X105002438Y-105490475D02*
X104954819Y-105395237D01*
X104954819Y-105395237D02*
X104954819Y-105204761D01*
X104954819Y-105204761D02*
X105002438Y-105109523D01*
X105002438Y-105109523D02*
X105050057Y-105061904D01*
X105050057Y-105061904D02*
X105145295Y-105014285D01*
X105145295Y-105014285D02*
X105192914Y-105014285D01*
X105192914Y-105014285D02*
X105288152Y-105061904D01*
X105288152Y-105061904D02*
X105335771Y-105109523D01*
X105335771Y-105109523D02*
X105383390Y-105204761D01*
X105383390Y-105204761D02*
X105383390Y-105395237D01*
X105383390Y-105395237D02*
X105431009Y-105490475D01*
X105431009Y-105490475D02*
X105478628Y-105538094D01*
X105478628Y-105538094D02*
X105573866Y-105585713D01*
X105573866Y-105585713D02*
X105764342Y-105585713D01*
X105764342Y-105585713D02*
X105859580Y-105538094D01*
X105859580Y-105538094D02*
X105907200Y-105490475D01*
X105907200Y-105490475D02*
X105954819Y-105395237D01*
X105954819Y-105395237D02*
X105954819Y-105204761D01*
X105954819Y-105204761D02*
X105907200Y-105109523D01*
X105907200Y-105109523D02*
X105859580Y-105061904D01*
X105859580Y-105061904D02*
X105764342Y-105014285D01*
X105764342Y-105014285D02*
X105573866Y-105014285D01*
X105573866Y-105014285D02*
X105478628Y-105061904D01*
X105478628Y-105061904D02*
X105431009Y-105109523D01*
X105431009Y-105109523D02*
X105383390Y-105204761D01*
X122833333Y-95859580D02*
X122785714Y-95907200D01*
X122785714Y-95907200D02*
X122642857Y-95954819D01*
X122642857Y-95954819D02*
X122547619Y-95954819D01*
X122547619Y-95954819D02*
X122404762Y-95907200D01*
X122404762Y-95907200D02*
X122309524Y-95811961D01*
X122309524Y-95811961D02*
X122261905Y-95716723D01*
X122261905Y-95716723D02*
X122214286Y-95526247D01*
X122214286Y-95526247D02*
X122214286Y-95383390D01*
X122214286Y-95383390D02*
X122261905Y-95192914D01*
X122261905Y-95192914D02*
X122309524Y-95097676D01*
X122309524Y-95097676D02*
X122404762Y-95002438D01*
X122404762Y-95002438D02*
X122547619Y-94954819D01*
X122547619Y-94954819D02*
X122642857Y-94954819D01*
X122642857Y-94954819D02*
X122785714Y-95002438D01*
X122785714Y-95002438D02*
X122833333Y-95050057D01*
X123738095Y-94954819D02*
X123261905Y-94954819D01*
X123261905Y-94954819D02*
X123214286Y-95431009D01*
X123214286Y-95431009D02*
X123261905Y-95383390D01*
X123261905Y-95383390D02*
X123357143Y-95335771D01*
X123357143Y-95335771D02*
X123595238Y-95335771D01*
X123595238Y-95335771D02*
X123690476Y-95383390D01*
X123690476Y-95383390D02*
X123738095Y-95431009D01*
X123738095Y-95431009D02*
X123785714Y-95526247D01*
X123785714Y-95526247D02*
X123785714Y-95764342D01*
X123785714Y-95764342D02*
X123738095Y-95859580D01*
X123738095Y-95859580D02*
X123690476Y-95907200D01*
X123690476Y-95907200D02*
X123595238Y-95954819D01*
X123595238Y-95954819D02*
X123357143Y-95954819D01*
X123357143Y-95954819D02*
X123261905Y-95907200D01*
X123261905Y-95907200D02*
X123214286Y-95859580D01*
X105859580Y-92166666D02*
X105907200Y-92214285D01*
X105907200Y-92214285D02*
X105954819Y-92357142D01*
X105954819Y-92357142D02*
X105954819Y-92452380D01*
X105954819Y-92452380D02*
X105907200Y-92595237D01*
X105907200Y-92595237D02*
X105811961Y-92690475D01*
X105811961Y-92690475D02*
X105716723Y-92738094D01*
X105716723Y-92738094D02*
X105526247Y-92785713D01*
X105526247Y-92785713D02*
X105383390Y-92785713D01*
X105383390Y-92785713D02*
X105192914Y-92738094D01*
X105192914Y-92738094D02*
X105097676Y-92690475D01*
X105097676Y-92690475D02*
X105002438Y-92595237D01*
X105002438Y-92595237D02*
X104954819Y-92452380D01*
X104954819Y-92452380D02*
X104954819Y-92357142D01*
X104954819Y-92357142D02*
X105002438Y-92214285D01*
X105002438Y-92214285D02*
X105050057Y-92166666D01*
X105954819Y-91214285D02*
X105954819Y-91785713D01*
X105954819Y-91499999D02*
X104954819Y-91499999D01*
X104954819Y-91499999D02*
X105097676Y-91595237D01*
X105097676Y-91595237D02*
X105192914Y-91690475D01*
X105192914Y-91690475D02*
X105240533Y-91785713D01*
X120954819Y-106392857D02*
X120478628Y-106726190D01*
X120954819Y-106964285D02*
X119954819Y-106964285D01*
X119954819Y-106964285D02*
X119954819Y-106583333D01*
X119954819Y-106583333D02*
X120002438Y-106488095D01*
X120002438Y-106488095D02*
X120050057Y-106440476D01*
X120050057Y-106440476D02*
X120145295Y-106392857D01*
X120145295Y-106392857D02*
X120288152Y-106392857D01*
X120288152Y-106392857D02*
X120383390Y-106440476D01*
X120383390Y-106440476D02*
X120431009Y-106488095D01*
X120431009Y-106488095D02*
X120478628Y-106583333D01*
X120478628Y-106583333D02*
X120478628Y-106964285D01*
X120954819Y-105440476D02*
X120954819Y-106011904D01*
X120954819Y-105726190D02*
X119954819Y-105726190D01*
X119954819Y-105726190D02*
X120097676Y-105821428D01*
X120097676Y-105821428D02*
X120192914Y-105916666D01*
X120192914Y-105916666D02*
X120240533Y-106011904D01*
X119954819Y-104821428D02*
X119954819Y-104726190D01*
X119954819Y-104726190D02*
X120002438Y-104630952D01*
X120002438Y-104630952D02*
X120050057Y-104583333D01*
X120050057Y-104583333D02*
X120145295Y-104535714D01*
X120145295Y-104535714D02*
X120335771Y-104488095D01*
X120335771Y-104488095D02*
X120573866Y-104488095D01*
X120573866Y-104488095D02*
X120764342Y-104535714D01*
X120764342Y-104535714D02*
X120859580Y-104583333D01*
X120859580Y-104583333D02*
X120907200Y-104630952D01*
X120907200Y-104630952D02*
X120954819Y-104726190D01*
X120954819Y-104726190D02*
X120954819Y-104821428D01*
X120954819Y-104821428D02*
X120907200Y-104916666D01*
X120907200Y-104916666D02*
X120859580Y-104964285D01*
X120859580Y-104964285D02*
X120764342Y-105011904D01*
X120764342Y-105011904D02*
X120573866Y-105059523D01*
X120573866Y-105059523D02*
X120335771Y-105059523D01*
X120335771Y-105059523D02*
X120145295Y-105011904D01*
X120145295Y-105011904D02*
X120050057Y-104964285D01*
X120050057Y-104964285D02*
X120002438Y-104916666D01*
X120002438Y-104916666D02*
X119954819Y-104821428D01*
X116011905Y-103704819D02*
X116011905Y-102704819D01*
X116011905Y-102704819D02*
X116250000Y-102704819D01*
X116250000Y-102704819D02*
X116392857Y-102752438D01*
X116392857Y-102752438D02*
X116488095Y-102847676D01*
X116488095Y-102847676D02*
X116535714Y-102942914D01*
X116535714Y-102942914D02*
X116583333Y-103133390D01*
X116583333Y-103133390D02*
X116583333Y-103276247D01*
X116583333Y-103276247D02*
X116535714Y-103466723D01*
X116535714Y-103466723D02*
X116488095Y-103561961D01*
X116488095Y-103561961D02*
X116392857Y-103657200D01*
X116392857Y-103657200D02*
X116250000Y-103704819D01*
X116250000Y-103704819D02*
X116011905Y-103704819D01*
X117535714Y-103704819D02*
X116964286Y-103704819D01*
X117250000Y-103704819D02*
X117250000Y-102704819D01*
X117250000Y-102704819D02*
X117154762Y-102847676D01*
X117154762Y-102847676D02*
X117059524Y-102942914D01*
X117059524Y-102942914D02*
X116964286Y-102990533D01*
X113833333Y-110359580D02*
X113785714Y-110407200D01*
X113785714Y-110407200D02*
X113642857Y-110454819D01*
X113642857Y-110454819D02*
X113547619Y-110454819D01*
X113547619Y-110454819D02*
X113404762Y-110407200D01*
X113404762Y-110407200D02*
X113309524Y-110311961D01*
X113309524Y-110311961D02*
X113261905Y-110216723D01*
X113261905Y-110216723D02*
X113214286Y-110026247D01*
X113214286Y-110026247D02*
X113214286Y-109883390D01*
X113214286Y-109883390D02*
X113261905Y-109692914D01*
X113261905Y-109692914D02*
X113309524Y-109597676D01*
X113309524Y-109597676D02*
X113404762Y-109502438D01*
X113404762Y-109502438D02*
X113547619Y-109454819D01*
X113547619Y-109454819D02*
X113642857Y-109454819D01*
X113642857Y-109454819D02*
X113785714Y-109502438D01*
X113785714Y-109502438D02*
X113833333Y-109550057D01*
X114690476Y-109454819D02*
X114500000Y-109454819D01*
X114500000Y-109454819D02*
X114404762Y-109502438D01*
X114404762Y-109502438D02*
X114357143Y-109550057D01*
X114357143Y-109550057D02*
X114261905Y-109692914D01*
X114261905Y-109692914D02*
X114214286Y-109883390D01*
X114214286Y-109883390D02*
X114214286Y-110264342D01*
X114214286Y-110264342D02*
X114261905Y-110359580D01*
X114261905Y-110359580D02*
X114309524Y-110407200D01*
X114309524Y-110407200D02*
X114404762Y-110454819D01*
X114404762Y-110454819D02*
X114595238Y-110454819D01*
X114595238Y-110454819D02*
X114690476Y-110407200D01*
X114690476Y-110407200D02*
X114738095Y-110359580D01*
X114738095Y-110359580D02*
X114785714Y-110264342D01*
X114785714Y-110264342D02*
X114785714Y-110026247D01*
X114785714Y-110026247D02*
X114738095Y-109931009D01*
X114738095Y-109931009D02*
X114690476Y-109883390D01*
X114690476Y-109883390D02*
X114595238Y-109835771D01*
X114595238Y-109835771D02*
X114404762Y-109835771D01*
X114404762Y-109835771D02*
X114309524Y-109883390D01*
X114309524Y-109883390D02*
X114261905Y-109931009D01*
X114261905Y-109931009D02*
X114214286Y-110026247D01*
X105954819Y-96666666D02*
X105478628Y-96999999D01*
X105954819Y-97238094D02*
X104954819Y-97238094D01*
X104954819Y-97238094D02*
X104954819Y-96857142D01*
X104954819Y-96857142D02*
X105002438Y-96761904D01*
X105002438Y-96761904D02*
X105050057Y-96714285D01*
X105050057Y-96714285D02*
X105145295Y-96666666D01*
X105145295Y-96666666D02*
X105288152Y-96666666D01*
X105288152Y-96666666D02*
X105383390Y-96714285D01*
X105383390Y-96714285D02*
X105431009Y-96761904D01*
X105431009Y-96761904D02*
X105478628Y-96857142D01*
X105478628Y-96857142D02*
X105478628Y-97238094D01*
X105954819Y-95714285D02*
X105954819Y-96285713D01*
X105954819Y-95999999D02*
X104954819Y-95999999D01*
X104954819Y-95999999D02*
X105097676Y-96095237D01*
X105097676Y-96095237D02*
X105192914Y-96190475D01*
X105192914Y-96190475D02*
X105240533Y-96285713D01*
D12*
%TO.C,R3*%
X126227064Y-97485000D02*
X125772936Y-97485000D01*
X126227064Y-96015000D02*
X125772936Y-96015000D01*
%TO.C,C7*%
X106265000Y-102011252D02*
X106265000Y-101488748D01*
X107735000Y-102011252D02*
X107735000Y-101488748D01*
%TO.C,J1*%
X129670000Y-92850000D02*
X129670000Y-100530000D01*
X129670000Y-92850000D02*
X132330000Y-92850000D01*
X129670000Y-100530000D02*
X132330000Y-100530000D01*
X131000000Y-90250000D02*
X132330000Y-90250000D01*
X132330000Y-90250000D02*
X132330000Y-91580000D01*
X132330000Y-92850000D02*
X132330000Y-100530000D01*
%TO.C,R9*%
X126535000Y-108972936D02*
X126535000Y-109427064D01*
X125065000Y-108972936D02*
X125065000Y-109427064D01*
%TO.C,R2*%
X108227064Y-99485000D02*
X107772936Y-99485000D01*
X108227064Y-98015000D02*
X107772936Y-98015000D01*
%TO.C,C4*%
X119065000Y-92298752D02*
X119065000Y-91776248D01*
X120535000Y-92298752D02*
X120535000Y-91776248D01*
%TO.C,U1*%
X114250000Y-89940000D02*
X110750000Y-89940000D01*
X114250000Y-89940000D02*
X116200000Y-89940000D01*
X114250000Y-100060000D02*
X112300000Y-100060000D01*
X114250000Y-100060000D02*
X116200000Y-100060000D01*
%TO.C,C9*%
X118665000Y-101061252D02*
X118665000Y-100538748D01*
X120135000Y-101061252D02*
X120135000Y-100538748D01*
%TO.C,C2*%
X108261252Y-94985000D02*
X107738748Y-94985000D01*
X108261252Y-93515000D02*
X107738748Y-93515000D01*
%TO.C,J2*%
X123520000Y-114555000D02*
X126120000Y-114555000D01*
X123520000Y-114555000D02*
X123520000Y-111895000D01*
X126120000Y-114555000D02*
X126120000Y-111895000D01*
X120920000Y-113225000D02*
X120920000Y-111895000D01*
X120920000Y-111895000D02*
X122250000Y-111895000D01*
X123520000Y-111895000D02*
X126120000Y-111895000D01*
%TO.C,U3*%
X115410000Y-100650000D02*
X115410000Y-106660000D01*
X108590000Y-102900000D02*
X108590000Y-106660000D01*
X115410000Y-106660000D02*
X114150000Y-106660000D01*
X108590000Y-106660000D02*
X109850000Y-106660000D01*
%TO.C,U2*%
X125275000Y-101595000D02*
X121825000Y-101595000D01*
X125275000Y-101595000D02*
X127225000Y-101595000D01*
X125275000Y-106715000D02*
X123325000Y-106715000D01*
X125275000Y-106715000D02*
X127225000Y-106715000D01*
%TO.C,J3*%
X129695000Y-105230000D02*
X129695000Y-112910000D01*
X129695000Y-105230000D02*
X132355000Y-105230000D01*
X129695000Y-112910000D02*
X132355000Y-112910000D01*
X131025000Y-102630000D02*
X132355000Y-102630000D01*
X132355000Y-102630000D02*
X132355000Y-103960000D01*
X132355000Y-105230000D02*
X132355000Y-112910000D01*
%TO.C,C3*%
X107738748Y-88265000D02*
X108261252Y-88265000D01*
X107738748Y-89735000D02*
X108261252Y-89735000D01*
%TO.C,R4*%
X126227064Y-99985000D02*
X125772936Y-99985000D01*
X126227064Y-98515000D02*
X125772936Y-98515000D01*
%TO.C,C8*%
X107735000Y-105488748D02*
X107735000Y-106011252D01*
X106265000Y-105488748D02*
X106265000Y-106011252D01*
%TO.C,C5*%
X122265000Y-98261252D02*
X122265000Y-97738748D01*
X123735000Y-98261252D02*
X123735000Y-97738748D01*
%TO.C,C1*%
X108261252Y-92735000D02*
X107738748Y-92735000D01*
X108261252Y-91265000D02*
X107738748Y-91265000D01*
%TO.C,R10*%
X119735000Y-105522936D02*
X119735000Y-105977064D01*
X118265000Y-105522936D02*
X118265000Y-105977064D01*
%TO.C,D1*%
X117710000Y-103890000D02*
X115790000Y-103890000D01*
X115790000Y-103890000D02*
X115790000Y-106750000D01*
X117710000Y-106750000D02*
X117710000Y-103890000D01*
%TO.C,C6*%
X113738748Y-110765000D02*
X114261252Y-110765000D01*
X113738748Y-112235000D02*
X114261252Y-112235000D01*
%TO.C,R1*%
X107772936Y-95765000D02*
X108227064Y-95765000D01*
X107772936Y-97235000D02*
X108227064Y-97235000D01*
%TD*%
%LPC*%
D13*
G36*
X117858973Y-108049751D02*
G01*
X117867701Y-108050366D01*
X117885158Y-108052778D01*
X117902483Y-108056694D01*
X117919518Y-108062028D01*
X117936103Y-108068696D01*
X117952079Y-108076611D01*
X117967288Y-108085690D01*
X117981571Y-108095845D01*
X117994768Y-108106993D01*
X118000910Y-108112913D01*
X118006722Y-108119048D01*
X118012182Y-108125389D01*
X118017272Y-108131925D01*
X118021972Y-108138644D01*
X118026261Y-108145537D01*
X118030119Y-108152593D01*
X118033528Y-108159801D01*
X118036467Y-108167151D01*
X118038916Y-108174631D01*
X118040856Y-108182232D01*
X118042265Y-108189942D01*
X118043126Y-108197750D01*
X118043417Y-108205647D01*
X118043356Y-108207754D01*
X118043179Y-108210102D01*
X118042894Y-108212682D01*
X118042508Y-108215487D01*
X118041464Y-108221739D01*
X118040110Y-108228798D01*
X118032833Y-108263856D01*
X117966688Y-108472876D01*
X117962878Y-108482795D01*
X117958413Y-108492694D01*
X117953316Y-108502555D01*
X117947614Y-108512357D01*
X117941333Y-108522082D01*
X117934498Y-108531710D01*
X117927135Y-108541222D01*
X117919270Y-108550598D01*
X117910928Y-108559819D01*
X117902135Y-108568865D01*
X117892916Y-108577718D01*
X117883298Y-108586358D01*
X117862965Y-108602920D01*
X117841342Y-108618397D01*
X117818633Y-108632634D01*
X117795045Y-108645476D01*
X117782985Y-108651325D01*
X117770782Y-108656767D01*
X117758462Y-108661783D01*
X117746050Y-108666353D01*
X117733573Y-108670458D01*
X117721055Y-108674078D01*
X117708523Y-108677195D01*
X117696001Y-108679789D01*
X117683517Y-108681840D01*
X117671095Y-108683329D01*
X117658762Y-108684236D01*
X117646542Y-108684543D01*
X117141188Y-108684543D01*
X116934813Y-109316897D01*
X116426813Y-109316897D01*
X116699930Y-108472876D01*
X117207334Y-108472876D01*
X117461334Y-108472876D01*
X117530126Y-108263856D01*
X117276126Y-108263856D01*
X117207334Y-108472876D01*
X116699930Y-108472876D01*
X116836917Y-108049543D01*
X117850271Y-108049543D01*
X117858973Y-108049751D01*
G37*
G36*
X116940463Y-111597330D02*
G01*
X116948311Y-111597842D01*
X116956123Y-111598694D01*
X116963884Y-111599888D01*
X116971582Y-111601423D01*
X116979202Y-111603299D01*
X116986730Y-111605516D01*
X116994151Y-111608074D01*
X117001453Y-111610973D01*
X117008620Y-111614213D01*
X117015639Y-111617794D01*
X117022496Y-111621716D01*
X117029176Y-111625979D01*
X117035666Y-111630584D01*
X117041952Y-111635529D01*
X117048019Y-111640816D01*
X117052884Y-111646861D01*
X117057548Y-111653089D01*
X117061994Y-111659495D01*
X117066209Y-111666075D01*
X117070175Y-111672826D01*
X117073877Y-111679743D01*
X117077301Y-111686824D01*
X117080430Y-111694063D01*
X117083249Y-111701457D01*
X117085742Y-111709003D01*
X117087895Y-111716695D01*
X117089690Y-111724531D01*
X117091114Y-111732507D01*
X117092150Y-111740618D01*
X117092783Y-111748861D01*
X117092998Y-111757232D01*
X117092783Y-111764264D01*
X117092150Y-111771443D01*
X117091114Y-111778731D01*
X117089690Y-111786088D01*
X117087895Y-111793477D01*
X117085742Y-111800857D01*
X117083249Y-111808192D01*
X117080430Y-111815440D01*
X117077301Y-111822565D01*
X117073877Y-111829527D01*
X117070175Y-111836288D01*
X117066209Y-111842808D01*
X117061994Y-111849050D01*
X117057548Y-111854973D01*
X117052884Y-111860540D01*
X117048019Y-111865711D01*
X117041973Y-111871974D01*
X117035745Y-111877861D01*
X117029339Y-111883367D01*
X117022759Y-111888490D01*
X117016008Y-111893226D01*
X117009091Y-111897570D01*
X117002010Y-111901519D01*
X116994771Y-111905068D01*
X116987377Y-111908215D01*
X116979831Y-111910954D01*
X116972139Y-111913283D01*
X116964303Y-111915197D01*
X116956327Y-111916692D01*
X116948216Y-111917765D01*
X116939973Y-111918412D01*
X116931602Y-111918628D01*
X116923231Y-111918382D01*
X116914988Y-111917656D01*
X116906876Y-111916465D01*
X116898901Y-111914825D01*
X116891065Y-111912750D01*
X116883372Y-111910256D01*
X116875827Y-111907360D01*
X116868432Y-111904076D01*
X116861193Y-111900420D01*
X116854113Y-111896407D01*
X116847195Y-111892053D01*
X116840445Y-111887374D01*
X116833864Y-111882385D01*
X116827458Y-111877101D01*
X116821231Y-111871538D01*
X116815185Y-111865711D01*
X116810320Y-111861005D01*
X116805656Y-111855841D01*
X116801209Y-111850259D01*
X116796995Y-111844297D01*
X116793029Y-111837993D01*
X116789326Y-111831388D01*
X116785903Y-111824519D01*
X116782774Y-111817425D01*
X116779955Y-111810145D01*
X116777461Y-111802718D01*
X116775309Y-111795182D01*
X116773513Y-111787577D01*
X116772090Y-111779940D01*
X116771054Y-111772311D01*
X116770421Y-111764729D01*
X116770206Y-111757232D01*
X116770421Y-111748861D01*
X116771054Y-111740618D01*
X116772090Y-111732507D01*
X116773513Y-111724532D01*
X116775309Y-111716695D01*
X116777461Y-111709003D01*
X116779955Y-111701457D01*
X116782774Y-111694063D01*
X116785903Y-111686824D01*
X116789326Y-111679744D01*
X116793029Y-111672826D01*
X116796995Y-111666075D01*
X116801209Y-111659495D01*
X116805656Y-111653089D01*
X116810320Y-111646861D01*
X116815185Y-111640816D01*
X116821493Y-111635529D01*
X116828003Y-111630584D01*
X116834702Y-111625979D01*
X116841576Y-111621716D01*
X116848611Y-111617794D01*
X116855793Y-111614213D01*
X116863108Y-111610973D01*
X116870541Y-111608074D01*
X116878079Y-111605516D01*
X116885707Y-111603299D01*
X116893413Y-111601423D01*
X116901180Y-111599888D01*
X116908996Y-111598694D01*
X116916846Y-111597842D01*
X116924717Y-111597330D01*
X116932594Y-111597159D01*
X116940463Y-111597330D01*
G37*
G36*
X116231041Y-113632065D02*
G01*
X116233386Y-113632187D01*
X116235729Y-113632421D01*
X116238065Y-113632767D01*
X116240388Y-113633223D01*
X116242693Y-113633789D01*
X116244975Y-113634463D01*
X116247228Y-113635245D01*
X116249448Y-113636133D01*
X116251628Y-113637127D01*
X116253763Y-113638226D01*
X116255849Y-113639428D01*
X116257879Y-113640733D01*
X116259849Y-113642140D01*
X116261753Y-113643647D01*
X116263586Y-113645255D01*
X116265343Y-113646961D01*
X116267017Y-113648765D01*
X116268604Y-113650666D01*
X116270099Y-113652663D01*
X116271496Y-113654754D01*
X116272789Y-113656940D01*
X116273968Y-113659187D01*
X116275023Y-113661462D01*
X116275956Y-113663759D01*
X116276768Y-113666076D01*
X116277460Y-113668409D01*
X116278033Y-113670753D01*
X116278488Y-113673105D01*
X116278825Y-113675461D01*
X116279046Y-113677817D01*
X116279152Y-113680169D01*
X116279143Y-113682513D01*
X116279021Y-113684845D01*
X116278787Y-113687162D01*
X116278441Y-113689460D01*
X116277985Y-113691735D01*
X116277420Y-113693982D01*
X116276745Y-113696198D01*
X116275964Y-113698380D01*
X116275075Y-113700522D01*
X116274081Y-113702622D01*
X116272983Y-113704676D01*
X116271780Y-113706679D01*
X116270475Y-113708628D01*
X116269069Y-113710518D01*
X116267561Y-113712347D01*
X116265954Y-113714110D01*
X116264248Y-113715803D01*
X116262444Y-113717422D01*
X116260543Y-113718964D01*
X116258546Y-113720425D01*
X116256454Y-113721800D01*
X116254268Y-113723086D01*
X116190141Y-113757111D01*
X116124111Y-113788787D01*
X116056693Y-113818185D01*
X115988403Y-113845373D01*
X115919757Y-113870422D01*
X115851270Y-113893401D01*
X115783457Y-113914380D01*
X115716834Y-113933430D01*
X115589219Y-113966017D01*
X115472549Y-113991721D01*
X115370948Y-114011099D01*
X115288539Y-114024711D01*
X115324465Y-114053174D01*
X115371552Y-114086723D01*
X115431042Y-114124984D01*
X115504175Y-114167586D01*
X115592190Y-114214157D01*
X115696328Y-114264324D01*
X115817830Y-114317716D01*
X115957935Y-114373961D01*
X116006106Y-114391981D01*
X116053835Y-114408860D01*
X116147680Y-114439342D01*
X116238906Y-114465699D01*
X116326946Y-114488228D01*
X116411234Y-114507221D01*
X116491205Y-114522975D01*
X116566292Y-114535783D01*
X116635930Y-114545940D01*
X116699552Y-114553740D01*
X116756594Y-114559479D01*
X116806489Y-114563450D01*
X116848671Y-114565949D01*
X116907634Y-114567706D01*
X116928956Y-114567106D01*
X116934248Y-114567106D01*
X117037518Y-114563344D01*
X117132840Y-114555526D01*
X117252409Y-114540979D01*
X117392566Y-114517626D01*
X117469221Y-114501999D01*
X117549652Y-114483391D01*
X117633400Y-114461542D01*
X117720008Y-114436194D01*
X117809019Y-114407087D01*
X117899976Y-114373961D01*
X117972432Y-114345941D01*
X118040082Y-114318476D01*
X118103080Y-114291623D01*
X118161583Y-114265440D01*
X118215745Y-114239986D01*
X118265722Y-114215319D01*
X118311667Y-114191497D01*
X118353737Y-114168578D01*
X118392086Y-114146620D01*
X118426869Y-114125681D01*
X118458242Y-114105820D01*
X118486359Y-114087095D01*
X118511376Y-114069563D01*
X118533447Y-114053283D01*
X118552727Y-114038313D01*
X118569372Y-114024711D01*
X118486964Y-114011099D01*
X118385363Y-113991721D01*
X118268693Y-113966017D01*
X118141078Y-113933430D01*
X118006642Y-113893401D01*
X117938155Y-113870422D01*
X117869508Y-113845373D01*
X117801219Y-113818185D01*
X117733801Y-113788787D01*
X117667771Y-113757111D01*
X117603644Y-113723086D01*
X117601458Y-113721800D01*
X117599366Y-113720425D01*
X117597369Y-113718964D01*
X117595468Y-113717422D01*
X117593664Y-113715803D01*
X117591958Y-113714110D01*
X117590351Y-113712347D01*
X117588843Y-113710518D01*
X117587437Y-113708628D01*
X117586132Y-113706679D01*
X117584929Y-113704676D01*
X117583831Y-113702622D01*
X117582837Y-113700522D01*
X117581948Y-113698380D01*
X117581167Y-113696198D01*
X117580493Y-113693982D01*
X117579927Y-113691735D01*
X117579471Y-113689460D01*
X117579125Y-113687162D01*
X117578891Y-113684845D01*
X117578769Y-113682513D01*
X117578760Y-113680169D01*
X117578866Y-113677817D01*
X117579087Y-113675461D01*
X117579424Y-113673105D01*
X117579879Y-113670753D01*
X117580452Y-113668409D01*
X117581144Y-113666076D01*
X117581956Y-113663759D01*
X117582889Y-113661462D01*
X117583944Y-113659187D01*
X117585123Y-113656940D01*
X117586409Y-113654754D01*
X117587784Y-113652663D01*
X117589245Y-113650666D01*
X117590786Y-113648765D01*
X117592406Y-113646961D01*
X117594099Y-113645255D01*
X117595862Y-113643647D01*
X117597690Y-113642140D01*
X117599581Y-113640733D01*
X117601530Y-113639428D01*
X117603533Y-113638226D01*
X117605586Y-113637127D01*
X117607686Y-113636133D01*
X117609829Y-113635245D01*
X117612010Y-113634463D01*
X117614227Y-113633789D01*
X117616474Y-113633223D01*
X117618748Y-113632767D01*
X117621046Y-113632421D01*
X117623363Y-113632187D01*
X117625696Y-113632065D01*
X117628040Y-113632057D01*
X117630392Y-113632162D01*
X117632748Y-113632384D01*
X117635103Y-113632721D01*
X117637455Y-113633176D01*
X117639800Y-113633748D01*
X117642132Y-113634440D01*
X117644449Y-113635252D01*
X117646747Y-113636186D01*
X117649021Y-113637241D01*
X117651269Y-113638419D01*
X117689987Y-113659297D01*
X117729653Y-113679275D01*
X117811274Y-113716601D01*
X117895027Y-113750523D01*
X117979806Y-113781170D01*
X118064509Y-113808670D01*
X118148029Y-113833151D01*
X118229262Y-113854741D01*
X118307104Y-113873567D01*
X118380450Y-113889758D01*
X118448196Y-113903442D01*
X118562468Y-113923797D01*
X118675206Y-113940044D01*
X118677190Y-113940105D01*
X118679169Y-113940287D01*
X118681142Y-113940585D01*
X118683102Y-113940995D01*
X118685047Y-113941514D01*
X118686973Y-113942137D01*
X118688875Y-113942861D01*
X118690750Y-113943682D01*
X118692594Y-113944596D01*
X118694404Y-113945599D01*
X118696174Y-113946688D01*
X118697902Y-113947857D01*
X118699583Y-113949105D01*
X118701215Y-113950426D01*
X118702791Y-113951816D01*
X118704310Y-113953273D01*
X118705767Y-113954763D01*
X118707157Y-113956260D01*
X118708478Y-113957773D01*
X118709726Y-113959309D01*
X118710895Y-113960876D01*
X118711984Y-113962482D01*
X118712987Y-113964134D01*
X118713901Y-113965841D01*
X118714722Y-113967610D01*
X118715446Y-113969448D01*
X118716069Y-113971364D01*
X118716588Y-113973365D01*
X118716998Y-113975459D01*
X118717296Y-113977654D01*
X118717478Y-113979958D01*
X118717539Y-113982378D01*
X118717539Y-114244315D01*
X118717477Y-114246795D01*
X118717291Y-114249270D01*
X118716981Y-114251739D01*
X118716547Y-114254195D01*
X118715989Y-114256636D01*
X118715307Y-114259058D01*
X118714500Y-114261456D01*
X118713570Y-114263828D01*
X118712516Y-114266168D01*
X118711338Y-114268473D01*
X118710036Y-114270740D01*
X118708609Y-114272964D01*
X118707059Y-114275142D01*
X118705385Y-114277269D01*
X118703586Y-114279342D01*
X118701664Y-114281356D01*
X118700713Y-114282266D01*
X118699571Y-114283310D01*
X118698026Y-114284664D01*
X118696109Y-114286266D01*
X118693851Y-114288054D01*
X118691283Y-114289966D01*
X118689892Y-114290949D01*
X118688435Y-114291940D01*
X118900102Y-114368669D01*
X118900102Y-114463919D01*
X118701664Y-114538003D01*
X118703586Y-114539552D01*
X118705385Y-114541217D01*
X118707059Y-114542991D01*
X118708609Y-114544865D01*
X118710035Y-114546833D01*
X118711338Y-114548886D01*
X118712516Y-114551016D01*
X118713570Y-114553216D01*
X118714500Y-114555478D01*
X118715307Y-114557795D01*
X118715989Y-114560158D01*
X118716547Y-114562559D01*
X118716981Y-114564992D01*
X118717291Y-114567448D01*
X118717477Y-114569920D01*
X118717539Y-114572399D01*
X118717539Y-114842274D01*
X118717500Y-114844010D01*
X118717386Y-114845744D01*
X118717197Y-114847474D01*
X118716934Y-114849198D01*
X118716600Y-114850915D01*
X118716196Y-114852622D01*
X118715723Y-114854317D01*
X118715183Y-114855999D01*
X118714576Y-114857665D01*
X118713905Y-114859314D01*
X118713172Y-114860943D01*
X118712376Y-114862552D01*
X118710607Y-114865696D01*
X118708609Y-114868732D01*
X118706394Y-114871644D01*
X118703974Y-114874416D01*
X118701360Y-114877034D01*
X118698563Y-114879481D01*
X118695596Y-114881742D01*
X118694053Y-114882797D01*
X118692471Y-114883801D01*
X118690852Y-114884750D01*
X118689197Y-114885643D01*
X118687509Y-114886478D01*
X118685789Y-114887253D01*
X116944831Y-115524899D01*
X116943838Y-115525364D01*
X116942846Y-115525772D01*
X116941854Y-115526125D01*
X116940862Y-115526428D01*
X116939870Y-115526685D01*
X116938878Y-115526899D01*
X116937885Y-115527074D01*
X116936893Y-115527214D01*
X116935901Y-115527323D01*
X116934909Y-115527405D01*
X116932925Y-115527503D01*
X116930940Y-115527539D01*
X116928956Y-115527545D01*
X116926971Y-115527539D01*
X116924987Y-115527503D01*
X116923003Y-115527405D01*
X116922011Y-115527323D01*
X116921018Y-115527214D01*
X116920026Y-115527074D01*
X116919034Y-115526899D01*
X116918042Y-115526685D01*
X116917050Y-115526428D01*
X116916058Y-115526125D01*
X116915065Y-115525772D01*
X116914073Y-115525364D01*
X116913081Y-115524899D01*
X116588006Y-115405836D01*
X115172123Y-114887253D01*
X115170402Y-114886718D01*
X115168714Y-114886108D01*
X115167060Y-114885425D01*
X115165441Y-114884669D01*
X115162315Y-114882951D01*
X115159348Y-114880969D01*
X115156552Y-114878739D01*
X115153938Y-114876277D01*
X115151517Y-114873597D01*
X115149302Y-114870716D01*
X115147304Y-114867649D01*
X115145535Y-114864412D01*
X115144006Y-114861019D01*
X115142729Y-114857487D01*
X115141716Y-114853831D01*
X115140977Y-114850067D01*
X115140526Y-114846209D01*
X115140373Y-114842274D01*
X115140373Y-114802586D01*
X115240914Y-114802586D01*
X116883977Y-115405836D01*
X116979227Y-115405836D01*
X118622289Y-114802586D01*
X118622289Y-114635899D01*
X116979227Y-115207399D01*
X116979227Y-115405836D01*
X116883977Y-115405836D01*
X116883977Y-115207399D01*
X115240914Y-114635899D01*
X115240914Y-114802586D01*
X115140373Y-114802586D01*
X115140373Y-114635899D01*
X115140373Y-114572399D01*
X115140435Y-114569920D01*
X115140621Y-114567448D01*
X115140931Y-114564992D01*
X115141365Y-114562560D01*
X115141923Y-114560158D01*
X115142605Y-114557795D01*
X115143411Y-114555479D01*
X115144341Y-114553216D01*
X115145396Y-114551016D01*
X115146574Y-114548886D01*
X115147876Y-114546833D01*
X115149302Y-114544866D01*
X115150853Y-114542991D01*
X115152527Y-114541217D01*
X115154325Y-114539552D01*
X115155271Y-114538763D01*
X115156248Y-114538003D01*
X114957810Y-114469211D01*
X114957810Y-114373961D01*
X115169477Y-114297232D01*
X115168020Y-114296241D01*
X115166630Y-114295258D01*
X115165309Y-114294290D01*
X115164061Y-114293346D01*
X115162891Y-114292432D01*
X115161803Y-114291557D01*
X115160800Y-114290729D01*
X115159886Y-114289955D01*
X115159065Y-114289244D01*
X115158341Y-114288601D01*
X115157199Y-114287558D01*
X115156248Y-114286648D01*
X115154325Y-114284633D01*
X115152527Y-114282560D01*
X115150853Y-114280433D01*
X115149302Y-114278256D01*
X115147876Y-114276032D01*
X115146574Y-114273765D01*
X115145396Y-114271460D01*
X115144341Y-114269120D01*
X115143411Y-114266748D01*
X115142605Y-114264350D01*
X115141923Y-114261928D01*
X115141365Y-114259487D01*
X115140931Y-114257031D01*
X115140621Y-114254562D01*
X115140435Y-114252087D01*
X115140373Y-114249607D01*
X115140373Y-114223149D01*
X115240914Y-114223149D01*
X115272540Y-114247896D01*
X115321777Y-114283217D01*
X115388626Y-114327282D01*
X115473086Y-114378261D01*
X115575157Y-114434324D01*
X115632797Y-114463691D01*
X115694840Y-114493644D01*
X115761285Y-114523953D01*
X115832134Y-114554389D01*
X115907385Y-114584725D01*
X115987039Y-114614732D01*
X116048243Y-114635507D01*
X116111419Y-114655169D01*
X116175998Y-114673723D01*
X116241411Y-114691172D01*
X116372457Y-114722772D01*
X116500000Y-114750000D01*
X116619481Y-114772888D01*
X116726343Y-114791465D01*
X116883977Y-114815815D01*
X116883977Y-114813170D01*
X116979227Y-114813170D01*
X117136819Y-114790308D01*
X117243583Y-114772102D01*
X117362873Y-114749339D01*
X117490100Y-114721986D01*
X117620676Y-114690014D01*
X117750012Y-114653391D01*
X117812781Y-114633326D01*
X117873519Y-114612086D01*
X117953609Y-114582079D01*
X118029189Y-114551743D01*
X118100272Y-114521307D01*
X118166875Y-114490998D01*
X118229014Y-114461046D01*
X118286703Y-114431679D01*
X118339958Y-114403125D01*
X118388795Y-114375615D01*
X118433229Y-114349376D01*
X118473275Y-114324636D01*
X118508950Y-114301625D01*
X118540269Y-114280572D01*
X118589899Y-114245251D01*
X118622289Y-114220503D01*
X118622289Y-114098794D01*
X118580689Y-114131614D01*
X118528610Y-114168371D01*
X118464996Y-114208787D01*
X118388794Y-114252583D01*
X118298949Y-114299480D01*
X118194408Y-114349198D01*
X118074115Y-114401458D01*
X117937018Y-114455982D01*
X117854900Y-114486087D01*
X117774429Y-114513017D01*
X117695888Y-114536948D01*
X117619560Y-114558053D01*
X117545728Y-114576507D01*
X117474675Y-114592485D01*
X117406683Y-114606161D01*
X117342037Y-114617708D01*
X117281018Y-114627303D01*
X117223910Y-114635118D01*
X117122557Y-114646110D01*
X117040241Y-114652078D01*
X116979227Y-114654419D01*
X116979227Y-114813170D01*
X116883977Y-114813170D01*
X116883977Y-114654419D01*
X116822962Y-114652078D01*
X116740647Y-114646110D01*
X116639294Y-114635118D01*
X116521167Y-114617708D01*
X116388529Y-114592485D01*
X116317476Y-114576507D01*
X116243644Y-114558053D01*
X116167316Y-114536948D01*
X116088775Y-114513017D01*
X116008303Y-114486087D01*
X115926185Y-114455982D01*
X115855470Y-114428455D01*
X115789087Y-114401463D01*
X115726906Y-114375045D01*
X115668795Y-114349239D01*
X115614621Y-114324084D01*
X115564254Y-114299619D01*
X115517560Y-114275883D01*
X115474409Y-114252914D01*
X115434668Y-114230751D01*
X115398207Y-114209433D01*
X115364892Y-114188999D01*
X115334593Y-114169488D01*
X115307177Y-114150937D01*
X115282514Y-114133386D01*
X115260470Y-114116875D01*
X115240914Y-114101440D01*
X115240914Y-114223149D01*
X115140373Y-114223149D01*
X115140373Y-114101440D01*
X115140373Y-113987669D01*
X115140434Y-113985445D01*
X115140616Y-113983239D01*
X115140916Y-113981055D01*
X115141329Y-113978895D01*
X115141852Y-113976761D01*
X115142483Y-113974658D01*
X115143217Y-113972588D01*
X115144052Y-113970554D01*
X115144984Y-113968558D01*
X115146009Y-113966605D01*
X115147124Y-113964695D01*
X115148326Y-113962834D01*
X115149611Y-113961022D01*
X115150976Y-113959264D01*
X115152418Y-113957562D01*
X115153933Y-113955919D01*
X115155517Y-113954338D01*
X115157168Y-113952823D01*
X115158882Y-113951374D01*
X115160656Y-113949997D01*
X115162485Y-113948693D01*
X115164368Y-113947466D01*
X115166300Y-113946319D01*
X115168278Y-113945253D01*
X115170298Y-113944273D01*
X115172358Y-113943381D01*
X115174454Y-113942580D01*
X115176582Y-113941873D01*
X115178740Y-113941264D01*
X115180922Y-113940753D01*
X115183128Y-113940346D01*
X115185352Y-113940044D01*
X115296559Y-113923797D01*
X115410361Y-113903442D01*
X115551138Y-113873568D01*
X115710023Y-113833152D01*
X115793484Y-113808671D01*
X115878147Y-113781170D01*
X115962902Y-113750523D01*
X116046643Y-113716601D01*
X116128259Y-113679275D01*
X116206643Y-113638419D01*
X116208658Y-113637241D01*
X116210729Y-113636186D01*
X116212851Y-113635252D01*
X116215020Y-113634440D01*
X116217229Y-113633748D01*
X116219474Y-113633175D01*
X116221749Y-113632721D01*
X116224048Y-113632383D01*
X116226367Y-113632162D01*
X116228699Y-113632056D01*
X116231041Y-113632065D01*
G37*
G36*
X119163801Y-114061400D02*
G01*
X119174443Y-114062599D01*
X119184730Y-114064710D01*
X119194606Y-114067675D01*
X119204012Y-114071434D01*
X119212893Y-114075929D01*
X119221190Y-114081100D01*
X119228847Y-114086888D01*
X119235806Y-114093235D01*
X119242010Y-114100080D01*
X119247402Y-114107365D01*
X119251925Y-114115031D01*
X119255522Y-114123019D01*
X119258136Y-114131269D01*
X119259708Y-114139723D01*
X119260183Y-114148321D01*
X119259503Y-114157005D01*
X119257611Y-114165714D01*
X119254450Y-114174391D01*
X119249962Y-114182975D01*
X119244090Y-114191409D01*
X119236778Y-114199632D01*
X119227967Y-114207586D01*
X119217602Y-114215211D01*
X119211707Y-114218881D01*
X119205915Y-114221999D01*
X119194554Y-114226854D01*
X119183348Y-114230321D01*
X119172127Y-114232946D01*
X119148955Y-114237861D01*
X119136664Y-114241242D01*
X119123675Y-114245969D01*
X119109818Y-114252587D01*
X119102510Y-114256776D01*
X119094922Y-114261642D01*
X119087031Y-114267255D01*
X119078817Y-114273682D01*
X119070258Y-114280992D01*
X119061332Y-114289253D01*
X119052019Y-114298533D01*
X119042297Y-114308901D01*
X119032145Y-114320425D01*
X119021541Y-114333173D01*
X119010465Y-114347214D01*
X118998894Y-114362615D01*
X118986808Y-114379446D01*
X118974185Y-114397774D01*
X118973053Y-114389599D01*
X118971085Y-114367099D01*
X118970455Y-114351426D01*
X118970418Y-114333313D01*
X118971241Y-114313137D01*
X118973193Y-114291279D01*
X118976540Y-114268119D01*
X118981549Y-114244036D01*
X118988489Y-114219411D01*
X118997626Y-114194623D01*
X119003102Y-114182287D01*
X119009228Y-114170052D01*
X119016037Y-114157967D01*
X119023562Y-114146078D01*
X119031837Y-114134434D01*
X119040896Y-114123081D01*
X119050772Y-114112067D01*
X119061498Y-114101440D01*
X119072759Y-114091764D01*
X119084180Y-114083533D01*
X119095704Y-114076687D01*
X119107273Y-114071168D01*
X119118830Y-114066916D01*
X119130319Y-114063873D01*
X119141682Y-114061978D01*
X119152862Y-114061174D01*
X119163801Y-114061400D01*
G37*
G36*
X119003855Y-110507522D02*
G01*
X119001408Y-110514209D01*
X118998541Y-110520869D01*
X118995270Y-110527489D01*
X118991607Y-110534058D01*
X118987569Y-110540562D01*
X118983170Y-110546990D01*
X118978424Y-110553331D01*
X118973345Y-110559570D01*
X118967948Y-110565698D01*
X118962249Y-110571701D01*
X118956260Y-110577567D01*
X118949997Y-110583285D01*
X118943475Y-110588842D01*
X118936708Y-110594225D01*
X118929710Y-110599424D01*
X118922495Y-110604426D01*
X118915080Y-110609218D01*
X118907477Y-110613789D01*
X118899702Y-110618126D01*
X118891768Y-110622218D01*
X118883692Y-110626052D01*
X118875487Y-110629616D01*
X118867167Y-110632898D01*
X118858747Y-110635886D01*
X118850242Y-110638568D01*
X118841667Y-110640932D01*
X118833035Y-110642965D01*
X118824361Y-110644656D01*
X118815661Y-110645992D01*
X118806948Y-110646961D01*
X118798236Y-110647552D01*
X118789541Y-110647751D01*
X117778834Y-110647751D01*
X117916417Y-110224418D01*
X118588459Y-110224418D01*
X118609266Y-110223889D01*
X118629030Y-110222299D01*
X118647764Y-110219639D01*
X118665478Y-110215901D01*
X118682184Y-110211079D01*
X118697894Y-110205163D01*
X118712620Y-110198147D01*
X118726373Y-110190022D01*
X118732888Y-110185541D01*
X118739165Y-110180781D01*
X118745204Y-110175739D01*
X118751007Y-110170416D01*
X118761911Y-110158919D01*
X118771890Y-110146283D01*
X118780953Y-110132500D01*
X118789113Y-110117561D01*
X118796382Y-110101460D01*
X118802772Y-110084189D01*
X119077938Y-109240168D01*
X119416605Y-109240168D01*
X119003855Y-110507522D01*
G37*
G36*
X116580668Y-114009468D02*
G01*
X116582971Y-114009618D01*
X116585272Y-114009880D01*
X116587566Y-114010254D01*
X116589852Y-114010742D01*
X116592125Y-114011344D01*
X116594382Y-114012061D01*
X116596620Y-114012894D01*
X116598835Y-114013845D01*
X116601023Y-114014914D01*
X116603183Y-114016102D01*
X116605309Y-114017410D01*
X116607399Y-114018839D01*
X116609449Y-114020391D01*
X116611456Y-114022065D01*
X116613146Y-114023832D01*
X116614741Y-114025658D01*
X116616240Y-114027540D01*
X116617642Y-114029476D01*
X116618945Y-114031462D01*
X116620147Y-114033495D01*
X116621248Y-114035573D01*
X116622246Y-114037692D01*
X116623139Y-114039851D01*
X116623926Y-114042045D01*
X116624606Y-114044272D01*
X116625176Y-114046529D01*
X116625636Y-114048813D01*
X116625984Y-114051122D01*
X116626219Y-114053452D01*
X116626339Y-114055800D01*
X116626342Y-114058163D01*
X116626228Y-114060540D01*
X116625995Y-114062926D01*
X116625641Y-114065319D01*
X116625165Y-114067715D01*
X116624565Y-114070113D01*
X116623841Y-114072509D01*
X116622990Y-114074899D01*
X116622011Y-114077283D01*
X116620903Y-114079655D01*
X116619664Y-114082014D01*
X116618292Y-114084356D01*
X116616787Y-114086679D01*
X116615147Y-114088980D01*
X116613370Y-114091256D01*
X116611455Y-114093503D01*
X116609067Y-114096450D01*
X116606861Y-114099343D01*
X116604834Y-114102189D01*
X116602980Y-114104996D01*
X116601298Y-114107772D01*
X116599782Y-114110525D01*
X116598428Y-114113263D01*
X116597234Y-114115993D01*
X116596195Y-114118723D01*
X116595306Y-114121460D01*
X116594565Y-114124213D01*
X116593968Y-114126989D01*
X116593510Y-114129797D01*
X116593188Y-114132643D01*
X116592997Y-114135535D01*
X116592934Y-114138482D01*
X116593350Y-114144945D01*
X116594586Y-114151423D01*
X116596625Y-114157904D01*
X116599451Y-114164372D01*
X116607393Y-114177212D01*
X116618276Y-114189828D01*
X116631966Y-114202102D01*
X116648326Y-114213919D01*
X116667221Y-114225163D01*
X116688515Y-114235717D01*
X116712072Y-114245464D01*
X116737758Y-114254289D01*
X116765435Y-114262076D01*
X116794969Y-114268707D01*
X116826223Y-114274067D01*
X116859063Y-114278040D01*
X116893352Y-114280509D01*
X116928955Y-114281357D01*
X116946913Y-114281135D01*
X116964558Y-114280480D01*
X116981876Y-114279406D01*
X116998848Y-114277931D01*
X117015457Y-114276071D01*
X117031687Y-114273840D01*
X117047521Y-114271257D01*
X117062942Y-114268335D01*
X117077932Y-114265092D01*
X117092476Y-114261543D01*
X117106555Y-114257704D01*
X117120153Y-114253592D01*
X117133253Y-114249222D01*
X117145838Y-114244610D01*
X117157891Y-114239772D01*
X117169395Y-114234725D01*
X117180334Y-114229483D01*
X117190689Y-114224064D01*
X117200445Y-114218484D01*
X117209584Y-114212757D01*
X117218090Y-114206900D01*
X117225944Y-114200930D01*
X117233131Y-114194862D01*
X117239634Y-114188712D01*
X117245435Y-114182496D01*
X117250518Y-114176230D01*
X117254865Y-114169930D01*
X117258460Y-114163613D01*
X117261285Y-114157293D01*
X117263324Y-114150987D01*
X117264560Y-114144712D01*
X117264976Y-114138482D01*
X117264914Y-114135535D01*
X117264723Y-114132643D01*
X117264401Y-114129797D01*
X117263943Y-114126989D01*
X117263345Y-114124213D01*
X117262604Y-114121460D01*
X117261716Y-114118723D01*
X117260677Y-114115993D01*
X117259482Y-114113263D01*
X117258129Y-114110525D01*
X117256613Y-114107772D01*
X117254930Y-114104996D01*
X117253077Y-114102189D01*
X117251049Y-114099343D01*
X117248843Y-114096450D01*
X117246455Y-114093503D01*
X117245014Y-114091496D01*
X117243666Y-114089446D01*
X117242413Y-114087356D01*
X117241257Y-114085230D01*
X117240197Y-114083071D01*
X117239235Y-114080882D01*
X117238372Y-114078667D01*
X117237608Y-114076429D01*
X117236946Y-114074172D01*
X117236385Y-114071899D01*
X117235927Y-114069613D01*
X117235572Y-114067319D01*
X117235323Y-114065018D01*
X117235178Y-114062715D01*
X117235141Y-114060413D01*
X117235211Y-114058115D01*
X117235389Y-114055825D01*
X117235677Y-114053546D01*
X117236075Y-114051282D01*
X117236585Y-114049035D01*
X117237208Y-114046810D01*
X117237943Y-114044610D01*
X117238793Y-114042438D01*
X117239758Y-114040297D01*
X117240840Y-114038191D01*
X117242039Y-114036123D01*
X117243355Y-114034097D01*
X117244792Y-114032117D01*
X117246348Y-114030184D01*
X117248025Y-114028303D01*
X117249825Y-114026478D01*
X117251747Y-114024711D01*
X117253754Y-114023029D01*
X117255804Y-114021456D01*
X117257894Y-114019993D01*
X117260021Y-114018639D01*
X117262180Y-114017396D01*
X117264368Y-114016264D01*
X117266583Y-114015243D01*
X117268821Y-114014335D01*
X117271078Y-114013538D01*
X117273351Y-114012855D01*
X117275637Y-114012285D01*
X117277932Y-114011828D01*
X117280232Y-114011486D01*
X117282535Y-114011259D01*
X117284837Y-114011147D01*
X117287135Y-114011151D01*
X117289425Y-114011272D01*
X117291704Y-114011509D01*
X117293968Y-114011863D01*
X117296215Y-114012335D01*
X117298440Y-114012925D01*
X117300640Y-114013634D01*
X117302812Y-114014462D01*
X117304953Y-114015410D01*
X117307059Y-114016477D01*
X117309127Y-114017666D01*
X117311153Y-114018976D01*
X117313134Y-114020407D01*
X117315066Y-114021960D01*
X117316947Y-114023636D01*
X117318772Y-114025435D01*
X117320539Y-114027357D01*
X117325840Y-114033372D01*
X117330828Y-114039506D01*
X117335497Y-114045757D01*
X117339845Y-114052120D01*
X117343868Y-114058592D01*
X117347561Y-114065169D01*
X117350920Y-114071846D01*
X117353943Y-114078620D01*
X117356624Y-114085487D01*
X117358961Y-114092443D01*
X117360948Y-114099485D01*
X117362583Y-114106608D01*
X117363861Y-114113808D01*
X117364779Y-114121083D01*
X117365333Y-114128427D01*
X117365518Y-114135836D01*
X117364972Y-114148391D01*
X117363348Y-114160748D01*
X117360672Y-114172891D01*
X117356966Y-114184810D01*
X117352254Y-114196490D01*
X117346560Y-114207919D01*
X117339908Y-114219083D01*
X117332321Y-114229970D01*
X117323824Y-114240566D01*
X117314439Y-114250858D01*
X117293104Y-114270479D01*
X117268505Y-114288728D01*
X117240833Y-114305500D01*
X117210278Y-114320691D01*
X117177028Y-114334196D01*
X117141275Y-114345911D01*
X117103209Y-114355730D01*
X117063018Y-114363549D01*
X117020893Y-114369264D01*
X116977025Y-114372769D01*
X116931602Y-114373961D01*
X116908475Y-114373661D01*
X116885743Y-114372769D01*
X116863427Y-114371299D01*
X116841550Y-114369264D01*
X116820135Y-114366676D01*
X116799203Y-114363549D01*
X116778777Y-114359896D01*
X116758878Y-114355730D01*
X116739531Y-114351064D01*
X116720755Y-114345911D01*
X116702575Y-114340284D01*
X116685012Y-114334196D01*
X116668089Y-114327661D01*
X116651827Y-114320691D01*
X116636249Y-114313300D01*
X116621378Y-114305500D01*
X116607235Y-114297305D01*
X116593843Y-114288728D01*
X116581225Y-114279782D01*
X116569402Y-114270479D01*
X116558396Y-114260834D01*
X116548231Y-114250858D01*
X116538928Y-114240566D01*
X116530510Y-114229970D01*
X116522999Y-114219083D01*
X116516417Y-114207919D01*
X116510786Y-114196490D01*
X116506129Y-114184810D01*
X116502468Y-114172891D01*
X116499826Y-114160748D01*
X116498224Y-114148391D01*
X116497685Y-114135836D01*
X116497870Y-114128426D01*
X116498424Y-114121077D01*
X116499342Y-114113791D01*
X116500620Y-114106567D01*
X116502255Y-114099404D01*
X116504243Y-114092304D01*
X116506579Y-114085266D01*
X116509261Y-114078289D01*
X116512283Y-114071375D01*
X116515643Y-114064523D01*
X116519336Y-114057732D01*
X116523358Y-114051004D01*
X116527706Y-114044338D01*
X116532375Y-114037734D01*
X116537363Y-114031191D01*
X116542664Y-114024711D01*
X116544431Y-114023022D01*
X116546256Y-114021426D01*
X116548137Y-114019925D01*
X116550069Y-114018520D01*
X116552050Y-114017213D01*
X116554076Y-114016003D01*
X116556144Y-114014891D01*
X116558250Y-114013880D01*
X116560391Y-114012969D01*
X116562563Y-114012160D01*
X116564763Y-114011454D01*
X116566988Y-114010852D01*
X116569235Y-114010354D01*
X116571499Y-114009961D01*
X116573778Y-114009676D01*
X116576068Y-114009498D01*
X116578366Y-114009428D01*
X116580668Y-114009468D01*
G37*
G36*
X119475157Y-114305790D02*
G01*
X119487411Y-114306958D01*
X119499782Y-114308723D01*
X119512241Y-114311129D01*
X119524756Y-114314218D01*
X119537299Y-114318034D01*
X119549839Y-114322620D01*
X119562345Y-114328019D01*
X119574789Y-114334274D01*
X119586570Y-114341278D01*
X119597130Y-114348849D01*
X119606505Y-114356921D01*
X119614730Y-114365424D01*
X119621841Y-114374292D01*
X119627873Y-114383457D01*
X119632862Y-114392850D01*
X119636842Y-114402404D01*
X119639850Y-114412051D01*
X119641920Y-114421723D01*
X119643088Y-114431353D01*
X119643390Y-114440872D01*
X119642860Y-114450213D01*
X119641534Y-114459307D01*
X119639447Y-114468088D01*
X119636636Y-114476487D01*
X119633134Y-114484437D01*
X119628978Y-114491869D01*
X119624202Y-114498715D01*
X119618843Y-114504909D01*
X119612936Y-114510382D01*
X119606515Y-114515066D01*
X119599617Y-114518894D01*
X119592276Y-114521797D01*
X119584529Y-114523708D01*
X119576410Y-114524559D01*
X119567955Y-114524282D01*
X119559198Y-114522810D01*
X119550177Y-114520074D01*
X119540925Y-114516007D01*
X119531479Y-114510540D01*
X119521873Y-114503607D01*
X119512544Y-114495516D01*
X119505042Y-114487127D01*
X119498833Y-114478452D01*
X119493388Y-114469501D01*
X119482665Y-114450820D01*
X119476325Y-114441113D01*
X119468625Y-114431177D01*
X119459033Y-114421025D01*
X119447019Y-114410667D01*
X119432052Y-114400115D01*
X119413600Y-114389382D01*
X119391133Y-114378477D01*
X119364120Y-114367414D01*
X119332030Y-114356204D01*
X119294331Y-114344857D01*
X119300956Y-114341473D01*
X119319549Y-114333158D01*
X119332733Y-114328014D01*
X119348188Y-114322673D01*
X119365674Y-114317478D01*
X119384951Y-114312776D01*
X119405778Y-114308912D01*
X119427915Y-114306229D01*
X119451121Y-114305073D01*
X119475157Y-114305790D01*
G37*
G36*
X119310867Y-114523244D02*
G01*
X119338140Y-114527002D01*
X119365587Y-114532105D01*
X119393135Y-114538646D01*
X119420710Y-114546721D01*
X119448239Y-114556421D01*
X119475648Y-114567840D01*
X119502862Y-114581072D01*
X119529810Y-114596211D01*
X119555194Y-114612953D01*
X119577826Y-114630835D01*
X119597787Y-114649710D01*
X119615164Y-114669431D01*
X119630038Y-114689852D01*
X119642495Y-114710826D01*
X119652617Y-114732206D01*
X119660489Y-114753845D01*
X119666195Y-114775596D01*
X119669818Y-114797313D01*
X119671441Y-114818849D01*
X119671150Y-114840057D01*
X119669028Y-114860790D01*
X119665158Y-114880901D01*
X119659624Y-114900244D01*
X119652511Y-114918672D01*
X119643901Y-114936038D01*
X119633879Y-114952195D01*
X119622529Y-114966997D01*
X119609934Y-114980296D01*
X119596179Y-114991946D01*
X119581346Y-115001801D01*
X119565521Y-115009712D01*
X119548786Y-115015534D01*
X119531225Y-115019120D01*
X119512923Y-115020323D01*
X119493963Y-115018996D01*
X119474428Y-115014992D01*
X119454404Y-115008164D01*
X119433973Y-114998367D01*
X119413219Y-114985452D01*
X119392226Y-114969274D01*
X119372311Y-114949765D01*
X119356430Y-114929907D01*
X119343409Y-114909661D01*
X119332075Y-114888989D01*
X119309766Y-114846211D01*
X119296443Y-114824028D01*
X119280109Y-114801263D01*
X119259589Y-114777878D01*
X119233709Y-114753835D01*
X119201294Y-114729093D01*
X119161170Y-114703615D01*
X119112164Y-114677363D01*
X119053100Y-114650296D01*
X118982804Y-114622376D01*
X118900101Y-114593565D01*
X118958310Y-114569794D01*
X118988597Y-114559540D01*
X119024001Y-114549056D01*
X119063931Y-114539092D01*
X119107799Y-114530396D01*
X119155016Y-114523715D01*
X119204992Y-114519797D01*
X119257139Y-114519391D01*
X119310867Y-114523244D01*
G37*
G36*
X118760437Y-109245460D02*
G01*
X119009146Y-109245460D01*
X118943001Y-109457126D01*
X118691647Y-109457126D01*
X118622854Y-109668793D01*
X118117500Y-109668793D01*
X118183646Y-109457126D01*
X117934938Y-109457126D01*
X118001084Y-109245460D01*
X118255083Y-109245460D01*
X118321229Y-109036439D01*
X118826583Y-109036439D01*
X118760437Y-109245460D01*
G37*
G36*
X114422629Y-114305438D02*
G01*
X114434126Y-114306229D01*
X114445369Y-114307401D01*
X114456327Y-114308911D01*
X114466968Y-114310718D01*
X114477261Y-114312776D01*
X114496675Y-114317478D01*
X114514318Y-114322672D01*
X114529938Y-114328014D01*
X114543282Y-114333157D01*
X114554100Y-114337758D01*
X114562139Y-114341472D01*
X114568873Y-114344857D01*
X114549289Y-114350546D01*
X114531174Y-114356203D01*
X114514461Y-114361826D01*
X114499084Y-114367414D01*
X114484976Y-114372964D01*
X114472070Y-114378477D01*
X114460302Y-114383950D01*
X114449603Y-114389381D01*
X114439909Y-114394770D01*
X114431152Y-114400115D01*
X114423266Y-114405414D01*
X114416184Y-114410667D01*
X114409841Y-114415871D01*
X114404170Y-114421025D01*
X114399105Y-114426127D01*
X114394578Y-114431177D01*
X114390525Y-114436173D01*
X114386878Y-114441113D01*
X114383571Y-114445995D01*
X114380538Y-114450819D01*
X114369815Y-114469501D01*
X114364370Y-114478452D01*
X114361395Y-114482825D01*
X114358162Y-114487127D01*
X114354606Y-114491358D01*
X114350659Y-114495516D01*
X114346256Y-114499600D01*
X114341331Y-114503607D01*
X114331725Y-114510540D01*
X114322278Y-114516007D01*
X114313027Y-114520074D01*
X114304005Y-114522810D01*
X114295249Y-114524282D01*
X114286794Y-114524559D01*
X114278675Y-114523708D01*
X114270927Y-114521797D01*
X114263586Y-114518894D01*
X114256688Y-114515066D01*
X114250268Y-114510382D01*
X114244360Y-114504909D01*
X114239001Y-114498715D01*
X114234226Y-114491869D01*
X114230070Y-114484437D01*
X114226568Y-114476487D01*
X114223756Y-114468088D01*
X114221670Y-114459307D01*
X114220344Y-114450213D01*
X114219814Y-114440872D01*
X114220115Y-114431353D01*
X114221283Y-114421723D01*
X114223354Y-114412051D01*
X114226361Y-114402404D01*
X114230342Y-114392850D01*
X114235330Y-114383456D01*
X114241363Y-114374292D01*
X114248474Y-114365424D01*
X114256699Y-114356920D01*
X114266074Y-114348848D01*
X114276634Y-114341277D01*
X114288414Y-114334273D01*
X114300625Y-114328018D01*
X114312929Y-114322619D01*
X114325294Y-114318034D01*
X114337688Y-114314218D01*
X114350080Y-114311128D01*
X114362439Y-114308723D01*
X114374733Y-114306957D01*
X114386930Y-114305789D01*
X114399000Y-114305176D01*
X114410910Y-114305073D01*
X114422629Y-114305438D01*
G37*
G36*
X117238351Y-112125064D02*
G01*
X117240822Y-112125246D01*
X117243278Y-112125544D01*
X117245711Y-112125954D01*
X117248113Y-112126473D01*
X117250475Y-112127096D01*
X117252792Y-112127820D01*
X117255054Y-112128641D01*
X117257254Y-112129555D01*
X117259384Y-112130558D01*
X117261437Y-112131647D01*
X117263405Y-112132817D01*
X117265279Y-112134064D01*
X117267053Y-112135385D01*
X117268719Y-112136776D01*
X117270268Y-112138232D01*
X117312601Y-112180566D01*
X117314057Y-112182115D01*
X117315448Y-112183780D01*
X117316769Y-112185554D01*
X117318016Y-112187428D01*
X117319186Y-112189396D01*
X117320274Y-112191449D01*
X117321278Y-112193579D01*
X117322192Y-112195779D01*
X117323013Y-112198041D01*
X117323737Y-112200358D01*
X117324360Y-112202720D01*
X117324879Y-112205122D01*
X117325289Y-112207555D01*
X117325587Y-112210011D01*
X117325768Y-112212482D01*
X117325830Y-112214961D01*
X117325830Y-112230836D01*
X117394622Y-112252003D01*
X117397319Y-112252808D01*
X117399952Y-112253734D01*
X117402519Y-112254776D01*
X117405019Y-112255930D01*
X117407449Y-112257193D01*
X117409807Y-112258561D01*
X117412091Y-112260029D01*
X117414300Y-112261594D01*
X117416431Y-112263252D01*
X117418483Y-112264999D01*
X117420454Y-112266832D01*
X117422341Y-112268746D01*
X117425857Y-112272803D01*
X117429017Y-112277138D01*
X117431805Y-112281722D01*
X117434206Y-112286523D01*
X117436203Y-112291510D01*
X117437782Y-112296651D01*
X117438926Y-112301917D01*
X117439621Y-112307276D01*
X117439795Y-112309981D01*
X117439851Y-112312697D01*
X117439787Y-112315421D01*
X117439601Y-112318149D01*
X117439531Y-112320861D01*
X117439326Y-112323540D01*
X117438988Y-112326184D01*
X117438521Y-112328789D01*
X117437927Y-112331353D01*
X117437211Y-112333874D01*
X117436376Y-112336350D01*
X117435425Y-112338778D01*
X117434362Y-112341155D01*
X117433189Y-112343480D01*
X117431911Y-112345749D01*
X117430531Y-112347961D01*
X117429052Y-112350112D01*
X117427478Y-112352201D01*
X117425811Y-112354225D01*
X117424056Y-112356182D01*
X117422216Y-112358069D01*
X117420293Y-112359884D01*
X117418293Y-112361624D01*
X117416217Y-112363288D01*
X117414069Y-112364871D01*
X117411853Y-112366373D01*
X117409573Y-112367791D01*
X117407230Y-112369122D01*
X117404830Y-112370364D01*
X117402375Y-112371514D01*
X117399868Y-112372570D01*
X117397313Y-112373530D01*
X117394714Y-112374391D01*
X117392074Y-112375151D01*
X117389396Y-112375807D01*
X117386684Y-112376357D01*
X117325830Y-112386940D01*
X117325830Y-112463670D01*
X117394622Y-112484836D01*
X117397319Y-112485642D01*
X117399952Y-112486567D01*
X117402519Y-112487609D01*
X117405019Y-112488764D01*
X117407449Y-112490027D01*
X117409807Y-112491394D01*
X117412091Y-112492862D01*
X117414300Y-112494428D01*
X117416431Y-112496086D01*
X117418483Y-112497833D01*
X117420454Y-112499666D01*
X117422341Y-112501580D01*
X117425857Y-112505636D01*
X117429017Y-112509972D01*
X117431805Y-112514556D01*
X117434206Y-112519356D01*
X117436203Y-112524343D01*
X117437782Y-112529485D01*
X117438926Y-112534751D01*
X117439621Y-112540109D01*
X117439795Y-112542814D01*
X117439851Y-112545530D01*
X117439787Y-112548254D01*
X117439601Y-112550982D01*
X117439531Y-112553695D01*
X117439326Y-112556374D01*
X117438988Y-112559017D01*
X117438521Y-112561622D01*
X117437927Y-112564187D01*
X117437211Y-112566708D01*
X117436376Y-112569183D01*
X117435425Y-112571611D01*
X117434362Y-112573989D01*
X117433189Y-112576313D01*
X117431911Y-112578582D01*
X117430531Y-112580794D01*
X117429052Y-112582946D01*
X117427478Y-112585035D01*
X117425811Y-112587059D01*
X117424056Y-112589016D01*
X117422216Y-112590903D01*
X117420293Y-112592718D01*
X117418293Y-112594458D01*
X117416217Y-112596121D01*
X117414069Y-112597705D01*
X117411853Y-112599207D01*
X117409573Y-112600625D01*
X117407230Y-112601956D01*
X117404830Y-112603198D01*
X117402375Y-112604348D01*
X117399868Y-112605404D01*
X117397313Y-112606364D01*
X117394714Y-112607225D01*
X117392074Y-112607985D01*
X117389396Y-112608641D01*
X117386684Y-112609191D01*
X117325830Y-112619774D01*
X117325830Y-112696503D01*
X117394622Y-112717670D01*
X117397319Y-112718475D01*
X117399952Y-112719401D01*
X117402519Y-112720443D01*
X117405019Y-112721597D01*
X117407449Y-112722860D01*
X117409807Y-112724227D01*
X117412091Y-112725696D01*
X117414300Y-112727261D01*
X117416431Y-112728919D01*
X117418483Y-112730666D01*
X117420454Y-112732499D01*
X117422341Y-112734413D01*
X117425857Y-112738469D01*
X117429017Y-112742805D01*
X117431805Y-112747389D01*
X117434206Y-112752189D01*
X117436203Y-112757176D01*
X117437782Y-112762318D01*
X117438926Y-112767584D01*
X117439621Y-112772943D01*
X117439795Y-112775647D01*
X117439851Y-112778364D01*
X117439787Y-112781088D01*
X117439601Y-112783816D01*
X117439531Y-112786528D01*
X117439326Y-112789207D01*
X117438988Y-112791851D01*
X117438521Y-112794456D01*
X117437927Y-112797020D01*
X117437211Y-112799541D01*
X117436376Y-112802017D01*
X117435425Y-112804445D01*
X117434362Y-112806822D01*
X117433189Y-112809146D01*
X117431911Y-112811416D01*
X117430531Y-112813627D01*
X117429052Y-112815779D01*
X117427478Y-112817868D01*
X117425811Y-112819892D01*
X117424056Y-112821849D01*
X117422216Y-112823736D01*
X117420293Y-112825551D01*
X117418293Y-112827291D01*
X117416217Y-112828954D01*
X117414069Y-112830538D01*
X117411853Y-112832040D01*
X117409573Y-112833458D01*
X117407230Y-112834789D01*
X117404830Y-112836030D01*
X117402375Y-112837181D01*
X117399868Y-112838237D01*
X117397313Y-112839197D01*
X117394714Y-112840058D01*
X117392074Y-112840817D01*
X117389396Y-112841474D01*
X117386684Y-112842024D01*
X117325830Y-112852607D01*
X117325830Y-113066919D01*
X117479288Y-113066919D01*
X117484953Y-113067058D01*
X117490535Y-113067469D01*
X117496026Y-113068147D01*
X117501421Y-113069085D01*
X117506713Y-113070276D01*
X117511896Y-113071716D01*
X117516964Y-113073396D01*
X117521911Y-113075312D01*
X117526729Y-113077456D01*
X117531413Y-113079822D01*
X117535957Y-113082405D01*
X117540354Y-113085197D01*
X117544598Y-113088193D01*
X117548682Y-113091386D01*
X117552601Y-113094770D01*
X117556348Y-113098339D01*
X117559916Y-113102086D01*
X117563300Y-113106004D01*
X117566493Y-113110089D01*
X117569489Y-113114333D01*
X117572282Y-113118730D01*
X117574864Y-113123273D01*
X117577231Y-113127957D01*
X117579375Y-113132776D01*
X117581291Y-113137722D01*
X117582971Y-113142790D01*
X117584410Y-113147973D01*
X117585602Y-113153266D01*
X117586540Y-113158660D01*
X117587218Y-113164152D01*
X117587629Y-113169733D01*
X117587767Y-113175399D01*
X117587767Y-113490253D01*
X117587581Y-113498683D01*
X117587023Y-113507094D01*
X117586093Y-113515466D01*
X117584791Y-113523780D01*
X117583116Y-113532017D01*
X117581070Y-113540156D01*
X117578652Y-113548180D01*
X117575861Y-113556068D01*
X117572698Y-113563800D01*
X117569164Y-113571359D01*
X117565257Y-113578723D01*
X117560978Y-113585875D01*
X117556327Y-113592793D01*
X117551304Y-113599460D01*
X117545909Y-113605856D01*
X117540142Y-113611961D01*
X117000392Y-114188753D01*
X116998843Y-114190675D01*
X116997178Y-114192473D01*
X116995404Y-114194148D01*
X116993530Y-114195698D01*
X116991562Y-114197124D01*
X116989509Y-114198426D01*
X116987379Y-114199605D01*
X116985179Y-114200659D01*
X116982917Y-114201589D01*
X116980600Y-114202395D01*
X116978238Y-114203077D01*
X116975836Y-114203635D01*
X116973403Y-114204070D01*
X116970947Y-114204380D01*
X116968476Y-114204566D01*
X116965997Y-114204628D01*
X116897206Y-114204628D01*
X116894726Y-114204566D01*
X116892255Y-114204380D01*
X116889799Y-114204070D01*
X116887367Y-114203636D01*
X116884965Y-114203077D01*
X116882602Y-114202395D01*
X116880286Y-114201589D01*
X116878024Y-114200659D01*
X116875823Y-114199605D01*
X116873693Y-114198427D01*
X116871640Y-114197124D01*
X116869673Y-114195698D01*
X116867798Y-114194148D01*
X116866024Y-114192474D01*
X116864359Y-114190675D01*
X116863569Y-114189729D01*
X116862810Y-114188753D01*
X116372907Y-113672815D01*
X116510914Y-113672815D01*
X116788727Y-113969148D01*
X116931602Y-113966503D01*
X117074477Y-113969148D01*
X117352290Y-113672815D01*
X117326410Y-113676701D01*
X117313315Y-113678489D01*
X117300035Y-113680091D01*
X117286506Y-113681445D01*
X117272667Y-113682489D01*
X117258455Y-113683161D01*
X117243810Y-113683398D01*
X117216875Y-113682767D01*
X117190677Y-113680954D01*
X117165269Y-113678079D01*
X117140705Y-113674262D01*
X117117042Y-113669624D01*
X117094331Y-113664283D01*
X117072628Y-113658362D01*
X117051987Y-113651979D01*
X117032463Y-113645256D01*
X117014109Y-113638311D01*
X116996979Y-113631266D01*
X116981129Y-113624240D01*
X116966612Y-113617353D01*
X116953482Y-113610726D01*
X116931602Y-113598732D01*
X116908854Y-113610726D01*
X116880587Y-113624240D01*
X116847235Y-113638311D01*
X116828788Y-113645256D01*
X116809232Y-113651979D01*
X116788622Y-113658362D01*
X116767012Y-113664283D01*
X116744457Y-113669624D01*
X116721010Y-113674262D01*
X116696726Y-113678079D01*
X116671659Y-113680954D01*
X116645863Y-113682767D01*
X116619394Y-113683398D01*
X116604749Y-113683269D01*
X116590538Y-113682861D01*
X116576699Y-113682143D01*
X116563170Y-113681083D01*
X116549889Y-113679652D01*
X116536794Y-113677817D01*
X116523823Y-113675549D01*
X116510914Y-113672815D01*
X116372907Y-113672815D01*
X116315124Y-113611961D01*
X116309793Y-113605856D01*
X116304721Y-113599461D01*
X116299921Y-113592794D01*
X116295404Y-113585875D01*
X116291181Y-113578724D01*
X116287265Y-113571359D01*
X116283666Y-113563801D01*
X116280397Y-113556068D01*
X116277469Y-113548180D01*
X116274893Y-113540157D01*
X116272682Y-113532017D01*
X116270847Y-113523781D01*
X116269400Y-113515466D01*
X116268351Y-113507094D01*
X116267714Y-113498683D01*
X116267499Y-113490253D01*
X116267499Y-113487607D01*
X116373331Y-113487607D01*
X116373361Y-113489095D01*
X116373450Y-113490584D01*
X116373592Y-113492072D01*
X116373786Y-113493560D01*
X116374025Y-113495048D01*
X116374307Y-113496537D01*
X116374628Y-113498025D01*
X116374984Y-113499513D01*
X116375785Y-113502490D01*
X116376679Y-113505466D01*
X116378622Y-113511419D01*
X116390492Y-113519920D01*
X116408099Y-113530809D01*
X116418985Y-113536809D01*
X116431224Y-113542999D01*
X116444788Y-113549244D01*
X116459651Y-113555407D01*
X116475785Y-113561353D01*
X116493163Y-113566946D01*
X116511758Y-113572051D01*
X116531543Y-113576532D01*
X116552491Y-113580253D01*
X116574574Y-113583079D01*
X116597766Y-113584874D01*
X116622039Y-113585503D01*
X116644136Y-113584962D01*
X116665742Y-113583410D01*
X116686797Y-113580951D01*
X116707243Y-113577689D01*
X116727023Y-113573730D01*
X116746078Y-113569178D01*
X116764350Y-113564138D01*
X116781781Y-113558714D01*
X116798313Y-113553011D01*
X116813888Y-113547133D01*
X116828447Y-113541186D01*
X116841933Y-113535273D01*
X116854286Y-113529500D01*
X116865451Y-113523972D01*
X116879028Y-113516711D01*
X116979227Y-113516711D01*
X116996993Y-113526618D01*
X117020154Y-113537919D01*
X117048153Y-113549779D01*
X117063791Y-113555657D01*
X117080430Y-113561360D01*
X117097998Y-113566784D01*
X117116427Y-113571824D01*
X117135647Y-113576376D01*
X117155588Y-113580335D01*
X117176180Y-113583597D01*
X117197353Y-113586056D01*
X117219037Y-113587608D01*
X117241164Y-113588149D01*
X117253434Y-113587981D01*
X117265437Y-113587491D01*
X117277170Y-113586697D01*
X117288629Y-113585617D01*
X117299811Y-113584269D01*
X117310712Y-113582672D01*
X117321330Y-113580845D01*
X117331660Y-113578806D01*
X117341699Y-113576572D01*
X117351445Y-113574164D01*
X117370040Y-113568894D01*
X117387418Y-113563144D01*
X117403552Y-113557060D01*
X117418415Y-113550791D01*
X117431979Y-113544482D01*
X117444218Y-113538282D01*
X117455105Y-113532338D01*
X117464611Y-113526797D01*
X117472711Y-113521807D01*
X117484581Y-113514065D01*
X117486524Y-113508112D01*
X117487418Y-113505136D01*
X117488219Y-113502159D01*
X117488575Y-113500671D01*
X117488896Y-113499182D01*
X117489178Y-113497694D01*
X117489418Y-113496206D01*
X117489611Y-113494718D01*
X117489754Y-113493229D01*
X117489842Y-113491741D01*
X117489873Y-113490253D01*
X117489873Y-113315628D01*
X117473543Y-113305727D01*
X117452500Y-113294461D01*
X117440289Y-113288588D01*
X117426993Y-113282700D01*
X117412642Y-113276904D01*
X117397268Y-113271310D01*
X117380903Y-113266026D01*
X117363575Y-113261161D01*
X117345318Y-113256823D01*
X117326162Y-113253120D01*
X117306137Y-113250162D01*
X117285275Y-113248056D01*
X117263607Y-113246911D01*
X117241164Y-113246836D01*
X117219066Y-113247377D01*
X117197461Y-113248929D01*
X117176406Y-113251388D01*
X117155960Y-113254650D01*
X117136180Y-113258609D01*
X117117125Y-113263161D01*
X117098853Y-113268201D01*
X117081422Y-113273625D01*
X117064890Y-113279329D01*
X117049315Y-113285206D01*
X117034756Y-113291153D01*
X117021271Y-113297066D01*
X117008917Y-113302839D01*
X116997753Y-113308367D01*
X116979227Y-113318274D01*
X116979227Y-113516711D01*
X116879028Y-113516711D01*
X116883977Y-113514065D01*
X116883977Y-113315628D01*
X116866210Y-113305721D01*
X116843049Y-113294420D01*
X116815051Y-113282560D01*
X116799412Y-113276683D01*
X116782774Y-113270979D01*
X116765205Y-113265555D01*
X116746776Y-113260515D01*
X116727556Y-113255963D01*
X116707615Y-113252004D01*
X116687024Y-113248742D01*
X116665850Y-113246283D01*
X116644166Y-113244731D01*
X116622039Y-113244190D01*
X116610955Y-113244328D01*
X116600032Y-113244731D01*
X116578688Y-113246283D01*
X116558049Y-113248742D01*
X116538158Y-113252004D01*
X116519058Y-113255963D01*
X116500791Y-113260515D01*
X116483400Y-113265555D01*
X116466927Y-113270979D01*
X116451416Y-113276683D01*
X116436908Y-113282560D01*
X116423447Y-113288507D01*
X116411075Y-113294420D01*
X116399835Y-113300193D01*
X116389769Y-113305721D01*
X116380920Y-113310901D01*
X116373331Y-113315628D01*
X116373331Y-113487607D01*
X116267499Y-113487607D01*
X116267499Y-113175399D01*
X116373331Y-113175399D01*
X116375977Y-113175399D01*
X116375977Y-113204503D01*
X116387377Y-113198560D01*
X116399707Y-113192679D01*
X116412905Y-113186923D01*
X116426909Y-113181352D01*
X116441658Y-113176029D01*
X116457088Y-113171017D01*
X116473139Y-113166376D01*
X116489748Y-113162170D01*
X116754331Y-113162170D01*
X116769460Y-113165791D01*
X116784086Y-113169683D01*
X116798200Y-113173808D01*
X116811795Y-113178127D01*
X116824863Y-113182601D01*
X116837396Y-113187191D01*
X116849386Y-113191859D01*
X116860826Y-113196566D01*
X116871708Y-113201272D01*
X116882023Y-113205940D01*
X116900927Y-113215004D01*
X116917473Y-113223448D01*
X116931602Y-113230961D01*
X116945839Y-113223448D01*
X116962649Y-113215004D01*
X116981878Y-113205940D01*
X117003370Y-113196566D01*
X117026971Y-113187191D01*
X117052525Y-113178127D01*
X117065986Y-113173808D01*
X117079877Y-113169683D01*
X117094179Y-113165791D01*
X117108873Y-113162170D01*
X117378747Y-113162170D01*
X117387088Y-113164215D01*
X117395247Y-113166376D01*
X117403228Y-113168646D01*
X117411035Y-113171016D01*
X117426140Y-113176029D01*
X117440593Y-113181352D01*
X117454427Y-113186922D01*
X117467672Y-113192679D01*
X117480359Y-113198560D01*
X117492518Y-113204503D01*
X117492518Y-113175399D01*
X117492503Y-113174662D01*
X117492457Y-113173942D01*
X117492381Y-113173238D01*
X117492275Y-113172551D01*
X117492141Y-113171882D01*
X117491977Y-113171230D01*
X117491786Y-113170597D01*
X117491567Y-113169983D01*
X117491321Y-113169388D01*
X117491049Y-113168813D01*
X117490750Y-113168259D01*
X117490425Y-113167725D01*
X117490076Y-113167212D01*
X117489701Y-113166722D01*
X117489303Y-113166253D01*
X117488880Y-113165808D01*
X117488435Y-113165385D01*
X117487966Y-113164987D01*
X117487476Y-113164612D01*
X117486963Y-113164263D01*
X117486429Y-113163938D01*
X117485875Y-113163639D01*
X117485300Y-113163367D01*
X117484705Y-113163120D01*
X117484091Y-113162902D01*
X117483458Y-113162710D01*
X117482806Y-113162547D01*
X117482137Y-113162412D01*
X117481450Y-113162307D01*
X117480746Y-113162231D01*
X117480026Y-113162185D01*
X117479289Y-113162170D01*
X117378747Y-113162170D01*
X117108873Y-113162170D01*
X116754331Y-113162170D01*
X116489748Y-113162170D01*
X116386560Y-113162170D01*
X116385824Y-113162185D01*
X116385103Y-113162231D01*
X116384400Y-113162307D01*
X116383713Y-113162412D01*
X116383043Y-113162547D01*
X116382392Y-113162710D01*
X116381759Y-113162902D01*
X116381144Y-113163120D01*
X116380550Y-113163366D01*
X116379975Y-113163639D01*
X116379420Y-113163938D01*
X116378886Y-113164262D01*
X116378374Y-113164612D01*
X116377883Y-113164987D01*
X116377415Y-113165385D01*
X116376969Y-113165808D01*
X116376547Y-113166253D01*
X116376148Y-113166722D01*
X116375773Y-113167212D01*
X116375424Y-113167725D01*
X116375099Y-113168258D01*
X116374800Y-113168813D01*
X116374528Y-113169388D01*
X116374282Y-113169983D01*
X116374063Y-113170597D01*
X116373871Y-113171230D01*
X116373708Y-113171882D01*
X116373574Y-113172551D01*
X116373468Y-113173238D01*
X116373392Y-113173942D01*
X116373346Y-113174662D01*
X116373331Y-113175399D01*
X116267499Y-113175399D01*
X116267637Y-113169966D01*
X116268048Y-113164588D01*
X116268726Y-113159272D01*
X116269664Y-113154025D01*
X116270856Y-113148856D01*
X116272295Y-113143773D01*
X116273975Y-113138782D01*
X116275891Y-113133892D01*
X116278035Y-113129111D01*
X116280402Y-113124446D01*
X116282984Y-113119905D01*
X116285777Y-113115495D01*
X116288772Y-113111226D01*
X116291966Y-113107103D01*
X116295349Y-113103136D01*
X116298918Y-113099331D01*
X116302665Y-113095697D01*
X116306583Y-113092241D01*
X116310668Y-113088971D01*
X116314912Y-113085895D01*
X116319309Y-113083021D01*
X116323852Y-113080355D01*
X116328537Y-113077907D01*
X116333355Y-113075684D01*
X116338301Y-113073693D01*
X116343369Y-113071942D01*
X116348553Y-113070440D01*
X116353845Y-113069193D01*
X116359240Y-113068210D01*
X116364731Y-113067498D01*
X116370312Y-113067065D01*
X116375978Y-113066919D01*
X116529436Y-113066919D01*
X116632623Y-113066919D01*
X117227935Y-113066919D01*
X117227935Y-112868482D01*
X116632623Y-112961086D01*
X116632623Y-113066919D01*
X116529436Y-113066919D01*
X116529436Y-112998128D01*
X116463290Y-112982253D01*
X116460593Y-112981455D01*
X116457959Y-112980551D01*
X116455390Y-112979543D01*
X116452887Y-112978434D01*
X116450453Y-112977226D01*
X116448087Y-112975922D01*
X116443570Y-112973034D01*
X116439348Y-112969789D01*
X116435431Y-112966207D01*
X116431832Y-112962308D01*
X116428563Y-112958110D01*
X116425635Y-112953632D01*
X116423060Y-112948896D01*
X116420849Y-112943919D01*
X116419013Y-112938721D01*
X116417566Y-112933321D01*
X116416517Y-112927739D01*
X116415880Y-112921995D01*
X116415665Y-112916107D01*
X116415974Y-112913154D01*
X116416405Y-112910249D01*
X116416954Y-112907395D01*
X116417618Y-112904593D01*
X116418395Y-112901846D01*
X116419281Y-112899155D01*
X116420274Y-112896521D01*
X116421370Y-112893948D01*
X116422567Y-112891437D01*
X116423862Y-112888990D01*
X116425252Y-112886609D01*
X116426734Y-112884295D01*
X116428305Y-112882051D01*
X116429962Y-112879879D01*
X116431703Y-112877781D01*
X116433524Y-112875758D01*
X116435423Y-112873813D01*
X116437396Y-112871947D01*
X116439441Y-112870163D01*
X116441555Y-112868462D01*
X116443734Y-112866846D01*
X116445977Y-112865317D01*
X116448280Y-112863877D01*
X116450639Y-112862529D01*
X116453054Y-112861274D01*
X116455519Y-112860113D01*
X116458033Y-112859050D01*
X116460592Y-112858085D01*
X116463194Y-112857221D01*
X116465836Y-112856460D01*
X116468515Y-112855803D01*
X116471227Y-112855253D01*
X116532081Y-112844669D01*
X116532081Y-112828795D01*
X116632623Y-112828795D01*
X117227935Y-112736190D01*
X117227935Y-112635649D01*
X116632623Y-112728253D01*
X116632623Y-112828795D01*
X116532081Y-112828795D01*
X116532081Y-112765295D01*
X116465935Y-112749420D01*
X116463238Y-112748622D01*
X116460604Y-112747718D01*
X116458035Y-112746710D01*
X116455532Y-112745601D01*
X116453098Y-112744393D01*
X116450732Y-112743089D01*
X116446215Y-112740201D01*
X116441993Y-112736956D01*
X116438076Y-112733374D01*
X116434477Y-112729475D01*
X116431208Y-112725277D01*
X116428280Y-112720799D01*
X116425705Y-112716063D01*
X116423494Y-112711086D01*
X116421658Y-112705888D01*
X116420211Y-112700488D01*
X116419163Y-112694906D01*
X116418525Y-112689162D01*
X116418310Y-112683274D01*
X116418619Y-112680321D01*
X116419050Y-112677416D01*
X116419599Y-112674562D01*
X116420263Y-112671761D01*
X116421040Y-112669013D01*
X116421926Y-112666322D01*
X116422919Y-112663688D01*
X116424015Y-112661115D01*
X116425212Y-112658604D01*
X116426507Y-112656157D01*
X116427897Y-112653776D01*
X116429379Y-112651462D01*
X116430950Y-112649218D01*
X116432608Y-112647046D01*
X116434348Y-112644948D01*
X116436169Y-112642925D01*
X116438068Y-112640980D01*
X116440041Y-112639114D01*
X116442086Y-112637330D01*
X116444200Y-112635628D01*
X116446380Y-112634013D01*
X116448622Y-112632484D01*
X116450925Y-112631044D01*
X116453285Y-112629696D01*
X116455699Y-112628441D01*
X116458164Y-112627280D01*
X116460678Y-112626217D01*
X116463237Y-112625252D01*
X116465839Y-112624388D01*
X116468481Y-112623627D01*
X116471160Y-112622970D01*
X116473872Y-112622420D01*
X116534727Y-112611836D01*
X116534727Y-112595961D01*
X116632623Y-112595961D01*
X117227935Y-112503357D01*
X117227935Y-112402815D01*
X116632623Y-112495420D01*
X116632623Y-112595961D01*
X116534727Y-112595961D01*
X116534727Y-112532461D01*
X116468581Y-112516586D01*
X116465884Y-112515788D01*
X116463250Y-112514884D01*
X116460681Y-112513877D01*
X116458178Y-112512768D01*
X116455744Y-112511560D01*
X116453378Y-112510256D01*
X116448861Y-112507367D01*
X116444638Y-112504123D01*
X116440722Y-112500541D01*
X116437123Y-112496642D01*
X116433854Y-112492443D01*
X116430926Y-112487966D01*
X116428351Y-112483230D01*
X116426140Y-112478253D01*
X116424304Y-112473054D01*
X116422857Y-112467655D01*
X116421808Y-112462073D01*
X116421171Y-112456329D01*
X116420956Y-112450441D01*
X116421265Y-112447488D01*
X116421696Y-112444583D01*
X116422245Y-112441729D01*
X116422909Y-112438927D01*
X116423686Y-112436180D01*
X116424572Y-112433488D01*
X116425565Y-112430855D01*
X116426661Y-112428282D01*
X116427858Y-112425771D01*
X116429153Y-112423324D01*
X116430543Y-112420942D01*
X116432025Y-112418629D01*
X116433596Y-112416385D01*
X116435254Y-112414213D01*
X116436994Y-112412115D01*
X116438815Y-112410092D01*
X116440714Y-112408147D01*
X116442687Y-112406281D01*
X116444732Y-112404496D01*
X116446846Y-112402795D01*
X116449026Y-112401179D01*
X116451268Y-112399651D01*
X116453571Y-112398211D01*
X116455931Y-112396863D01*
X116458345Y-112395607D01*
X116460810Y-112394447D01*
X116463324Y-112393383D01*
X116465883Y-112392419D01*
X116468485Y-112391555D01*
X116471127Y-112390793D01*
X116473806Y-112390137D01*
X116476518Y-112389587D01*
X116537373Y-112379003D01*
X116537373Y-112363128D01*
X116629976Y-112363128D01*
X117225289Y-112270524D01*
X117225289Y-112236128D01*
X117212060Y-112222899D01*
X116645852Y-112222899D01*
X116632623Y-112236128D01*
X116629976Y-112236128D01*
X116629976Y-112363128D01*
X116537373Y-112363128D01*
X116537373Y-112214961D01*
X116537434Y-112212482D01*
X116537616Y-112210011D01*
X116537913Y-112207555D01*
X116538323Y-112205122D01*
X116538842Y-112202721D01*
X116539465Y-112200358D01*
X116540190Y-112198041D01*
X116541010Y-112195779D01*
X116541924Y-112193579D01*
X116542928Y-112191449D01*
X116544016Y-112189396D01*
X116545186Y-112187428D01*
X116546433Y-112185554D01*
X116547754Y-112183780D01*
X116549145Y-112182115D01*
X116550602Y-112180566D01*
X116592935Y-112138232D01*
X116594484Y-112136776D01*
X116596149Y-112135385D01*
X116597923Y-112134064D01*
X116599797Y-112132817D01*
X116601765Y-112131647D01*
X116603818Y-112130558D01*
X116605948Y-112129555D01*
X116608148Y-112128641D01*
X116610410Y-112127820D01*
X116612727Y-112127096D01*
X116615090Y-112126473D01*
X116617491Y-112125954D01*
X116619924Y-112125544D01*
X116622380Y-112125246D01*
X116624851Y-112125064D01*
X116627330Y-112125003D01*
X117235872Y-112125003D01*
X117238351Y-112125064D01*
G37*
G36*
X114721522Y-114060717D02*
G01*
X114732885Y-114062453D01*
X114744373Y-114065327D01*
X114755931Y-114069395D01*
X114767500Y-114074718D01*
X114779024Y-114081353D01*
X114790445Y-114089359D01*
X114801706Y-114098794D01*
X114812665Y-114109421D01*
X114822743Y-114120435D01*
X114831977Y-114131788D01*
X114840401Y-114143432D01*
X114848050Y-114155321D01*
X114854959Y-114167406D01*
X114861162Y-114179641D01*
X114866694Y-114191977D01*
X114871591Y-114204368D01*
X114875888Y-114216765D01*
X114879618Y-114229122D01*
X114882817Y-114241390D01*
X114885521Y-114253523D01*
X114887763Y-114265473D01*
X114891003Y-114288633D01*
X114892817Y-114310491D01*
X114893483Y-114330667D01*
X114893282Y-114348781D01*
X114892491Y-114364453D01*
X114890259Y-114386953D01*
X114889018Y-114395128D01*
X114876396Y-114377040D01*
X114864309Y-114360435D01*
X114852739Y-114345244D01*
X114841662Y-114331400D01*
X114831059Y-114318836D01*
X114820906Y-114307482D01*
X114811184Y-114297272D01*
X114801871Y-114288137D01*
X114792946Y-114280010D01*
X114784387Y-114272823D01*
X114776172Y-114266507D01*
X114768282Y-114260996D01*
X114760693Y-114256222D01*
X114753386Y-114252116D01*
X114746338Y-114248610D01*
X114739529Y-114245638D01*
X114732937Y-114243131D01*
X114726540Y-114241021D01*
X114720318Y-114239240D01*
X114714249Y-114237721D01*
X114691077Y-114232905D01*
X114679856Y-114230303D01*
X114674261Y-114228716D01*
X114668650Y-114226849D01*
X114662999Y-114224632D01*
X114657289Y-114221999D01*
X114651497Y-114218881D01*
X114645602Y-114215211D01*
X114635236Y-114207586D01*
X114626426Y-114199631D01*
X114619114Y-114191407D01*
X114613242Y-114182970D01*
X114608754Y-114174381D01*
X114605593Y-114165697D01*
X114603701Y-114156977D01*
X114603021Y-114148280D01*
X114603495Y-114139664D01*
X114605068Y-114131188D01*
X114607682Y-114122911D01*
X114611278Y-114114892D01*
X114615802Y-114107188D01*
X114621194Y-114099858D01*
X114627398Y-114092962D01*
X114634357Y-114086557D01*
X114642014Y-114080703D01*
X114650311Y-114075458D01*
X114659191Y-114070880D01*
X114668598Y-114067029D01*
X114678473Y-114063962D01*
X114688761Y-114061739D01*
X114699403Y-114060418D01*
X114710342Y-114060058D01*
X114721522Y-114060717D01*
G37*
G36*
X114658071Y-114520495D02*
G01*
X114683330Y-114522142D01*
X114707966Y-114524570D01*
X114731905Y-114527683D01*
X114755073Y-114531388D01*
X114798801Y-114540191D01*
X114838556Y-114550219D01*
X114873746Y-114560712D01*
X114903777Y-114570910D01*
X114945992Y-114587385D01*
X114960456Y-114593565D01*
X114917481Y-114608317D01*
X114877754Y-114622812D01*
X114841128Y-114637056D01*
X114807457Y-114651055D01*
X114776595Y-114664816D01*
X114748393Y-114678345D01*
X114722706Y-114691648D01*
X114699387Y-114704732D01*
X114678288Y-114717602D01*
X114659263Y-114730266D01*
X114642166Y-114742729D01*
X114626848Y-114754997D01*
X114613165Y-114767078D01*
X114600968Y-114778977D01*
X114590112Y-114790701D01*
X114580448Y-114802255D01*
X114571831Y-114813647D01*
X114564114Y-114824883D01*
X114557149Y-114835968D01*
X114550791Y-114846909D01*
X114528482Y-114889361D01*
X114517148Y-114909888D01*
X114510922Y-114919998D01*
X114504127Y-114930015D01*
X114496618Y-114939945D01*
X114488246Y-114949794D01*
X114478866Y-114959568D01*
X114468331Y-114969274D01*
X114447579Y-114985452D01*
X114427051Y-114998367D01*
X114406830Y-115008164D01*
X114387003Y-115014992D01*
X114367652Y-115018996D01*
X114348862Y-115020323D01*
X114330717Y-115019120D01*
X114313302Y-115015534D01*
X114296701Y-115009712D01*
X114280998Y-115001801D01*
X114266277Y-114991946D01*
X114252623Y-114980296D01*
X114240121Y-114966997D01*
X114228853Y-114952195D01*
X114218906Y-114936038D01*
X114210362Y-114918672D01*
X114203307Y-114900244D01*
X114197824Y-114880901D01*
X114193999Y-114860790D01*
X114191914Y-114840057D01*
X114191655Y-114818849D01*
X114193305Y-114797313D01*
X114196950Y-114775596D01*
X114202673Y-114753845D01*
X114210559Y-114732206D01*
X114220691Y-114710826D01*
X114233155Y-114689852D01*
X114248034Y-114669431D01*
X114265414Y-114649710D01*
X114285377Y-114630835D01*
X114308009Y-114612953D01*
X114333393Y-114596211D01*
X114360341Y-114581080D01*
X114387555Y-114567869D01*
X114414962Y-114556484D01*
X114442488Y-114546829D01*
X114470058Y-114538810D01*
X114497599Y-114532331D01*
X114525036Y-114527298D01*
X114552295Y-114523616D01*
X114579302Y-114521190D01*
X114605983Y-114519924D01*
X114632264Y-114519724D01*
X114658071Y-114520495D01*
G37*
G36*
X116939979Y-110333982D02*
G01*
X116948239Y-110334598D01*
X116956370Y-110335614D01*
X116964365Y-110337019D01*
X116972211Y-110338804D01*
X116979901Y-110340960D01*
X116987424Y-110343475D01*
X116994771Y-110346342D01*
X117001932Y-110349549D01*
X117008897Y-110353088D01*
X117015656Y-110356949D01*
X117022201Y-110361121D01*
X117028521Y-110365596D01*
X117034606Y-110370363D01*
X117040447Y-110375414D01*
X117046034Y-110380737D01*
X117051358Y-110386325D01*
X117056408Y-110392166D01*
X117061176Y-110398251D01*
X117065650Y-110404571D01*
X117069823Y-110411115D01*
X117073684Y-110417875D01*
X117077222Y-110424840D01*
X117080430Y-110432000D01*
X117083296Y-110439347D01*
X117085812Y-110446870D01*
X117087967Y-110454560D01*
X117089752Y-110462407D01*
X117091158Y-110470401D01*
X117092173Y-110478533D01*
X117092790Y-110486792D01*
X117092998Y-110495170D01*
X117092998Y-111315378D01*
X117092790Y-111323756D01*
X117092173Y-111332015D01*
X117091158Y-111340147D01*
X117089752Y-111348141D01*
X117087967Y-111355988D01*
X117085812Y-111363677D01*
X117083296Y-111371201D01*
X117080430Y-111378547D01*
X117077222Y-111385708D01*
X117073684Y-111392673D01*
X117069823Y-111399433D01*
X117065650Y-111405977D01*
X117061176Y-111412297D01*
X117056408Y-111418382D01*
X117051358Y-111424223D01*
X117046034Y-111429810D01*
X117040447Y-111435134D01*
X117034606Y-111440184D01*
X117028521Y-111444952D01*
X117022201Y-111449427D01*
X117015656Y-111453599D01*
X117008897Y-111457460D01*
X117001932Y-111460999D01*
X116994771Y-111464206D01*
X116987424Y-111467073D01*
X116979901Y-111469588D01*
X116972211Y-111471744D01*
X116964365Y-111473529D01*
X116956370Y-111474934D01*
X116948239Y-111475950D01*
X116939979Y-111476566D01*
X116931602Y-111476774D01*
X116923224Y-111476559D01*
X116914964Y-111475921D01*
X116906833Y-111474871D01*
X116898839Y-111473420D01*
X116890992Y-111471580D01*
X116883302Y-111469362D01*
X116875779Y-111466776D01*
X116868432Y-111463834D01*
X116861272Y-111460547D01*
X116854307Y-111456927D01*
X116847547Y-111452984D01*
X116841002Y-111448729D01*
X116834683Y-111444174D01*
X116828598Y-111439330D01*
X116822757Y-111434207D01*
X116817169Y-111428818D01*
X116811846Y-111423173D01*
X116806795Y-111417283D01*
X116802028Y-111411160D01*
X116797553Y-111404814D01*
X116793380Y-111398258D01*
X116789520Y-111391501D01*
X116785981Y-111384555D01*
X116782774Y-111377431D01*
X116779907Y-111370141D01*
X116777391Y-111362695D01*
X116775236Y-111355105D01*
X116773451Y-111347381D01*
X116772046Y-111339536D01*
X116771030Y-111331579D01*
X116770413Y-111323523D01*
X116770206Y-111315378D01*
X116770206Y-110495170D01*
X116770413Y-110486792D01*
X116771030Y-110478533D01*
X116772046Y-110470401D01*
X116773451Y-110462407D01*
X116775236Y-110454560D01*
X116777391Y-110446870D01*
X116779907Y-110439347D01*
X116782773Y-110432001D01*
X116785981Y-110424840D01*
X116789520Y-110417875D01*
X116793380Y-110411115D01*
X116797553Y-110404571D01*
X116802028Y-110398251D01*
X116806795Y-110392166D01*
X116811846Y-110386325D01*
X116817169Y-110380738D01*
X116822756Y-110375414D01*
X116828597Y-110370364D01*
X116834683Y-110365596D01*
X116841002Y-110361121D01*
X116847547Y-110356949D01*
X116854306Y-110353088D01*
X116861271Y-110349549D01*
X116868432Y-110346342D01*
X116875779Y-110343475D01*
X116883302Y-110340960D01*
X116890992Y-110338804D01*
X116898839Y-110337019D01*
X116906833Y-110335614D01*
X116914964Y-110334598D01*
X116923224Y-110333982D01*
X116931602Y-110333774D01*
X116939979Y-110333982D01*
G37*
G36*
X117924325Y-108756322D02*
G01*
X117939119Y-108757349D01*
X117952867Y-108759067D01*
X117965572Y-108761478D01*
X117977239Y-108764587D01*
X117987870Y-108768398D01*
X117992800Y-108770567D01*
X117997471Y-108772914D01*
X118001886Y-108775437D01*
X118006045Y-108778139D01*
X118009948Y-108781019D01*
X118013596Y-108784077D01*
X118016988Y-108787315D01*
X118020127Y-108790732D01*
X118023011Y-108794330D01*
X118025643Y-108798109D01*
X118028021Y-108802068D01*
X118030147Y-108806210D01*
X118032021Y-108810533D01*
X118033643Y-108815039D01*
X118035015Y-108819728D01*
X118036136Y-108824601D01*
X118037007Y-108829658D01*
X118037629Y-108834900D01*
X118038126Y-108845939D01*
X118038002Y-108851902D01*
X118037630Y-108857927D01*
X118037009Y-108864077D01*
X118036141Y-108870412D01*
X118035025Y-108876996D01*
X118033661Y-108883890D01*
X118032048Y-108891155D01*
X118030188Y-108898855D01*
X117998438Y-108991459D01*
X117996818Y-108996141D01*
X117994935Y-109000761D01*
X117992789Y-109005317D01*
X117990381Y-109009810D01*
X117987712Y-109014239D01*
X117984781Y-109018603D01*
X117981590Y-109022903D01*
X117978139Y-109027137D01*
X117974428Y-109031305D01*
X117970458Y-109035407D01*
X117966229Y-109039442D01*
X117961742Y-109043410D01*
X117956997Y-109047309D01*
X117951995Y-109051141D01*
X117946737Y-109054904D01*
X117941221Y-109058597D01*
X117935451Y-109062221D01*
X117929424Y-109065774D01*
X117923143Y-109069257D01*
X117916608Y-109072669D01*
X117902776Y-109079276D01*
X117887933Y-109085593D01*
X117872082Y-109091615D01*
X117855227Y-109097339D01*
X117837372Y-109102761D01*
X117818521Y-109107876D01*
X117831482Y-109111969D01*
X117843579Y-109116309D01*
X117854815Y-109120898D01*
X117865195Y-109125735D01*
X117874722Y-109130820D01*
X117883401Y-109136153D01*
X117891234Y-109141734D01*
X117898227Y-109147563D01*
X117904382Y-109153640D01*
X117909704Y-109159966D01*
X117914197Y-109166539D01*
X117917864Y-109173360D01*
X117919389Y-109176864D01*
X117920709Y-109180430D01*
X117921825Y-109184057D01*
X117922737Y-109187747D01*
X117923951Y-109195312D01*
X117924354Y-109203126D01*
X117921708Y-109224292D01*
X117800000Y-109600000D01*
X117794585Y-109618439D01*
X117792326Y-109626697D01*
X117790409Y-109634396D01*
X117788864Y-109641600D01*
X117787722Y-109648370D01*
X117787312Y-109651611D01*
X117787014Y-109654767D01*
X117786833Y-109657846D01*
X117786771Y-109660854D01*
X117786903Y-109665738D01*
X117787299Y-109670466D01*
X117787957Y-109675040D01*
X117788880Y-109679458D01*
X117790066Y-109683721D01*
X117791515Y-109687830D01*
X117793228Y-109691783D01*
X117795205Y-109695581D01*
X117797445Y-109699224D01*
X117799949Y-109702712D01*
X117802716Y-109706046D01*
X117805747Y-109709224D01*
X117809041Y-109712247D01*
X117812599Y-109715115D01*
X117816421Y-109717828D01*
X117820506Y-109720386D01*
X117824854Y-109722789D01*
X117829466Y-109725037D01*
X117834342Y-109727129D01*
X117839481Y-109729067D01*
X117844884Y-109730850D01*
X117850550Y-109732478D01*
X117856480Y-109733951D01*
X117862674Y-109735268D01*
X117869131Y-109736431D01*
X117875851Y-109737439D01*
X117882835Y-109738291D01*
X117890083Y-109738989D01*
X117897594Y-109739532D01*
X117905369Y-109739919D01*
X117913407Y-109740152D01*
X117921709Y-109740229D01*
X118593751Y-109740229D01*
X118461458Y-110160918D01*
X117450751Y-110160918D01*
X117444567Y-110160772D01*
X117438424Y-110160339D01*
X117432332Y-110159627D01*
X117426302Y-110158644D01*
X117420344Y-110157397D01*
X117414468Y-110155895D01*
X117408684Y-110154144D01*
X117403002Y-110152153D01*
X117397432Y-110149930D01*
X117391985Y-110147482D01*
X117381499Y-110141942D01*
X117371626Y-110135596D01*
X117362446Y-110128506D01*
X117358142Y-110124702D01*
X117354041Y-110120734D01*
X117350155Y-110116612D01*
X117346493Y-110112342D01*
X117343066Y-110107933D01*
X117339883Y-110103392D01*
X117336956Y-110098726D01*
X117334293Y-110093945D01*
X117331905Y-110089055D01*
X117329803Y-110084065D01*
X117327996Y-110078981D01*
X117326495Y-110073812D01*
X117325309Y-110068566D01*
X117324450Y-110063249D01*
X117323927Y-110057871D01*
X117323751Y-110052439D01*
X117326396Y-110020689D01*
X117601563Y-109176668D01*
X117434876Y-109176668D01*
X117297292Y-109600001D01*
X116961271Y-109600001D01*
X117143237Y-109036439D01*
X117477209Y-109036439D01*
X117646542Y-109036439D01*
X117691521Y-108896210D01*
X117522188Y-108896210D01*
X117477209Y-109036439D01*
X117143237Y-109036439D01*
X117233792Y-108755980D01*
X117908480Y-108755980D01*
X117924325Y-108756322D01*
G37*
D14*
%TO.C,R3*%
X127000000Y-96750000D03*
X125000000Y-96750000D03*
%TD*%
D15*
%TO.C,C7*%
X107000000Y-102787500D03*
X107000000Y-100712500D03*
%TD*%
D16*
%TO.C,J1*%
X131000000Y-91580000D03*
D17*
X131000000Y-94120000D03*
X131000000Y-96660000D03*
X131000000Y-99200000D03*
%TD*%
D18*
%TO.C,R9*%
X125800000Y-108200000D03*
X125800000Y-110200000D03*
%TD*%
D19*
%TO.C,H1*%
X106100000Y-112750000D03*
X106802944Y-111052944D03*
X106802944Y-114447056D03*
X108500000Y-110350000D03*
D20*
X108500000Y-112750000D03*
D19*
X108500000Y-115150000D03*
X110197056Y-111052944D03*
X110197056Y-114447056D03*
X110900000Y-112750000D03*
%TD*%
D14*
%TO.C,R2*%
X109000000Y-98750000D03*
X107000000Y-98750000D03*
%TD*%
D15*
%TO.C,C4*%
X119800000Y-93075000D03*
X119800000Y-91000000D03*
%TD*%
D21*
%TO.C,U1*%
X111750000Y-90555000D03*
X111750000Y-91825000D03*
X111750000Y-93095000D03*
X111750000Y-94365000D03*
X111750000Y-95635000D03*
X111750000Y-96905000D03*
X111750000Y-98175000D03*
X111750000Y-99445000D03*
X116750000Y-99445000D03*
X116750000Y-98175000D03*
X116750000Y-96905000D03*
X116750000Y-95635000D03*
X116750000Y-94365000D03*
X116750000Y-93095000D03*
X116750000Y-91825000D03*
X116750000Y-90555000D03*
%TD*%
D15*
%TO.C,C9*%
X119400000Y-101837500D03*
X119400000Y-99762500D03*
%TD*%
D22*
%TO.C,C2*%
X109037500Y-94250000D03*
X106962500Y-94250000D03*
%TD*%
D23*
%TO.C,J2*%
X122250000Y-113225000D03*
D17*
X124790000Y-113225000D03*
%TD*%
D24*
%TO.C,U3*%
X114300000Y-101600000D03*
X112000000Y-101600000D03*
D25*
X112000000Y-107900000D03*
D24*
X109700000Y-101600000D03*
%TD*%
D26*
%TO.C,U2*%
X122800000Y-102250000D03*
X122800000Y-103520000D03*
X122800000Y-104790000D03*
X122800000Y-106060000D03*
X127750000Y-106060000D03*
X127750000Y-104790000D03*
X127750000Y-103520000D03*
X127750000Y-102250000D03*
%TD*%
D16*
%TO.C,J3*%
X131025000Y-103960000D03*
D17*
X131025000Y-106500000D03*
X131025000Y-109040000D03*
X131025000Y-111580000D03*
%TD*%
D27*
%TO.C,C3*%
X106962500Y-89000000D03*
X109037500Y-89000000D03*
%TD*%
D14*
%TO.C,R4*%
X127000000Y-99250000D03*
X125000000Y-99250000D03*
%TD*%
D19*
%TO.C,H2*%
X123350000Y-92000000D03*
X124052944Y-90302944D03*
X124052944Y-93697056D03*
X125750000Y-89600000D03*
D20*
X125750000Y-92000000D03*
D19*
X125750000Y-94400000D03*
X127447056Y-90302944D03*
X127447056Y-93697056D03*
X128150000Y-92000000D03*
%TD*%
D28*
%TO.C,C8*%
X107000000Y-104712500D03*
X107000000Y-106787500D03*
%TD*%
D15*
%TO.C,C5*%
X123000000Y-99037500D03*
X123000000Y-96962500D03*
%TD*%
D22*
%TO.C,C1*%
X109037500Y-92000000D03*
X106962500Y-92000000D03*
%TD*%
D18*
%TO.C,R10*%
X119000000Y-104750000D03*
X119000000Y-106750000D03*
%TD*%
D29*
%TO.C,D1*%
X116750000Y-104725000D03*
X116750000Y-106775000D03*
%TD*%
D27*
%TO.C,C6*%
X112962500Y-111500000D03*
X115037500Y-111500000D03*
%TD*%
D30*
%TO.C,R1*%
X107000000Y-96500000D03*
X109000000Y-96500000D03*
%TD*%
%LPD*%
M02*
