M48
; DRILL file {KiCad 7.0.7} date Mon Sep  4 20:39:43 2023
; FORMAT={-:-/ absolute / inch / decimal}
; #@! TF.CreationDate,2023-09-04T20:39:43-04:00
; #@! TF.GenerationSoftware,Kicad,Pcbnew,7.0.7
; #@! TF.FileFunction,Plated,1,2,PTH
FMAT,2
INCH
; #@! TA.AperFunction,Plated,PTH,ViaDrill
T1C0.0118
; #@! TA.AperFunction,Plated,PTH,ComponentDrill
T2C0.0197
; #@! TA.AperFunction,Plated,PTH,ComponentDrill
T3C0.0394
; #@! TA.AperFunction,Plated,PTH,ComponentDrill
T4C0.1260
%
G90
G05
T1
X4.252Y-3.563
X4.2677Y-3.9449
X4.2756Y-4.0787
X4.2913Y-3.6693
X4.3307Y-4.1142
X4.3406Y-3.8386
X4.3701Y-4.0748
X4.4094Y-4.0787
X4.4685Y-3.7992
X4.4685Y-3.9173
X4.4724Y-3.8583
X4.5079Y-3.622
X4.5079Y-3.7598
X4.5079Y-3.878
X4.6654Y-3.622
X4.685Y-3.8189
X4.7559Y-4.189
X4.7638Y-4.0079
X4.7835Y-3.7205
X4.7874Y-3.7953
X4.8031Y-3.878
X4.874Y-4.3386
X4.9213Y-4.1535
X4.9685Y-4.0642
X5.0236Y-4.2362
X5.0709Y-3.8504
T2
X4.1772Y-4.439
X4.2048Y-4.3722
X4.2048Y-4.5058
X4.2717Y-4.3445
X4.2717Y-4.5335
X4.3385Y-4.3722
X4.3385Y-4.5058
X4.3661Y-4.439
X4.8563Y-3.622
X4.884Y-3.5552
X4.884Y-3.6889
X4.9508Y-3.5276
X4.9508Y-3.7165
X5.0176Y-3.5552
X5.0176Y-3.6889
X5.0453Y-3.622
T3
X4.813Y-4.4577
X4.913Y-4.4577
X5.1575Y-3.6055
X5.1575Y-3.7055
X5.1575Y-3.8055
X5.1575Y-3.9055
X5.1585Y-4.0929
X5.1585Y-4.1929
X5.1585Y-4.2929
X5.1585Y-4.3929
T4
X4.2717Y-4.439
X4.9508Y-3.622
T0
M30
