%TF.GenerationSoftware,KiCad,Pcbnew,7.0.7*%
%TF.CreationDate,2023-09-04T20:48:42-04:00*%
%TF.ProjectId,square,73717561-7265-42e6-9b69-6361645f7063,rev?*%
%TF.SameCoordinates,Original*%
%TF.FileFunction,Soldermask,Top*%
%TF.FilePolarity,Negative*%
%FSLAX46Y46*%
G04 Gerber Fmt 4.6, Leading zero omitted, Abs format (unit mm)*
G04 Created by KiCad (PCBNEW 7.0.7) date 2023-09-04 20:48:42*
%MOMM*%
%LPD*%
G01*
G04 APERTURE LIST*
G04 Aperture macros list*
%AMRoundRect*
0 Rectangle with rounded corners*
0 $1 Rounding radius*
0 $2 $3 $4 $5 $6 $7 $8 $9 X,Y pos of 4 corners*
0 Add a 4 corners polygon primitive as box body*
4,1,4,$2,$3,$4,$5,$6,$7,$8,$9,$2,$3,0*
0 Add four circle primitives for the rounded corners*
1,1,$1+$1,$2,$3*
1,1,$1+$1,$4,$5*
1,1,$1+$1,$6,$7*
1,1,$1+$1,$8,$9*
0 Add four rect primitives between the rounded corners*
20,1,$1+$1,$2,$3,$4,$5,0*
20,1,$1+$1,$4,$5,$6,$7,0*
20,1,$1+$1,$6,$7,$8,$9,0*
20,1,$1+$1,$8,$9,$2,$3,0*%
%AMFreePoly0*
4,1,45,0.263282,1.831170,0.521205,1.775062,0.768518,1.682819,1.000186,1.556319,1.211492,1.398137,1.398137,1.211492,1.556319,1.000186,1.682819,0.768518,1.775062,0.521205,1.831170,0.263282,1.850000,0.000000,1.831170,-0.263282,1.775062,-0.521205,1.682819,-0.768518,1.556319,-1.000186,1.398137,-1.211492,1.211492,-1.398137,1.000186,-1.556319,0.768518,-1.682819,0.521205,-1.775062,
0.263282,-1.831170,0.000000,-1.850000,-0.263282,-1.831170,-0.521205,-1.775062,-0.768518,-1.682819,-1.000186,-1.556319,-1.211492,-1.398137,-1.398137,-1.211492,-1.556319,-1.000186,-1.682819,-0.768518,-1.775062,-0.521205,-1.831170,-0.263282,-1.850000,0.000000,-1.831170,0.263282,-1.775062,0.521205,-1.682819,0.768518,-1.556319,1.000186,-1.398137,1.211492,-1.211492,1.398137,-1.000186,1.556319,
-0.768518,1.682819,-0.521205,1.775062,-0.263282,1.831170,0.000000,1.850000,0.263282,1.831170,0.263282,1.831170,$1*%
%AMFreePoly1*
4,1,49,0.287158,2.181179,0.569402,2.125037,0.841904,2.032535,1.100000,1.905256,1.339275,1.745377,1.555635,1.555635,1.745377,1.339275,1.905256,1.100000,2.032535,0.841904,2.125037,0.569402,2.181179,0.287158,2.200000,0.000000,2.181179,-0.287158,2.125037,-0.569402,2.032535,-0.841904,1.905256,-1.100000,1.745377,-1.339275,1.555635,-1.555635,1.339275,-1.745377,1.100000,-1.905256,
0.841904,-2.032535,0.569402,-2.125037,0.287158,-2.181179,0.000000,-2.200000,-0.287158,-2.181179,-0.569402,-2.125037,-0.841904,-2.032535,-1.100000,-1.905256,-1.339275,-1.745377,-1.555635,-1.555635,-1.745377,-1.339275,-1.905256,-1.100000,-2.032535,-0.841904,-2.125037,-0.569402,-2.181179,-0.287158,-2.200000,0.000000,-2.181179,0.287158,-2.125037,0.569402,-2.032535,0.841904,-1.905256,1.100000,
-1.745377,1.339275,-1.555635,1.555635,-1.339275,1.745377,-1.100000,1.905256,-0.841904,2.032535,-0.569402,2.125037,-0.287158,2.181179,0.000000,2.200000,0.287158,2.181179,0.287158,2.181179,$1*%
%AMFreePoly2*
4,1,53,0.313395,2.581043,0.622221,2.524449,0.921973,2.431042,1.208280,2.302186,1.476968,2.139758,1.724119,1.946128,1.946128,1.724119,2.139758,1.476968,2.302186,1.208280,2.431042,0.921973,2.524449,0.622221,2.581043,0.313395,2.600000,0.000000,2.581043,-0.313395,2.524449,-0.622221,2.431042,-0.921973,2.302186,-1.208280,2.139758,-1.476968,1.946128,-1.724119,1.724119,-1.946128,
1.476968,-2.139758,1.208280,-2.302186,0.921973,-2.431042,0.622221,-2.524449,0.313395,-2.581043,0.000000,-2.600000,-0.313395,-2.581043,-0.622221,-2.524449,-0.921973,-2.431042,-1.208280,-2.302186,-1.476968,-2.139758,-1.724119,-1.946128,-1.946128,-1.724119,-2.139758,-1.476968,-2.302186,-1.208280,-2.431042,-0.921973,-2.524449,-0.622221,-2.581043,-0.313395,-2.600000,0.000000,-2.581043,0.313395,
-2.524449,0.622221,-2.431042,0.921973,-2.302186,1.208280,-2.139758,1.476968,-1.946128,1.724119,-1.724119,1.946128,-1.476968,2.139758,-1.208280,2.302186,-0.921973,2.431042,-0.622221,2.524449,-0.313395,2.581043,0.000000,2.600000,0.313395,2.581043,0.313395,2.581043,$1*%
G04 Aperture macros list end*
%ADD10C,0.000000*%
%ADD11R,1.700000X1.700000*%
%ADD12O,1.700000X1.700000*%
%ADD13RoundRect,0.249999X1.325827X0.689429X0.689429X1.325827X-1.325827X-0.689429X-0.689429X-1.325827X0*%
%ADD14C,0.800000*%
%ADD15C,5.400000*%
%ADD16FreePoly0,0.000000*%
%ADD17FreePoly1,0.000000*%
%ADD18FreePoly2,0.000000*%
G04 APERTURE END LIST*
D10*
G36*
X-12481422Y-12017466D02*
G01*
X-12479119Y-12017616D01*
X-12476818Y-12017878D01*
X-12474524Y-12018252D01*
X-12472238Y-12018740D01*
X-12469965Y-12019342D01*
X-12467708Y-12020059D01*
X-12465470Y-12020892D01*
X-12463255Y-12021843D01*
X-12461067Y-12022912D01*
X-12458907Y-12024100D01*
X-12456781Y-12025408D01*
X-12454691Y-12026837D01*
X-12452641Y-12028389D01*
X-12450634Y-12030063D01*
X-12448944Y-12031830D01*
X-12447349Y-12033656D01*
X-12445850Y-12035538D01*
X-12444448Y-12037474D01*
X-12443145Y-12039460D01*
X-12441943Y-12041493D01*
X-12440842Y-12043571D01*
X-12439844Y-12045690D01*
X-12438951Y-12047849D01*
X-12438164Y-12050043D01*
X-12437484Y-12052270D01*
X-12436914Y-12054527D01*
X-12436454Y-12056811D01*
X-12436106Y-12059120D01*
X-12435871Y-12061450D01*
X-12435751Y-12063798D01*
X-12435748Y-12066161D01*
X-12435862Y-12068538D01*
X-12436095Y-12070924D01*
X-12436449Y-12073317D01*
X-12436925Y-12075713D01*
X-12437525Y-12078111D01*
X-12438249Y-12080507D01*
X-12439100Y-12082897D01*
X-12440079Y-12085281D01*
X-12441187Y-12087653D01*
X-12442426Y-12090012D01*
X-12443798Y-12092354D01*
X-12445303Y-12094677D01*
X-12446943Y-12096978D01*
X-12448720Y-12099254D01*
X-12450635Y-12101501D01*
X-12453023Y-12104448D01*
X-12455229Y-12107341D01*
X-12457256Y-12110187D01*
X-12459110Y-12112994D01*
X-12460792Y-12115770D01*
X-12462308Y-12118523D01*
X-12463662Y-12121261D01*
X-12464856Y-12123991D01*
X-12465895Y-12126721D01*
X-12466784Y-12129458D01*
X-12467525Y-12132211D01*
X-12468122Y-12134987D01*
X-12468580Y-12137795D01*
X-12468902Y-12140641D01*
X-12469093Y-12143533D01*
X-12469156Y-12146480D01*
X-12468740Y-12152943D01*
X-12467504Y-12159421D01*
X-12465465Y-12165902D01*
X-12462639Y-12172370D01*
X-12454697Y-12185210D01*
X-12443814Y-12197826D01*
X-12430124Y-12210100D01*
X-12413764Y-12221917D01*
X-12394869Y-12233161D01*
X-12373575Y-12243715D01*
X-12350018Y-12253462D01*
X-12324332Y-12262287D01*
X-12296655Y-12270074D01*
X-12267121Y-12276705D01*
X-12235867Y-12282065D01*
X-12203027Y-12286038D01*
X-12168738Y-12288507D01*
X-12133135Y-12289355D01*
X-12115177Y-12289133D01*
X-12097532Y-12288478D01*
X-12080214Y-12287404D01*
X-12063242Y-12285929D01*
X-12046633Y-12284069D01*
X-12030403Y-12281838D01*
X-12014569Y-12279255D01*
X-11999148Y-12276333D01*
X-11984158Y-12273090D01*
X-11969614Y-12269541D01*
X-11955535Y-12265702D01*
X-11941937Y-12261590D01*
X-11928837Y-12257220D01*
X-11916252Y-12252608D01*
X-11904199Y-12247770D01*
X-11892695Y-12242723D01*
X-11881756Y-12237481D01*
X-11871401Y-12232062D01*
X-11861645Y-12226482D01*
X-11852506Y-12220755D01*
X-11844000Y-12214898D01*
X-11836146Y-12208928D01*
X-11828959Y-12202860D01*
X-11822456Y-12196710D01*
X-11816655Y-12190494D01*
X-11811572Y-12184228D01*
X-11807225Y-12177928D01*
X-11803630Y-12171611D01*
X-11800805Y-12165291D01*
X-11798766Y-12158985D01*
X-11797530Y-12152710D01*
X-11797114Y-12146480D01*
X-11797176Y-12143533D01*
X-11797367Y-12140641D01*
X-11797689Y-12137795D01*
X-11798147Y-12134987D01*
X-11798745Y-12132211D01*
X-11799486Y-12129458D01*
X-11800374Y-12126721D01*
X-11801413Y-12123991D01*
X-11802608Y-12121261D01*
X-11803961Y-12118523D01*
X-11805477Y-12115770D01*
X-11807160Y-12112994D01*
X-11809013Y-12110187D01*
X-11811041Y-12107341D01*
X-11813247Y-12104448D01*
X-11815635Y-12101501D01*
X-11817076Y-12099494D01*
X-11818424Y-12097444D01*
X-11819677Y-12095354D01*
X-11820833Y-12093228D01*
X-11821893Y-12091069D01*
X-11822855Y-12088880D01*
X-11823718Y-12086665D01*
X-11824482Y-12084427D01*
X-11825144Y-12082170D01*
X-11825705Y-12079897D01*
X-11826163Y-12077611D01*
X-11826518Y-12075317D01*
X-11826767Y-12073016D01*
X-11826912Y-12070713D01*
X-11826949Y-12068411D01*
X-11826879Y-12066113D01*
X-11826701Y-12063823D01*
X-11826413Y-12061544D01*
X-11826015Y-12059280D01*
X-11825505Y-12057033D01*
X-11824882Y-12054808D01*
X-11824147Y-12052608D01*
X-11823297Y-12050436D01*
X-11822332Y-12048295D01*
X-11821250Y-12046189D01*
X-11820051Y-12044121D01*
X-11818735Y-12042095D01*
X-11817298Y-12040115D01*
X-11815742Y-12038182D01*
X-11814065Y-12036301D01*
X-11812265Y-12034476D01*
X-11810343Y-12032709D01*
X-11808336Y-12031027D01*
X-11806286Y-12029454D01*
X-11804196Y-12027991D01*
X-11802069Y-12026637D01*
X-11799910Y-12025394D01*
X-11797722Y-12024262D01*
X-11795507Y-12023241D01*
X-11793269Y-12022333D01*
X-11791012Y-12021536D01*
X-11788739Y-12020853D01*
X-11786453Y-12020283D01*
X-11784158Y-12019826D01*
X-11781858Y-12019484D01*
X-11779555Y-12019257D01*
X-11777253Y-12019145D01*
X-11774955Y-12019149D01*
X-11772665Y-12019270D01*
X-11770386Y-12019507D01*
X-11768122Y-12019861D01*
X-11765875Y-12020333D01*
X-11763650Y-12020923D01*
X-11761450Y-12021632D01*
X-11759278Y-12022460D01*
X-11757137Y-12023408D01*
X-11755031Y-12024475D01*
X-11752963Y-12025664D01*
X-11750937Y-12026974D01*
X-11748956Y-12028405D01*
X-11747024Y-12029958D01*
X-11745143Y-12031634D01*
X-11743318Y-12033433D01*
X-11741551Y-12035355D01*
X-11736250Y-12041370D01*
X-11731262Y-12047504D01*
X-11726593Y-12053755D01*
X-11722245Y-12060118D01*
X-11718222Y-12066590D01*
X-11714529Y-12073167D01*
X-11711170Y-12079844D01*
X-11708147Y-12086618D01*
X-11705466Y-12093485D01*
X-11703129Y-12100441D01*
X-11701142Y-12107483D01*
X-11699507Y-12114606D01*
X-11698229Y-12121806D01*
X-11697311Y-12129081D01*
X-11696757Y-12136425D01*
X-11696572Y-12143834D01*
X-11697118Y-12156389D01*
X-11698742Y-12168746D01*
X-11701418Y-12180889D01*
X-11705124Y-12192808D01*
X-11709836Y-12204488D01*
X-11715530Y-12215917D01*
X-11722182Y-12227081D01*
X-11729769Y-12237968D01*
X-11738266Y-12248564D01*
X-11747651Y-12258856D01*
X-11768986Y-12278477D01*
X-11793585Y-12296726D01*
X-11821257Y-12313498D01*
X-11851812Y-12328689D01*
X-11885062Y-12342194D01*
X-11920815Y-12353909D01*
X-11958881Y-12363728D01*
X-11999072Y-12371547D01*
X-12041197Y-12377262D01*
X-12085065Y-12380767D01*
X-12130488Y-12381959D01*
X-12153615Y-12381659D01*
X-12176347Y-12380767D01*
X-12198663Y-12379297D01*
X-12220540Y-12377262D01*
X-12241955Y-12374674D01*
X-12262887Y-12371547D01*
X-12283313Y-12367894D01*
X-12303212Y-12363728D01*
X-12322559Y-12359062D01*
X-12341335Y-12353909D01*
X-12359515Y-12348282D01*
X-12377078Y-12342194D01*
X-12394001Y-12335659D01*
X-12410263Y-12328689D01*
X-12425841Y-12321298D01*
X-12440712Y-12313498D01*
X-12454855Y-12305303D01*
X-12468247Y-12296726D01*
X-12480865Y-12287780D01*
X-12492688Y-12278477D01*
X-12503694Y-12268832D01*
X-12513859Y-12258856D01*
X-12523162Y-12248564D01*
X-12531580Y-12237968D01*
X-12539091Y-12227081D01*
X-12545673Y-12215917D01*
X-12551304Y-12204488D01*
X-12555961Y-12192808D01*
X-12559622Y-12180889D01*
X-12562264Y-12168746D01*
X-12563866Y-12156389D01*
X-12564405Y-12143834D01*
X-12564220Y-12136424D01*
X-12563666Y-12129075D01*
X-12562748Y-12121789D01*
X-12561470Y-12114565D01*
X-12559835Y-12107402D01*
X-12557847Y-12100302D01*
X-12555511Y-12093264D01*
X-12552829Y-12086287D01*
X-12549807Y-12079373D01*
X-12546447Y-12072521D01*
X-12542754Y-12065730D01*
X-12538732Y-12059002D01*
X-12534384Y-12052336D01*
X-12529715Y-12045732D01*
X-12524727Y-12039189D01*
X-12519426Y-12032709D01*
X-12517659Y-12031020D01*
X-12515834Y-12029424D01*
X-12513953Y-12027923D01*
X-12512021Y-12026518D01*
X-12510040Y-12025211D01*
X-12508014Y-12024001D01*
X-12505946Y-12022889D01*
X-12503840Y-12021878D01*
X-12501699Y-12020967D01*
X-12499527Y-12020158D01*
X-12497327Y-12019452D01*
X-12495102Y-12018850D01*
X-12492855Y-12018352D01*
X-12490591Y-12017959D01*
X-12488312Y-12017674D01*
X-12486022Y-12017496D01*
X-12483724Y-12017426D01*
X-12481422Y-12017466D01*
G37*
G36*
X-9586933Y-12313788D02*
G01*
X-9574679Y-12314956D01*
X-9562308Y-12316721D01*
X-9549849Y-12319127D01*
X-9537334Y-12322216D01*
X-9524791Y-12326032D01*
X-9512251Y-12330618D01*
X-9499745Y-12336017D01*
X-9487301Y-12342272D01*
X-9475520Y-12349276D01*
X-9464960Y-12356847D01*
X-9455585Y-12364919D01*
X-9447360Y-12373422D01*
X-9440249Y-12382290D01*
X-9434217Y-12391455D01*
X-9429228Y-12400848D01*
X-9425248Y-12410402D01*
X-9422240Y-12420049D01*
X-9420170Y-12429721D01*
X-9419002Y-12439351D01*
X-9418700Y-12448870D01*
X-9419230Y-12458211D01*
X-9420556Y-12467305D01*
X-9422643Y-12476086D01*
X-9425454Y-12484485D01*
X-9428956Y-12492435D01*
X-9433112Y-12499867D01*
X-9437888Y-12506713D01*
X-9443247Y-12512907D01*
X-9449154Y-12518380D01*
X-9455575Y-12523064D01*
X-9462473Y-12526892D01*
X-9469814Y-12529795D01*
X-9477561Y-12531706D01*
X-9485680Y-12532557D01*
X-9494135Y-12532280D01*
X-9502892Y-12530808D01*
X-9511913Y-12528072D01*
X-9521165Y-12524005D01*
X-9530611Y-12518538D01*
X-9540217Y-12511605D01*
X-9549546Y-12503514D01*
X-9557048Y-12495125D01*
X-9563257Y-12486450D01*
X-9568702Y-12477499D01*
X-9579425Y-12458818D01*
X-9585765Y-12449111D01*
X-9593465Y-12439175D01*
X-9603057Y-12429023D01*
X-9615071Y-12418665D01*
X-9630038Y-12408113D01*
X-9648490Y-12397380D01*
X-9670957Y-12386475D01*
X-9697970Y-12375412D01*
X-9730060Y-12364202D01*
X-9767759Y-12352855D01*
X-9761134Y-12349471D01*
X-9742541Y-12341156D01*
X-9729357Y-12336012D01*
X-9713902Y-12330671D01*
X-9696416Y-12325476D01*
X-9677139Y-12320774D01*
X-9656312Y-12316910D01*
X-9634175Y-12314227D01*
X-9610969Y-12313071D01*
X-9586933Y-12313788D01*
G37*
G36*
X-11823739Y-10133062D02*
G01*
X-11821268Y-10133244D01*
X-11818812Y-10133542D01*
X-11816379Y-10133952D01*
X-11813977Y-10134471D01*
X-11811615Y-10135094D01*
X-11809298Y-10135818D01*
X-11807036Y-10136639D01*
X-11804836Y-10137553D01*
X-11802706Y-10138556D01*
X-11800653Y-10139645D01*
X-11798685Y-10140815D01*
X-11796811Y-10142062D01*
X-11795037Y-10143383D01*
X-11793371Y-10144774D01*
X-11791822Y-10146230D01*
X-11749489Y-10188564D01*
X-11748033Y-10190113D01*
X-11746642Y-10191778D01*
X-11745321Y-10193552D01*
X-11744074Y-10195426D01*
X-11742904Y-10197394D01*
X-11741816Y-10199447D01*
X-11740812Y-10201577D01*
X-11739898Y-10203777D01*
X-11739077Y-10206039D01*
X-11738353Y-10208356D01*
X-11737730Y-10210718D01*
X-11737211Y-10213120D01*
X-11736801Y-10215553D01*
X-11736503Y-10218009D01*
X-11736322Y-10220480D01*
X-11736260Y-10222959D01*
X-11736260Y-10238834D01*
X-11667468Y-10260001D01*
X-11664771Y-10260806D01*
X-11662138Y-10261732D01*
X-11659571Y-10262774D01*
X-11657071Y-10263928D01*
X-11654641Y-10265191D01*
X-11652283Y-10266559D01*
X-11649999Y-10268027D01*
X-11647790Y-10269592D01*
X-11645659Y-10271250D01*
X-11643607Y-10272997D01*
X-11641636Y-10274830D01*
X-11639749Y-10276744D01*
X-11636233Y-10280801D01*
X-11633073Y-10285136D01*
X-11630285Y-10289720D01*
X-11627884Y-10294521D01*
X-11625887Y-10299508D01*
X-11624308Y-10304649D01*
X-11623164Y-10309915D01*
X-11622469Y-10315274D01*
X-11622295Y-10317979D01*
X-11622239Y-10320695D01*
X-11622303Y-10323419D01*
X-11622489Y-10326147D01*
X-11622559Y-10328859D01*
X-11622764Y-10331538D01*
X-11623102Y-10334182D01*
X-11623569Y-10336787D01*
X-11624163Y-10339351D01*
X-11624879Y-10341872D01*
X-11625714Y-10344348D01*
X-11626665Y-10346776D01*
X-11627728Y-10349153D01*
X-11628901Y-10351478D01*
X-11630179Y-10353747D01*
X-11631559Y-10355959D01*
X-11633038Y-10358110D01*
X-11634612Y-10360199D01*
X-11636279Y-10362223D01*
X-11638034Y-10364180D01*
X-11639874Y-10366067D01*
X-11641797Y-10367882D01*
X-11643797Y-10369622D01*
X-11645873Y-10371286D01*
X-11648021Y-10372869D01*
X-11650237Y-10374371D01*
X-11652517Y-10375789D01*
X-11654860Y-10377120D01*
X-11657260Y-10378362D01*
X-11659715Y-10379512D01*
X-11662222Y-10380568D01*
X-11664777Y-10381528D01*
X-11667376Y-10382389D01*
X-11670016Y-10383149D01*
X-11672694Y-10383805D01*
X-11675406Y-10384355D01*
X-11736260Y-10394938D01*
X-11736260Y-10471668D01*
X-11667468Y-10492834D01*
X-11664771Y-10493640D01*
X-11662138Y-10494565D01*
X-11659571Y-10495607D01*
X-11657071Y-10496762D01*
X-11654641Y-10498025D01*
X-11652283Y-10499392D01*
X-11649999Y-10500860D01*
X-11647790Y-10502426D01*
X-11645659Y-10504084D01*
X-11643607Y-10505831D01*
X-11641636Y-10507664D01*
X-11639749Y-10509578D01*
X-11636233Y-10513634D01*
X-11633073Y-10517970D01*
X-11630285Y-10522554D01*
X-11627884Y-10527354D01*
X-11625887Y-10532341D01*
X-11624308Y-10537483D01*
X-11623164Y-10542749D01*
X-11622469Y-10548107D01*
X-11622295Y-10550812D01*
X-11622239Y-10553528D01*
X-11622303Y-10556252D01*
X-11622489Y-10558980D01*
X-11622559Y-10561693D01*
X-11622764Y-10564372D01*
X-11623102Y-10567015D01*
X-11623569Y-10569620D01*
X-11624163Y-10572185D01*
X-11624879Y-10574706D01*
X-11625714Y-10577181D01*
X-11626665Y-10579609D01*
X-11627728Y-10581987D01*
X-11628901Y-10584311D01*
X-11630179Y-10586580D01*
X-11631559Y-10588792D01*
X-11633038Y-10590944D01*
X-11634612Y-10593033D01*
X-11636279Y-10595057D01*
X-11638034Y-10597014D01*
X-11639874Y-10598901D01*
X-11641797Y-10600716D01*
X-11643797Y-10602456D01*
X-11645873Y-10604119D01*
X-11648021Y-10605703D01*
X-11650237Y-10607205D01*
X-11652517Y-10608623D01*
X-11654860Y-10609954D01*
X-11657260Y-10611196D01*
X-11659715Y-10612346D01*
X-11662222Y-10613402D01*
X-11664777Y-10614362D01*
X-11667376Y-10615223D01*
X-11670016Y-10615983D01*
X-11672694Y-10616639D01*
X-11675406Y-10617189D01*
X-11736260Y-10627772D01*
X-11736260Y-10704501D01*
X-11667468Y-10725668D01*
X-11664771Y-10726473D01*
X-11662138Y-10727399D01*
X-11659571Y-10728441D01*
X-11657071Y-10729595D01*
X-11654641Y-10730858D01*
X-11652283Y-10732225D01*
X-11649999Y-10733694D01*
X-11647790Y-10735259D01*
X-11645659Y-10736917D01*
X-11643607Y-10738664D01*
X-11641636Y-10740497D01*
X-11639749Y-10742411D01*
X-11636233Y-10746467D01*
X-11633073Y-10750803D01*
X-11630285Y-10755387D01*
X-11627884Y-10760187D01*
X-11625887Y-10765174D01*
X-11624308Y-10770316D01*
X-11623164Y-10775582D01*
X-11622469Y-10780941D01*
X-11622295Y-10783645D01*
X-11622239Y-10786362D01*
X-11622303Y-10789086D01*
X-11622489Y-10791814D01*
X-11622559Y-10794526D01*
X-11622764Y-10797205D01*
X-11623102Y-10799849D01*
X-11623569Y-10802454D01*
X-11624163Y-10805018D01*
X-11624879Y-10807539D01*
X-11625714Y-10810015D01*
X-11626665Y-10812443D01*
X-11627728Y-10814820D01*
X-11628901Y-10817144D01*
X-11630179Y-10819414D01*
X-11631559Y-10821625D01*
X-11633038Y-10823777D01*
X-11634612Y-10825866D01*
X-11636279Y-10827890D01*
X-11638034Y-10829847D01*
X-11639874Y-10831734D01*
X-11641797Y-10833549D01*
X-11643797Y-10835289D01*
X-11645873Y-10836952D01*
X-11648021Y-10838536D01*
X-11650237Y-10840038D01*
X-11652517Y-10841456D01*
X-11654860Y-10842787D01*
X-11657260Y-10844028D01*
X-11659715Y-10845179D01*
X-11662222Y-10846235D01*
X-11664777Y-10847195D01*
X-11667376Y-10848056D01*
X-11670016Y-10848815D01*
X-11672694Y-10849472D01*
X-11675406Y-10850022D01*
X-11736260Y-10860605D01*
X-11736260Y-11074917D01*
X-11582802Y-11074917D01*
X-11577137Y-11075056D01*
X-11571555Y-11075467D01*
X-11566064Y-11076145D01*
X-11560669Y-11077083D01*
X-11555377Y-11078274D01*
X-11550194Y-11079714D01*
X-11545126Y-11081394D01*
X-11540179Y-11083310D01*
X-11535361Y-11085454D01*
X-11530677Y-11087820D01*
X-11526133Y-11090403D01*
X-11521736Y-11093195D01*
X-11517492Y-11096191D01*
X-11513408Y-11099384D01*
X-11509489Y-11102768D01*
X-11505742Y-11106337D01*
X-11502174Y-11110084D01*
X-11498790Y-11114002D01*
X-11495597Y-11118087D01*
X-11492601Y-11122331D01*
X-11489808Y-11126728D01*
X-11487226Y-11131271D01*
X-11484859Y-11135955D01*
X-11482715Y-11140774D01*
X-11480799Y-11145720D01*
X-11479119Y-11150788D01*
X-11477680Y-11155971D01*
X-11476488Y-11161264D01*
X-11475550Y-11166658D01*
X-11474872Y-11172150D01*
X-11474461Y-11177731D01*
X-11474323Y-11183397D01*
X-11474323Y-11498251D01*
X-11474509Y-11506681D01*
X-11475067Y-11515092D01*
X-11475997Y-11523464D01*
X-11477299Y-11531778D01*
X-11478974Y-11540015D01*
X-11481020Y-11548154D01*
X-11483438Y-11556178D01*
X-11486229Y-11564066D01*
X-11489392Y-11571798D01*
X-11492926Y-11579357D01*
X-11496833Y-11586721D01*
X-11501112Y-11593873D01*
X-11505763Y-11600791D01*
X-11510786Y-11607458D01*
X-11516181Y-11613854D01*
X-11521948Y-11619959D01*
X-12061698Y-12196751D01*
X-12063247Y-12198673D01*
X-12064912Y-12200471D01*
X-12066686Y-12202146D01*
X-12068560Y-12203696D01*
X-12070528Y-12205122D01*
X-12072581Y-12206424D01*
X-12074711Y-12207603D01*
X-12076911Y-12208657D01*
X-12079173Y-12209587D01*
X-12081490Y-12210393D01*
X-12083852Y-12211075D01*
X-12086254Y-12211633D01*
X-12088687Y-12212068D01*
X-12091143Y-12212378D01*
X-12093614Y-12212564D01*
X-12096093Y-12212626D01*
X-12164884Y-12212626D01*
X-12167364Y-12212564D01*
X-12169835Y-12212378D01*
X-12172291Y-12212068D01*
X-12174723Y-12211634D01*
X-12177125Y-12211075D01*
X-12179488Y-12210393D01*
X-12181804Y-12209587D01*
X-12184066Y-12208657D01*
X-12186267Y-12207603D01*
X-12188397Y-12206425D01*
X-12190450Y-12205122D01*
X-12192417Y-12203696D01*
X-12194292Y-12202146D01*
X-12196066Y-12200472D01*
X-12197731Y-12198673D01*
X-12198521Y-12197727D01*
X-12199280Y-12196751D01*
X-12689183Y-11680813D01*
X-12551176Y-11680813D01*
X-12273363Y-11977146D01*
X-12130488Y-11974501D01*
X-11987613Y-11977146D01*
X-11709800Y-11680813D01*
X-11735680Y-11684699D01*
X-11748775Y-11686487D01*
X-11762055Y-11688089D01*
X-11775584Y-11689443D01*
X-11789423Y-11690487D01*
X-11803635Y-11691159D01*
X-11818280Y-11691396D01*
X-11845215Y-11690765D01*
X-11871413Y-11688952D01*
X-11896821Y-11686077D01*
X-11921385Y-11682260D01*
X-11945048Y-11677622D01*
X-11967759Y-11672281D01*
X-11989462Y-11666360D01*
X-12010103Y-11659977D01*
X-12029627Y-11653254D01*
X-12047981Y-11646309D01*
X-12065111Y-11639264D01*
X-12080961Y-11632238D01*
X-12095478Y-11625351D01*
X-12108608Y-11618724D01*
X-12130488Y-11606730D01*
X-12153236Y-11618724D01*
X-12181503Y-11632238D01*
X-12214855Y-11646309D01*
X-12233302Y-11653254D01*
X-12252858Y-11659977D01*
X-12273468Y-11666360D01*
X-12295078Y-11672281D01*
X-12317633Y-11677622D01*
X-12341080Y-11682260D01*
X-12365364Y-11686077D01*
X-12390431Y-11688952D01*
X-12416227Y-11690765D01*
X-12442696Y-11691396D01*
X-12457341Y-11691267D01*
X-12471552Y-11690859D01*
X-12485391Y-11690141D01*
X-12498920Y-11689081D01*
X-12512201Y-11687650D01*
X-12525296Y-11685815D01*
X-12538267Y-11683547D01*
X-12551176Y-11680813D01*
X-12689183Y-11680813D01*
X-12746966Y-11619959D01*
X-12752297Y-11613854D01*
X-12757369Y-11607459D01*
X-12762169Y-11600792D01*
X-12766686Y-11593873D01*
X-12770909Y-11586722D01*
X-12774825Y-11579357D01*
X-12778424Y-11571799D01*
X-12781693Y-11564066D01*
X-12784621Y-11556178D01*
X-12787197Y-11548155D01*
X-12789408Y-11540015D01*
X-12791243Y-11531779D01*
X-12792690Y-11523464D01*
X-12793739Y-11515092D01*
X-12794376Y-11506681D01*
X-12794591Y-11498251D01*
X-12794591Y-11495605D01*
X-12688759Y-11495605D01*
X-12688729Y-11497093D01*
X-12688640Y-11498582D01*
X-12688498Y-11500070D01*
X-12688304Y-11501558D01*
X-12688065Y-11503046D01*
X-12687783Y-11504535D01*
X-12687462Y-11506023D01*
X-12687106Y-11507511D01*
X-12686305Y-11510488D01*
X-12685411Y-11513464D01*
X-12683468Y-11519417D01*
X-12671598Y-11527918D01*
X-12653991Y-11538807D01*
X-12643105Y-11544807D01*
X-12630866Y-11550997D01*
X-12617302Y-11557242D01*
X-12602439Y-11563405D01*
X-12586305Y-11569351D01*
X-12568927Y-11574944D01*
X-12550332Y-11580049D01*
X-12530547Y-11584530D01*
X-12509599Y-11588251D01*
X-12487516Y-11591077D01*
X-12464324Y-11592872D01*
X-12440051Y-11593501D01*
X-12417954Y-11592960D01*
X-12396348Y-11591408D01*
X-12375293Y-11588949D01*
X-12354847Y-11585687D01*
X-12335067Y-11581728D01*
X-12316012Y-11577176D01*
X-12297740Y-11572136D01*
X-12280309Y-11566712D01*
X-12263777Y-11561009D01*
X-12248202Y-11555131D01*
X-12233643Y-11549184D01*
X-12220157Y-11543271D01*
X-12207804Y-11537498D01*
X-12196639Y-11531970D01*
X-12183062Y-11524709D01*
X-12082863Y-11524709D01*
X-12065097Y-11534616D01*
X-12041936Y-11545917D01*
X-12013937Y-11557777D01*
X-11998299Y-11563655D01*
X-11981660Y-11569358D01*
X-11964092Y-11574782D01*
X-11945663Y-11579822D01*
X-11926443Y-11584374D01*
X-11906502Y-11588333D01*
X-11885910Y-11591595D01*
X-11864737Y-11594054D01*
X-11843053Y-11595606D01*
X-11820926Y-11596147D01*
X-11808656Y-11595979D01*
X-11796653Y-11595489D01*
X-11784920Y-11594695D01*
X-11773461Y-11593615D01*
X-11762279Y-11592267D01*
X-11751378Y-11590670D01*
X-11740760Y-11588843D01*
X-11730430Y-11586804D01*
X-11720391Y-11584570D01*
X-11710645Y-11582162D01*
X-11692050Y-11576892D01*
X-11674672Y-11571142D01*
X-11658538Y-11565058D01*
X-11643675Y-11558789D01*
X-11630111Y-11552480D01*
X-11617872Y-11546280D01*
X-11606985Y-11540336D01*
X-11597479Y-11534795D01*
X-11589379Y-11529805D01*
X-11577509Y-11522063D01*
X-11575566Y-11516110D01*
X-11574672Y-11513134D01*
X-11573871Y-11510157D01*
X-11573515Y-11508669D01*
X-11573194Y-11507180D01*
X-11572912Y-11505692D01*
X-11572672Y-11504204D01*
X-11572479Y-11502716D01*
X-11572336Y-11501227D01*
X-11572248Y-11499739D01*
X-11572217Y-11498251D01*
X-11572217Y-11323626D01*
X-11588547Y-11313725D01*
X-11609590Y-11302459D01*
X-11621801Y-11296586D01*
X-11635097Y-11290698D01*
X-11649448Y-11284902D01*
X-11664822Y-11279308D01*
X-11681187Y-11274024D01*
X-11698515Y-11269159D01*
X-11716772Y-11264821D01*
X-11735928Y-11261118D01*
X-11755953Y-11258160D01*
X-11776815Y-11256054D01*
X-11798483Y-11254909D01*
X-11820926Y-11254834D01*
X-11843024Y-11255375D01*
X-11864629Y-11256927D01*
X-11885684Y-11259386D01*
X-11906130Y-11262648D01*
X-11925910Y-11266607D01*
X-11944965Y-11271159D01*
X-11963237Y-11276199D01*
X-11980668Y-11281623D01*
X-11997200Y-11287327D01*
X-12012775Y-11293204D01*
X-12027334Y-11299151D01*
X-12040819Y-11305064D01*
X-12053173Y-11310837D01*
X-12064337Y-11316365D01*
X-12082863Y-11326272D01*
X-12082863Y-11524709D01*
X-12183062Y-11524709D01*
X-12178113Y-11522063D01*
X-12178113Y-11323626D01*
X-12195880Y-11313719D01*
X-12219041Y-11302418D01*
X-12247039Y-11290558D01*
X-12262678Y-11284681D01*
X-12279316Y-11278977D01*
X-12296885Y-11273553D01*
X-12315314Y-11268513D01*
X-12334534Y-11263961D01*
X-12354475Y-11260002D01*
X-12375066Y-11256740D01*
X-12396240Y-11254281D01*
X-12417924Y-11252729D01*
X-12440051Y-11252188D01*
X-12451135Y-11252326D01*
X-12462058Y-11252729D01*
X-12483402Y-11254281D01*
X-12504041Y-11256740D01*
X-12523932Y-11260002D01*
X-12543032Y-11263961D01*
X-12561299Y-11268513D01*
X-12578690Y-11273553D01*
X-12595163Y-11278977D01*
X-12610674Y-11284681D01*
X-12625182Y-11290558D01*
X-12638643Y-11296505D01*
X-12651015Y-11302418D01*
X-12662255Y-11308191D01*
X-12672321Y-11313719D01*
X-12681170Y-11318899D01*
X-12688759Y-11323626D01*
X-12688759Y-11495605D01*
X-12794591Y-11495605D01*
X-12794591Y-11183397D01*
X-12688759Y-11183397D01*
X-12686113Y-11183397D01*
X-12686113Y-11212501D01*
X-12674713Y-11206558D01*
X-12662383Y-11200677D01*
X-12649185Y-11194921D01*
X-12635181Y-11189350D01*
X-12620432Y-11184027D01*
X-12605002Y-11179015D01*
X-12588951Y-11174374D01*
X-12572342Y-11170168D01*
X-12307759Y-11170168D01*
X-12292630Y-11173789D01*
X-12278004Y-11177681D01*
X-12263890Y-11181806D01*
X-12250295Y-11186125D01*
X-12237227Y-11190599D01*
X-12224694Y-11195189D01*
X-12212704Y-11199857D01*
X-12201264Y-11204564D01*
X-12190382Y-11209270D01*
X-12180067Y-11213938D01*
X-12161163Y-11223002D01*
X-12144617Y-11231446D01*
X-12130488Y-11238959D01*
X-12116251Y-11231446D01*
X-12099441Y-11223002D01*
X-12080212Y-11213938D01*
X-12058720Y-11204564D01*
X-12035119Y-11195189D01*
X-12009565Y-11186125D01*
X-11996104Y-11181806D01*
X-11982213Y-11177681D01*
X-11967911Y-11173789D01*
X-11953217Y-11170168D01*
X-11683343Y-11170168D01*
X-11675002Y-11172213D01*
X-11666843Y-11174374D01*
X-11658862Y-11176644D01*
X-11651055Y-11179014D01*
X-11635950Y-11184027D01*
X-11621497Y-11189350D01*
X-11607663Y-11194920D01*
X-11594418Y-11200677D01*
X-11581731Y-11206558D01*
X-11569572Y-11212501D01*
X-11569572Y-11183397D01*
X-11569587Y-11182660D01*
X-11569633Y-11181940D01*
X-11569709Y-11181236D01*
X-11569815Y-11180549D01*
X-11569949Y-11179880D01*
X-11570113Y-11179228D01*
X-11570304Y-11178595D01*
X-11570523Y-11177981D01*
X-11570769Y-11177386D01*
X-11571041Y-11176811D01*
X-11571340Y-11176257D01*
X-11571665Y-11175723D01*
X-11572014Y-11175210D01*
X-11572389Y-11174720D01*
X-11572787Y-11174251D01*
X-11573210Y-11173806D01*
X-11573655Y-11173383D01*
X-11574124Y-11172985D01*
X-11574614Y-11172610D01*
X-11575127Y-11172261D01*
X-11575661Y-11171936D01*
X-11576215Y-11171637D01*
X-11576790Y-11171365D01*
X-11577385Y-11171118D01*
X-11577999Y-11170900D01*
X-11578632Y-11170708D01*
X-11579284Y-11170545D01*
X-11579953Y-11170410D01*
X-11580640Y-11170305D01*
X-11581344Y-11170229D01*
X-11582064Y-11170183D01*
X-11582801Y-11170168D01*
X-11683343Y-11170168D01*
X-11953217Y-11170168D01*
X-12307759Y-11170168D01*
X-12572342Y-11170168D01*
X-12675530Y-11170168D01*
X-12676266Y-11170183D01*
X-12676987Y-11170229D01*
X-12677690Y-11170305D01*
X-12678377Y-11170410D01*
X-12679047Y-11170545D01*
X-12679698Y-11170708D01*
X-12680331Y-11170900D01*
X-12680946Y-11171118D01*
X-12681540Y-11171364D01*
X-12682115Y-11171637D01*
X-12682670Y-11171936D01*
X-12683204Y-11172260D01*
X-12683716Y-11172610D01*
X-12684207Y-11172985D01*
X-12684675Y-11173383D01*
X-12685121Y-11173806D01*
X-12685543Y-11174251D01*
X-12685942Y-11174720D01*
X-12686317Y-11175210D01*
X-12686666Y-11175723D01*
X-12686991Y-11176256D01*
X-12687290Y-11176811D01*
X-12687562Y-11177386D01*
X-12687808Y-11177981D01*
X-12688027Y-11178595D01*
X-12688219Y-11179228D01*
X-12688382Y-11179880D01*
X-12688516Y-11180549D01*
X-12688622Y-11181236D01*
X-12688698Y-11181940D01*
X-12688744Y-11182660D01*
X-12688759Y-11183397D01*
X-12794591Y-11183397D01*
X-12794453Y-11177964D01*
X-12794042Y-11172586D01*
X-12793364Y-11167270D01*
X-12792426Y-11162023D01*
X-12791234Y-11156854D01*
X-12789795Y-11151771D01*
X-12788115Y-11146780D01*
X-12786199Y-11141890D01*
X-12784055Y-11137109D01*
X-12781688Y-11132444D01*
X-12779106Y-11127903D01*
X-12776313Y-11123493D01*
X-12773318Y-11119224D01*
X-12770124Y-11115101D01*
X-12766741Y-11111134D01*
X-12763172Y-11107329D01*
X-12759425Y-11103695D01*
X-12755507Y-11100239D01*
X-12751422Y-11096969D01*
X-12747178Y-11093893D01*
X-12742781Y-11091019D01*
X-12738238Y-11088353D01*
X-12733553Y-11085905D01*
X-12728735Y-11083682D01*
X-12723789Y-11081691D01*
X-12718721Y-11079940D01*
X-12713537Y-11078438D01*
X-12708245Y-11077191D01*
X-12702850Y-11076208D01*
X-12697359Y-11075496D01*
X-12691778Y-11075063D01*
X-12686112Y-11074917D01*
X-12532654Y-11074917D01*
X-12429467Y-11074917D01*
X-11834155Y-11074917D01*
X-11834155Y-10876480D01*
X-12429467Y-10969084D01*
X-12429467Y-11074917D01*
X-12532654Y-11074917D01*
X-12532654Y-11006126D01*
X-12598800Y-10990251D01*
X-12601497Y-10989453D01*
X-12604131Y-10988549D01*
X-12606700Y-10987541D01*
X-12609203Y-10986432D01*
X-12611637Y-10985224D01*
X-12614003Y-10983920D01*
X-12618520Y-10981032D01*
X-12622742Y-10977787D01*
X-12626659Y-10974205D01*
X-12630258Y-10970306D01*
X-12633527Y-10966108D01*
X-12636455Y-10961630D01*
X-12639030Y-10956894D01*
X-12641241Y-10951917D01*
X-12643077Y-10946719D01*
X-12644524Y-10941319D01*
X-12645573Y-10935737D01*
X-12646210Y-10929993D01*
X-12646425Y-10924105D01*
X-12646116Y-10921152D01*
X-12645685Y-10918247D01*
X-12645136Y-10915393D01*
X-12644472Y-10912591D01*
X-12643695Y-10909844D01*
X-12642809Y-10907153D01*
X-12641816Y-10904519D01*
X-12640720Y-10901946D01*
X-12639523Y-10899435D01*
X-12638228Y-10896988D01*
X-12636838Y-10894607D01*
X-12635356Y-10892293D01*
X-12633785Y-10890049D01*
X-12632128Y-10887877D01*
X-12630387Y-10885779D01*
X-12628566Y-10883756D01*
X-12626667Y-10881811D01*
X-12624694Y-10879945D01*
X-12622649Y-10878161D01*
X-12620535Y-10876460D01*
X-12618356Y-10874844D01*
X-12616113Y-10873315D01*
X-12613810Y-10871875D01*
X-12611451Y-10870527D01*
X-12609036Y-10869272D01*
X-12606571Y-10868111D01*
X-12604057Y-10867048D01*
X-12601498Y-10866083D01*
X-12598896Y-10865219D01*
X-12596254Y-10864458D01*
X-12593575Y-10863801D01*
X-12590863Y-10863251D01*
X-12530009Y-10852667D01*
X-12530009Y-10836793D01*
X-12429467Y-10836793D01*
X-11834155Y-10744188D01*
X-11834155Y-10643647D01*
X-12429467Y-10736251D01*
X-12429467Y-10836793D01*
X-12530009Y-10836793D01*
X-12530009Y-10773293D01*
X-12596155Y-10757418D01*
X-12598852Y-10756620D01*
X-12601486Y-10755716D01*
X-12604055Y-10754708D01*
X-12606558Y-10753599D01*
X-12608992Y-10752391D01*
X-12611358Y-10751087D01*
X-12615875Y-10748199D01*
X-12620097Y-10744954D01*
X-12624014Y-10741372D01*
X-12627613Y-10737473D01*
X-12630882Y-10733275D01*
X-12633810Y-10728797D01*
X-12636385Y-10724061D01*
X-12638596Y-10719084D01*
X-12640432Y-10713886D01*
X-12641879Y-10708486D01*
X-12642927Y-10702904D01*
X-12643565Y-10697160D01*
X-12643780Y-10691272D01*
X-12643471Y-10688319D01*
X-12643040Y-10685414D01*
X-12642491Y-10682560D01*
X-12641827Y-10679759D01*
X-12641050Y-10677011D01*
X-12640164Y-10674320D01*
X-12639171Y-10671686D01*
X-12638075Y-10669113D01*
X-12636878Y-10666602D01*
X-12635583Y-10664155D01*
X-12634193Y-10661774D01*
X-12632711Y-10659460D01*
X-12631140Y-10657216D01*
X-12629482Y-10655044D01*
X-12627742Y-10652946D01*
X-12625921Y-10650923D01*
X-12624022Y-10648978D01*
X-12622049Y-10647112D01*
X-12620004Y-10645328D01*
X-12617890Y-10643626D01*
X-12615710Y-10642011D01*
X-12613468Y-10640482D01*
X-12611165Y-10639042D01*
X-12608805Y-10637694D01*
X-12606391Y-10636439D01*
X-12603926Y-10635278D01*
X-12601412Y-10634215D01*
X-12598853Y-10633250D01*
X-12596251Y-10632386D01*
X-12593609Y-10631625D01*
X-12590930Y-10630968D01*
X-12588218Y-10630418D01*
X-12527363Y-10619834D01*
X-12527363Y-10603959D01*
X-12429467Y-10603959D01*
X-11834155Y-10511355D01*
X-11834155Y-10410813D01*
X-12429467Y-10503418D01*
X-12429467Y-10603959D01*
X-12527363Y-10603959D01*
X-12527363Y-10540459D01*
X-12593509Y-10524584D01*
X-12596206Y-10523786D01*
X-12598840Y-10522882D01*
X-12601409Y-10521875D01*
X-12603912Y-10520766D01*
X-12606346Y-10519558D01*
X-12608712Y-10518254D01*
X-12613229Y-10515365D01*
X-12617452Y-10512121D01*
X-12621368Y-10508539D01*
X-12624967Y-10504640D01*
X-12628236Y-10500441D01*
X-12631164Y-10495964D01*
X-12633739Y-10491228D01*
X-12635950Y-10486251D01*
X-12637786Y-10481052D01*
X-12639233Y-10475653D01*
X-12640282Y-10470071D01*
X-12640919Y-10464327D01*
X-12641134Y-10458439D01*
X-12640825Y-10455486D01*
X-12640394Y-10452581D01*
X-12639845Y-10449727D01*
X-12639181Y-10446925D01*
X-12638404Y-10444178D01*
X-12637518Y-10441486D01*
X-12636525Y-10438853D01*
X-12635429Y-10436280D01*
X-12634232Y-10433769D01*
X-12632937Y-10431322D01*
X-12631547Y-10428940D01*
X-12630065Y-10426627D01*
X-12628494Y-10424383D01*
X-12626836Y-10422211D01*
X-12625096Y-10420113D01*
X-12623275Y-10418090D01*
X-12621376Y-10416145D01*
X-12619403Y-10414279D01*
X-12617358Y-10412494D01*
X-12615244Y-10410793D01*
X-12613064Y-10409177D01*
X-12610822Y-10407649D01*
X-12608519Y-10406209D01*
X-12606159Y-10404861D01*
X-12603745Y-10403605D01*
X-12601280Y-10402445D01*
X-12598766Y-10401381D01*
X-12596207Y-10400417D01*
X-12593605Y-10399553D01*
X-12590963Y-10398791D01*
X-12588284Y-10398135D01*
X-12585572Y-10397585D01*
X-12524717Y-10387001D01*
X-12524717Y-10371126D01*
X-12432114Y-10371126D01*
X-11836801Y-10278522D01*
X-11836801Y-10244126D01*
X-11850030Y-10230897D01*
X-12416238Y-10230897D01*
X-12429467Y-10244126D01*
X-12432114Y-10244126D01*
X-12432114Y-10371126D01*
X-12524717Y-10371126D01*
X-12524717Y-10222959D01*
X-12524656Y-10220480D01*
X-12524474Y-10218009D01*
X-12524177Y-10215553D01*
X-12523767Y-10213120D01*
X-12523248Y-10210719D01*
X-12522625Y-10208356D01*
X-12521900Y-10206039D01*
X-12521080Y-10203777D01*
X-12520166Y-10201577D01*
X-12519162Y-10199447D01*
X-12518074Y-10197394D01*
X-12516904Y-10195426D01*
X-12515657Y-10193552D01*
X-12514336Y-10191778D01*
X-12512945Y-10190113D01*
X-12511488Y-10188564D01*
X-12469155Y-10146230D01*
X-12467606Y-10144774D01*
X-12465941Y-10143383D01*
X-12464167Y-10142062D01*
X-12462293Y-10140815D01*
X-12460325Y-10139645D01*
X-12458272Y-10138556D01*
X-12456142Y-10137553D01*
X-12453942Y-10136639D01*
X-12451680Y-10135818D01*
X-12449363Y-10135094D01*
X-12447000Y-10134471D01*
X-12444599Y-10133952D01*
X-12442166Y-10133542D01*
X-12439710Y-10133244D01*
X-12437239Y-10133062D01*
X-12434760Y-10133001D01*
X-11826218Y-10133001D01*
X-11823739Y-10133062D01*
G37*
G36*
X-12122111Y-8341980D02*
G01*
X-12113851Y-8342596D01*
X-12105720Y-8343612D01*
X-12097725Y-8345017D01*
X-12089879Y-8346802D01*
X-12082189Y-8348958D01*
X-12074666Y-8351473D01*
X-12067319Y-8354340D01*
X-12060158Y-8357547D01*
X-12053193Y-8361086D01*
X-12046434Y-8364947D01*
X-12039889Y-8369119D01*
X-12033569Y-8373594D01*
X-12027484Y-8378361D01*
X-12021643Y-8383412D01*
X-12016056Y-8388735D01*
X-12010732Y-8394323D01*
X-12005682Y-8400164D01*
X-12000914Y-8406249D01*
X-11996440Y-8412569D01*
X-11992267Y-8419113D01*
X-11988406Y-8425873D01*
X-11984868Y-8432838D01*
X-11981660Y-8439998D01*
X-11978794Y-8447345D01*
X-11976278Y-8454868D01*
X-11974123Y-8462558D01*
X-11972338Y-8470405D01*
X-11970932Y-8478399D01*
X-11969917Y-8486531D01*
X-11969300Y-8494790D01*
X-11969092Y-8503168D01*
X-11969092Y-9323376D01*
X-11969300Y-9331754D01*
X-11969917Y-9340013D01*
X-11970932Y-9348145D01*
X-11972338Y-9356139D01*
X-11974123Y-9363986D01*
X-11976278Y-9371675D01*
X-11978794Y-9379199D01*
X-11981660Y-9386545D01*
X-11984868Y-9393706D01*
X-11988406Y-9400671D01*
X-11992267Y-9407431D01*
X-11996440Y-9413975D01*
X-12000914Y-9420295D01*
X-12005682Y-9426380D01*
X-12010732Y-9432221D01*
X-12016056Y-9437808D01*
X-12021643Y-9443132D01*
X-12027484Y-9448182D01*
X-12033569Y-9452950D01*
X-12039889Y-9457425D01*
X-12046434Y-9461597D01*
X-12053193Y-9465458D01*
X-12060158Y-9468997D01*
X-12067319Y-9472204D01*
X-12074666Y-9475071D01*
X-12082189Y-9477586D01*
X-12089879Y-9479742D01*
X-12097725Y-9481527D01*
X-12105720Y-9482932D01*
X-12113851Y-9483948D01*
X-12122111Y-9484564D01*
X-12130488Y-9484772D01*
X-12138866Y-9484557D01*
X-12147126Y-9483919D01*
X-12155257Y-9482869D01*
X-12163251Y-9481418D01*
X-12171098Y-9479578D01*
X-12178788Y-9477360D01*
X-12186311Y-9474774D01*
X-12193658Y-9471832D01*
X-12200818Y-9468545D01*
X-12207783Y-9464925D01*
X-12214543Y-9460982D01*
X-12221088Y-9456727D01*
X-12227407Y-9452172D01*
X-12233492Y-9447328D01*
X-12239333Y-9442205D01*
X-12244921Y-9436816D01*
X-12250244Y-9431171D01*
X-12255295Y-9425281D01*
X-12260062Y-9419158D01*
X-12264537Y-9412812D01*
X-12268710Y-9406256D01*
X-12272570Y-9399499D01*
X-12276109Y-9392553D01*
X-12279316Y-9385429D01*
X-12282183Y-9378139D01*
X-12284699Y-9370693D01*
X-12286854Y-9363103D01*
X-12288639Y-9355379D01*
X-12290044Y-9347534D01*
X-12291060Y-9339577D01*
X-12291677Y-9331521D01*
X-12291884Y-9323376D01*
X-12291884Y-8503168D01*
X-12291677Y-8494790D01*
X-12291060Y-8486531D01*
X-12290044Y-8478399D01*
X-12288639Y-8470405D01*
X-12286854Y-8462558D01*
X-12284699Y-8454868D01*
X-12282183Y-8447345D01*
X-12279317Y-8439999D01*
X-12276109Y-8432838D01*
X-12272570Y-8425873D01*
X-12268710Y-8419113D01*
X-12264537Y-8412569D01*
X-12260062Y-8406249D01*
X-12255295Y-8400164D01*
X-12250244Y-8394323D01*
X-12244921Y-8388736D01*
X-12239334Y-8383412D01*
X-12233493Y-8378362D01*
X-12227407Y-8373594D01*
X-12221088Y-8369119D01*
X-12214543Y-8364947D01*
X-12207784Y-8361086D01*
X-12200819Y-8357547D01*
X-12193658Y-8354340D01*
X-12186311Y-8351473D01*
X-12178788Y-8348958D01*
X-12171098Y-8346802D01*
X-12163251Y-8345017D01*
X-12155257Y-8343612D01*
X-12147126Y-8342596D01*
X-12138866Y-8341980D01*
X-12130488Y-8341772D01*
X-12122111Y-8341980D01*
G37*
G36*
X-14639461Y-12313436D02*
G01*
X-14627964Y-12314227D01*
X-14616721Y-12315399D01*
X-14605763Y-12316909D01*
X-14595122Y-12318716D01*
X-14584829Y-12320774D01*
X-14565415Y-12325476D01*
X-14547772Y-12330670D01*
X-14532152Y-12336012D01*
X-14518808Y-12341155D01*
X-14507990Y-12345756D01*
X-14499951Y-12349470D01*
X-14493217Y-12352855D01*
X-14512801Y-12358544D01*
X-14530916Y-12364201D01*
X-14547629Y-12369824D01*
X-14563006Y-12375412D01*
X-14577114Y-12380962D01*
X-14590020Y-12386475D01*
X-14601788Y-12391948D01*
X-14612487Y-12397379D01*
X-14622181Y-12402768D01*
X-14630938Y-12408113D01*
X-14638824Y-12413412D01*
X-14645906Y-12418665D01*
X-14652249Y-12423869D01*
X-14657920Y-12429023D01*
X-14662985Y-12434125D01*
X-14667512Y-12439175D01*
X-14671565Y-12444171D01*
X-14675212Y-12449111D01*
X-14678519Y-12453993D01*
X-14681552Y-12458817D01*
X-14692275Y-12477499D01*
X-14697720Y-12486450D01*
X-14700695Y-12490823D01*
X-14703928Y-12495125D01*
X-14707484Y-12499356D01*
X-14711431Y-12503514D01*
X-14715834Y-12507598D01*
X-14720759Y-12511605D01*
X-14730365Y-12518538D01*
X-14739812Y-12524005D01*
X-14749063Y-12528072D01*
X-14758085Y-12530808D01*
X-14766841Y-12532280D01*
X-14775296Y-12532557D01*
X-14783415Y-12531706D01*
X-14791163Y-12529795D01*
X-14798504Y-12526892D01*
X-14805402Y-12523064D01*
X-14811822Y-12518380D01*
X-14817730Y-12512907D01*
X-14823089Y-12506713D01*
X-14827864Y-12499867D01*
X-14832020Y-12492435D01*
X-14835522Y-12484485D01*
X-14838334Y-12476086D01*
X-14840420Y-12467305D01*
X-14841746Y-12458211D01*
X-14842276Y-12448870D01*
X-14841975Y-12439351D01*
X-14840807Y-12429721D01*
X-14838736Y-12420049D01*
X-14835729Y-12410402D01*
X-14831748Y-12400848D01*
X-14826760Y-12391454D01*
X-14820727Y-12382290D01*
X-14813616Y-12373422D01*
X-14805391Y-12364918D01*
X-14796016Y-12356846D01*
X-14785456Y-12349275D01*
X-14773676Y-12342271D01*
X-14761465Y-12336016D01*
X-14749161Y-12330617D01*
X-14736796Y-12326032D01*
X-14724402Y-12322216D01*
X-14712010Y-12319126D01*
X-14699651Y-12316721D01*
X-14687357Y-12314955D01*
X-14675160Y-12313787D01*
X-14663090Y-12313174D01*
X-14651180Y-12313071D01*
X-14639461Y-12313436D01*
G37*
G36*
X-14340568Y-12068715D02*
G01*
X-14329205Y-12070451D01*
X-14317717Y-12073325D01*
X-14306159Y-12077393D01*
X-14294590Y-12082716D01*
X-14283066Y-12089351D01*
X-14271645Y-12097357D01*
X-14260384Y-12106792D01*
X-14249425Y-12117419D01*
X-14239347Y-12128433D01*
X-14230113Y-12139786D01*
X-14221689Y-12151430D01*
X-14214040Y-12163319D01*
X-14207131Y-12175404D01*
X-14200928Y-12187639D01*
X-14195396Y-12199975D01*
X-14190499Y-12212366D01*
X-14186202Y-12224763D01*
X-14182472Y-12237120D01*
X-14179273Y-12249388D01*
X-14176569Y-12261521D01*
X-14174327Y-12273471D01*
X-14171087Y-12296631D01*
X-14169273Y-12318489D01*
X-14168607Y-12338665D01*
X-14168808Y-12356779D01*
X-14169599Y-12372451D01*
X-14171831Y-12394951D01*
X-14173072Y-12403126D01*
X-14185694Y-12385038D01*
X-14197781Y-12368433D01*
X-14209351Y-12353242D01*
X-14220428Y-12339398D01*
X-14231031Y-12326834D01*
X-14241184Y-12315480D01*
X-14250906Y-12305270D01*
X-14260219Y-12296135D01*
X-14269144Y-12288008D01*
X-14277703Y-12280821D01*
X-14285918Y-12274505D01*
X-14293808Y-12268994D01*
X-14301397Y-12264220D01*
X-14308704Y-12260114D01*
X-14315752Y-12256608D01*
X-14322561Y-12253636D01*
X-14329153Y-12251129D01*
X-14335550Y-12249019D01*
X-14341772Y-12247238D01*
X-14347841Y-12245719D01*
X-14371013Y-12240903D01*
X-14382234Y-12238301D01*
X-14387829Y-12236714D01*
X-14393440Y-12234847D01*
X-14399091Y-12232630D01*
X-14404801Y-12229997D01*
X-14410593Y-12226879D01*
X-14416488Y-12223209D01*
X-14426854Y-12215584D01*
X-14435664Y-12207629D01*
X-14442976Y-12199405D01*
X-14448848Y-12190968D01*
X-14453336Y-12182379D01*
X-14456497Y-12173695D01*
X-14458389Y-12164975D01*
X-14459069Y-12156278D01*
X-14458595Y-12147662D01*
X-14457022Y-12139186D01*
X-14454408Y-12130909D01*
X-14450812Y-12122890D01*
X-14446288Y-12115186D01*
X-14440896Y-12107856D01*
X-14434692Y-12100960D01*
X-14427733Y-12094555D01*
X-14420076Y-12088701D01*
X-14411779Y-12083456D01*
X-14402899Y-12078878D01*
X-14393492Y-12075027D01*
X-14383617Y-12071960D01*
X-14373329Y-12069737D01*
X-14362687Y-12068416D01*
X-14351748Y-12068056D01*
X-14340568Y-12068715D01*
G37*
G36*
X-9898289Y-12069398D02*
G01*
X-9887647Y-12070597D01*
X-9877360Y-12072708D01*
X-9867484Y-12075673D01*
X-9858078Y-12079432D01*
X-9849197Y-12083927D01*
X-9840900Y-12089098D01*
X-9833243Y-12094886D01*
X-9826284Y-12101233D01*
X-9820080Y-12108078D01*
X-9814688Y-12115363D01*
X-9810165Y-12123029D01*
X-9806568Y-12131017D01*
X-9803954Y-12139267D01*
X-9802382Y-12147721D01*
X-9801907Y-12156319D01*
X-9802587Y-12165003D01*
X-9804479Y-12173712D01*
X-9807640Y-12182389D01*
X-9812128Y-12190973D01*
X-9818000Y-12199407D01*
X-9825312Y-12207630D01*
X-9834123Y-12215584D01*
X-9844488Y-12223209D01*
X-9850383Y-12226879D01*
X-9856175Y-12229997D01*
X-9867536Y-12234852D01*
X-9878742Y-12238319D01*
X-9889963Y-12240944D01*
X-9913135Y-12245859D01*
X-9925426Y-12249240D01*
X-9938415Y-12253967D01*
X-9952272Y-12260585D01*
X-9959580Y-12264774D01*
X-9967168Y-12269640D01*
X-9975059Y-12275253D01*
X-9983273Y-12281680D01*
X-9991832Y-12288990D01*
X-10000758Y-12297251D01*
X-10010071Y-12306531D01*
X-10019793Y-12316899D01*
X-10029945Y-12328423D01*
X-10040549Y-12341171D01*
X-10051625Y-12355212D01*
X-10063196Y-12370613D01*
X-10075282Y-12387444D01*
X-10087905Y-12405772D01*
X-10089037Y-12397597D01*
X-10091005Y-12375097D01*
X-10091635Y-12359424D01*
X-10091672Y-12341311D01*
X-10090849Y-12321135D01*
X-10088897Y-12299277D01*
X-10085550Y-12276117D01*
X-10080541Y-12252034D01*
X-10073601Y-12227409D01*
X-10064464Y-12202621D01*
X-10058988Y-12190285D01*
X-10052862Y-12178050D01*
X-10046053Y-12165965D01*
X-10038528Y-12154076D01*
X-10030253Y-12142432D01*
X-10021194Y-12131079D01*
X-10011318Y-12120065D01*
X-10000592Y-12109438D01*
X-9989331Y-12099762D01*
X-9977910Y-12091531D01*
X-9966386Y-12084685D01*
X-9954817Y-12079166D01*
X-9943260Y-12074914D01*
X-9931771Y-12071871D01*
X-9920408Y-12069976D01*
X-9909228Y-12069172D01*
X-9898289Y-12069398D01*
G37*
G36*
X-14404019Y-12528493D02*
G01*
X-14378760Y-12530140D01*
X-14354124Y-12532568D01*
X-14330185Y-12535681D01*
X-14307017Y-12539386D01*
X-14263289Y-12548189D01*
X-14223534Y-12558217D01*
X-14188344Y-12568710D01*
X-14158313Y-12578908D01*
X-14116098Y-12595383D01*
X-14101634Y-12601563D01*
X-14144609Y-12616315D01*
X-14184336Y-12630810D01*
X-14220962Y-12645054D01*
X-14254633Y-12659053D01*
X-14285495Y-12672814D01*
X-14313697Y-12686343D01*
X-14339384Y-12699646D01*
X-14362703Y-12712730D01*
X-14383802Y-12725600D01*
X-14402827Y-12738264D01*
X-14419924Y-12750727D01*
X-14435242Y-12762995D01*
X-14448925Y-12775076D01*
X-14461122Y-12786975D01*
X-14471978Y-12798699D01*
X-14481642Y-12810253D01*
X-14490259Y-12821645D01*
X-14497976Y-12832881D01*
X-14504941Y-12843966D01*
X-14511299Y-12854907D01*
X-14533608Y-12897359D01*
X-14544942Y-12917886D01*
X-14551168Y-12927996D01*
X-14557963Y-12938013D01*
X-14565472Y-12947943D01*
X-14573844Y-12957792D01*
X-14583224Y-12967566D01*
X-14593759Y-12977272D01*
X-14614511Y-12993450D01*
X-14635039Y-13006365D01*
X-14655260Y-13016162D01*
X-14675087Y-13022990D01*
X-14694438Y-13026994D01*
X-14713228Y-13028321D01*
X-14731373Y-13027118D01*
X-14748788Y-13023532D01*
X-14765389Y-13017710D01*
X-14781092Y-13009799D01*
X-14795813Y-12999944D01*
X-14809467Y-12988294D01*
X-14821969Y-12974995D01*
X-14833237Y-12960193D01*
X-14843184Y-12944036D01*
X-14851728Y-12926670D01*
X-14858783Y-12908242D01*
X-14864266Y-12888899D01*
X-14868091Y-12868788D01*
X-14870176Y-12848055D01*
X-14870435Y-12826847D01*
X-14868785Y-12805311D01*
X-14865140Y-12783594D01*
X-14859417Y-12761843D01*
X-14851531Y-12740204D01*
X-14841399Y-12718824D01*
X-14828935Y-12697850D01*
X-14814056Y-12677429D01*
X-14796676Y-12657708D01*
X-14776713Y-12638833D01*
X-14754081Y-12620951D01*
X-14728697Y-12604209D01*
X-14701749Y-12589078D01*
X-14674535Y-12575867D01*
X-14647128Y-12564482D01*
X-14619602Y-12554827D01*
X-14592032Y-12546808D01*
X-14564491Y-12540329D01*
X-14537054Y-12535296D01*
X-14509795Y-12531614D01*
X-14482788Y-12529188D01*
X-14456107Y-12527922D01*
X-14429826Y-12527722D01*
X-14404019Y-12528493D01*
G37*
G36*
X-12831049Y-11640063D02*
G01*
X-12828704Y-11640185D01*
X-12826361Y-11640419D01*
X-12824025Y-11640765D01*
X-12821702Y-11641221D01*
X-12819397Y-11641787D01*
X-12817115Y-11642461D01*
X-12814862Y-11643243D01*
X-12812642Y-11644131D01*
X-12810462Y-11645125D01*
X-12808327Y-11646224D01*
X-12806241Y-11647426D01*
X-12804211Y-11648731D01*
X-12802241Y-11650138D01*
X-12800337Y-11651645D01*
X-12798504Y-11653253D01*
X-12796747Y-11654959D01*
X-12795073Y-11656763D01*
X-12793486Y-11658664D01*
X-12791991Y-11660661D01*
X-12790594Y-11662752D01*
X-12789301Y-11664938D01*
X-12788122Y-11667185D01*
X-12787067Y-11669460D01*
X-12786134Y-11671757D01*
X-12785322Y-11674074D01*
X-12784630Y-11676407D01*
X-12784057Y-11678751D01*
X-12783602Y-11681103D01*
X-12783265Y-11683459D01*
X-12783044Y-11685815D01*
X-12782938Y-11688167D01*
X-12782947Y-11690511D01*
X-12783069Y-11692843D01*
X-12783303Y-11695160D01*
X-12783649Y-11697458D01*
X-12784105Y-11699733D01*
X-12784670Y-11701980D01*
X-12785345Y-11704196D01*
X-12786126Y-11706378D01*
X-12787015Y-11708520D01*
X-12788009Y-11710620D01*
X-12789107Y-11712674D01*
X-12790310Y-11714677D01*
X-12791615Y-11716626D01*
X-12793021Y-11718516D01*
X-12794529Y-11720345D01*
X-12796136Y-11722108D01*
X-12797842Y-11723801D01*
X-12799646Y-11725420D01*
X-12801547Y-11726962D01*
X-12803544Y-11728423D01*
X-12805636Y-11729798D01*
X-12807822Y-11731084D01*
X-12871949Y-11765109D01*
X-12937979Y-11796785D01*
X-13005397Y-11826183D01*
X-13073687Y-11853371D01*
X-13142333Y-11878420D01*
X-13210820Y-11901399D01*
X-13278633Y-11922378D01*
X-13345256Y-11941428D01*
X-13472871Y-11974015D01*
X-13589541Y-11999719D01*
X-13691142Y-12019097D01*
X-13773551Y-12032709D01*
X-13737625Y-12061172D01*
X-13690538Y-12094721D01*
X-13631048Y-12132982D01*
X-13557915Y-12175584D01*
X-13469900Y-12222155D01*
X-13365762Y-12272322D01*
X-13244260Y-12325714D01*
X-13104155Y-12381959D01*
X-13055984Y-12399979D01*
X-13008255Y-12416858D01*
X-12914410Y-12447340D01*
X-12823184Y-12473697D01*
X-12735144Y-12496226D01*
X-12650856Y-12515219D01*
X-12570885Y-12530973D01*
X-12495798Y-12543781D01*
X-12426160Y-12553938D01*
X-12362538Y-12561738D01*
X-12305496Y-12567477D01*
X-12255601Y-12571448D01*
X-12213419Y-12573947D01*
X-12154456Y-12575704D01*
X-12133134Y-12575104D01*
X-12127842Y-12575104D01*
X-12024572Y-12571342D01*
X-11929250Y-12563524D01*
X-11809681Y-12548977D01*
X-11669524Y-12525624D01*
X-11592869Y-12509997D01*
X-11512438Y-12491389D01*
X-11428690Y-12469540D01*
X-11342082Y-12444192D01*
X-11253071Y-12415085D01*
X-11162114Y-12381959D01*
X-11089658Y-12353939D01*
X-11022008Y-12326474D01*
X-10959010Y-12299621D01*
X-10900507Y-12273438D01*
X-10846345Y-12247984D01*
X-10796368Y-12223317D01*
X-10750423Y-12199495D01*
X-10708353Y-12176576D01*
X-10670004Y-12154618D01*
X-10635221Y-12133679D01*
X-10603848Y-12113818D01*
X-10575731Y-12095093D01*
X-10550714Y-12077561D01*
X-10528643Y-12061281D01*
X-10509363Y-12046311D01*
X-10492718Y-12032709D01*
X-10575126Y-12019097D01*
X-10676727Y-11999719D01*
X-10793397Y-11974015D01*
X-10921012Y-11941428D01*
X-11055448Y-11901399D01*
X-11123935Y-11878420D01*
X-11192582Y-11853371D01*
X-11260871Y-11826183D01*
X-11328289Y-11796785D01*
X-11394319Y-11765109D01*
X-11458446Y-11731084D01*
X-11460632Y-11729798D01*
X-11462724Y-11728423D01*
X-11464721Y-11726962D01*
X-11466622Y-11725420D01*
X-11468426Y-11723801D01*
X-11470132Y-11722108D01*
X-11471739Y-11720345D01*
X-11473247Y-11718516D01*
X-11474653Y-11716626D01*
X-11475958Y-11714677D01*
X-11477161Y-11712674D01*
X-11478259Y-11710620D01*
X-11479253Y-11708520D01*
X-11480142Y-11706378D01*
X-11480923Y-11704196D01*
X-11481597Y-11701980D01*
X-11482163Y-11699733D01*
X-11482619Y-11697458D01*
X-11482965Y-11695160D01*
X-11483199Y-11692843D01*
X-11483321Y-11690511D01*
X-11483330Y-11688167D01*
X-11483224Y-11685815D01*
X-11483003Y-11683459D01*
X-11482666Y-11681103D01*
X-11482211Y-11678751D01*
X-11481638Y-11676407D01*
X-11480946Y-11674074D01*
X-11480134Y-11671757D01*
X-11479201Y-11669460D01*
X-11478146Y-11667185D01*
X-11476967Y-11664938D01*
X-11475681Y-11662752D01*
X-11474306Y-11660661D01*
X-11472845Y-11658664D01*
X-11471304Y-11656763D01*
X-11469684Y-11654959D01*
X-11467991Y-11653253D01*
X-11466228Y-11651645D01*
X-11464400Y-11650138D01*
X-11462509Y-11648731D01*
X-11460560Y-11647426D01*
X-11458557Y-11646224D01*
X-11456504Y-11645125D01*
X-11454404Y-11644131D01*
X-11452261Y-11643243D01*
X-11450080Y-11642461D01*
X-11447863Y-11641787D01*
X-11445616Y-11641221D01*
X-11443342Y-11640765D01*
X-11441044Y-11640419D01*
X-11438727Y-11640185D01*
X-11436394Y-11640063D01*
X-11434050Y-11640055D01*
X-11431698Y-11640160D01*
X-11429342Y-11640382D01*
X-11426987Y-11640719D01*
X-11424635Y-11641174D01*
X-11422290Y-11641746D01*
X-11419958Y-11642438D01*
X-11417641Y-11643250D01*
X-11415343Y-11644184D01*
X-11413069Y-11645239D01*
X-11410821Y-11646417D01*
X-11372103Y-11667295D01*
X-11332437Y-11687273D01*
X-11250816Y-11724599D01*
X-11167063Y-11758521D01*
X-11082284Y-11789168D01*
X-10997581Y-11816668D01*
X-10914061Y-11841149D01*
X-10832828Y-11862739D01*
X-10754986Y-11881565D01*
X-10681640Y-11897756D01*
X-10613894Y-11911440D01*
X-10499622Y-11931795D01*
X-10386884Y-11948042D01*
X-10384900Y-11948103D01*
X-10382921Y-11948285D01*
X-10380948Y-11948583D01*
X-10378988Y-11948993D01*
X-10377043Y-11949512D01*
X-10375117Y-11950135D01*
X-10373215Y-11950859D01*
X-10371340Y-11951680D01*
X-10369496Y-11952594D01*
X-10367686Y-11953597D01*
X-10365916Y-11954686D01*
X-10364188Y-11955855D01*
X-10362507Y-11957103D01*
X-10360875Y-11958424D01*
X-10359299Y-11959814D01*
X-10357780Y-11961271D01*
X-10356323Y-11962761D01*
X-10354933Y-11964258D01*
X-10353612Y-11965771D01*
X-10352364Y-11967307D01*
X-10351195Y-11968874D01*
X-10350106Y-11970480D01*
X-10349103Y-11972132D01*
X-10348189Y-11973839D01*
X-10347368Y-11975608D01*
X-10346644Y-11977446D01*
X-10346021Y-11979362D01*
X-10345502Y-11981363D01*
X-10345092Y-11983457D01*
X-10344794Y-11985652D01*
X-10344612Y-11987956D01*
X-10344551Y-11990376D01*
X-10344551Y-12252313D01*
X-10344613Y-12254793D01*
X-10344799Y-12257268D01*
X-10345109Y-12259737D01*
X-10345543Y-12262193D01*
X-10346101Y-12264634D01*
X-10346783Y-12267056D01*
X-10347590Y-12269454D01*
X-10348520Y-12271826D01*
X-10349574Y-12274166D01*
X-10350752Y-12276471D01*
X-10352054Y-12278738D01*
X-10353481Y-12280962D01*
X-10355031Y-12283140D01*
X-10356705Y-12285267D01*
X-10358504Y-12287340D01*
X-10360426Y-12289354D01*
X-10361377Y-12290264D01*
X-10362519Y-12291308D01*
X-10364064Y-12292662D01*
X-10365981Y-12294264D01*
X-10368239Y-12296052D01*
X-10370807Y-12297964D01*
X-10372198Y-12298947D01*
X-10373655Y-12299938D01*
X-10161988Y-12376667D01*
X-10161988Y-12471917D01*
X-10360426Y-12546001D01*
X-10358504Y-12547550D01*
X-10356705Y-12549215D01*
X-10355031Y-12550989D01*
X-10353481Y-12552863D01*
X-10352055Y-12554831D01*
X-10350752Y-12556884D01*
X-10349574Y-12559014D01*
X-10348520Y-12561214D01*
X-10347590Y-12563476D01*
X-10346783Y-12565793D01*
X-10346101Y-12568156D01*
X-10345543Y-12570557D01*
X-10345109Y-12572990D01*
X-10344799Y-12575446D01*
X-10344613Y-12577918D01*
X-10344551Y-12580397D01*
X-10344551Y-12850272D01*
X-10344590Y-12852008D01*
X-10344704Y-12853742D01*
X-10344893Y-12855472D01*
X-10345156Y-12857196D01*
X-10345490Y-12858913D01*
X-10345894Y-12860620D01*
X-10346367Y-12862315D01*
X-10346907Y-12863997D01*
X-10347514Y-12865663D01*
X-10348185Y-12867312D01*
X-10348918Y-12868941D01*
X-10349714Y-12870550D01*
X-10351483Y-12873694D01*
X-10353481Y-12876730D01*
X-10355696Y-12879642D01*
X-10358116Y-12882414D01*
X-10360730Y-12885032D01*
X-10363527Y-12887479D01*
X-10366494Y-12889740D01*
X-10368037Y-12890795D01*
X-10369619Y-12891799D01*
X-10371238Y-12892748D01*
X-10372893Y-12893641D01*
X-10374581Y-12894476D01*
X-10376301Y-12895251D01*
X-12117259Y-13532897D01*
X-12118252Y-13533362D01*
X-12119244Y-13533770D01*
X-12120236Y-13534123D01*
X-12121228Y-13534426D01*
X-12122220Y-13534683D01*
X-12123212Y-13534897D01*
X-12124205Y-13535072D01*
X-12125197Y-13535212D01*
X-12126189Y-13535321D01*
X-12127181Y-13535403D01*
X-12129165Y-13535501D01*
X-12131150Y-13535537D01*
X-12133134Y-13535543D01*
X-12135119Y-13535537D01*
X-12137103Y-13535501D01*
X-12139087Y-13535403D01*
X-12140079Y-13535321D01*
X-12141072Y-13535212D01*
X-12142064Y-13535072D01*
X-12143056Y-13534897D01*
X-12144048Y-13534683D01*
X-12145040Y-13534426D01*
X-12146032Y-13534123D01*
X-12147025Y-13533770D01*
X-12148017Y-13533362D01*
X-12149009Y-13532897D01*
X-12474084Y-13413834D01*
X-13889967Y-12895251D01*
X-13891688Y-12894716D01*
X-13893376Y-12894106D01*
X-13895030Y-12893423D01*
X-13896649Y-12892667D01*
X-13899775Y-12890949D01*
X-13902742Y-12888967D01*
X-13905538Y-12886737D01*
X-13908152Y-12884275D01*
X-13910573Y-12881595D01*
X-13912788Y-12878714D01*
X-13914786Y-12875647D01*
X-13916555Y-12872410D01*
X-13918084Y-12869017D01*
X-13919361Y-12865485D01*
X-13920374Y-12861829D01*
X-13921113Y-12858065D01*
X-13921564Y-12854207D01*
X-13921717Y-12850272D01*
X-13921717Y-12810584D01*
X-13821176Y-12810584D01*
X-12178113Y-13413834D01*
X-12082863Y-13413834D01*
X-10439801Y-12810584D01*
X-10439801Y-12643897D01*
X-12082863Y-13215397D01*
X-12082863Y-13413834D01*
X-12178113Y-13413834D01*
X-12178113Y-13215397D01*
X-13821176Y-12643897D01*
X-13821176Y-12810584D01*
X-13921717Y-12810584D01*
X-13921717Y-12643897D01*
X-13921717Y-12580397D01*
X-13921655Y-12577918D01*
X-13921469Y-12575446D01*
X-13921159Y-12572990D01*
X-13920725Y-12570558D01*
X-13920167Y-12568156D01*
X-13919485Y-12565793D01*
X-13918679Y-12563477D01*
X-13917749Y-12561214D01*
X-13916694Y-12559014D01*
X-13915516Y-12556884D01*
X-13914214Y-12554831D01*
X-13912788Y-12552864D01*
X-13911237Y-12550989D01*
X-13909563Y-12549215D01*
X-13907765Y-12547550D01*
X-13906819Y-12546761D01*
X-13905842Y-12546001D01*
X-14104280Y-12477209D01*
X-14104280Y-12381959D01*
X-13892613Y-12305230D01*
X-13894070Y-12304239D01*
X-13895460Y-12303256D01*
X-13896781Y-12302288D01*
X-13898029Y-12301344D01*
X-13899199Y-12300430D01*
X-13900287Y-12299555D01*
X-13901290Y-12298727D01*
X-13902204Y-12297953D01*
X-13903025Y-12297242D01*
X-13903749Y-12296599D01*
X-13904891Y-12295556D01*
X-13905842Y-12294646D01*
X-13907765Y-12292631D01*
X-13909563Y-12290558D01*
X-13911237Y-12288431D01*
X-13912788Y-12286254D01*
X-13914214Y-12284030D01*
X-13915516Y-12281763D01*
X-13916694Y-12279458D01*
X-13917749Y-12277118D01*
X-13918679Y-12274746D01*
X-13919485Y-12272348D01*
X-13920167Y-12269926D01*
X-13920725Y-12267485D01*
X-13921159Y-12265029D01*
X-13921469Y-12262560D01*
X-13921655Y-12260085D01*
X-13921717Y-12257605D01*
X-13921717Y-12231147D01*
X-13821176Y-12231147D01*
X-13789550Y-12255894D01*
X-13740313Y-12291215D01*
X-13673464Y-12335280D01*
X-13589004Y-12386259D01*
X-13486933Y-12442322D01*
X-13429293Y-12471689D01*
X-13367250Y-12501642D01*
X-13300805Y-12531951D01*
X-13229956Y-12562387D01*
X-13154705Y-12592723D01*
X-13075051Y-12622730D01*
X-13013847Y-12643505D01*
X-12950671Y-12663167D01*
X-12886092Y-12681721D01*
X-12820679Y-12699170D01*
X-12689633Y-12730770D01*
X-12562090Y-12757998D01*
X-12442609Y-12780886D01*
X-12335747Y-12799463D01*
X-12178113Y-12823813D01*
X-12178113Y-12821168D01*
X-12082863Y-12821168D01*
X-11925271Y-12798306D01*
X-11818507Y-12780100D01*
X-11699217Y-12757337D01*
X-11571990Y-12729984D01*
X-11441414Y-12698012D01*
X-11312078Y-12661389D01*
X-11249309Y-12641324D01*
X-11188571Y-12620084D01*
X-11108481Y-12590077D01*
X-11032901Y-12559741D01*
X-10961818Y-12529305D01*
X-10895215Y-12498996D01*
X-10833076Y-12469044D01*
X-10775387Y-12439677D01*
X-10722132Y-12411123D01*
X-10673295Y-12383613D01*
X-10628861Y-12357374D01*
X-10588815Y-12332634D01*
X-10553140Y-12309623D01*
X-10521821Y-12288570D01*
X-10472191Y-12253249D01*
X-10439801Y-12228501D01*
X-10439801Y-12106792D01*
X-10481401Y-12139612D01*
X-10533480Y-12176369D01*
X-10597094Y-12216785D01*
X-10673296Y-12260581D01*
X-10763141Y-12307478D01*
X-10867682Y-12357196D01*
X-10987975Y-12409456D01*
X-11125072Y-12463980D01*
X-11207190Y-12494085D01*
X-11287661Y-12521015D01*
X-11366202Y-12544946D01*
X-11442530Y-12566051D01*
X-11516362Y-12584505D01*
X-11587415Y-12600483D01*
X-11655407Y-12614159D01*
X-11720053Y-12625706D01*
X-11781072Y-12635301D01*
X-11838180Y-12643116D01*
X-11939533Y-12654108D01*
X-12021849Y-12660076D01*
X-12082863Y-12662417D01*
X-12082863Y-12821168D01*
X-12178113Y-12821168D01*
X-12178113Y-12662417D01*
X-12239128Y-12660076D01*
X-12321443Y-12654108D01*
X-12422796Y-12643116D01*
X-12540923Y-12625706D01*
X-12673561Y-12600483D01*
X-12744614Y-12584505D01*
X-12818446Y-12566051D01*
X-12894774Y-12544946D01*
X-12973315Y-12521015D01*
X-13053787Y-12494085D01*
X-13135905Y-12463980D01*
X-13206620Y-12436453D01*
X-13273003Y-12409461D01*
X-13335184Y-12383043D01*
X-13393295Y-12357237D01*
X-13447469Y-12332082D01*
X-13497836Y-12307617D01*
X-13544530Y-12283881D01*
X-13587681Y-12260912D01*
X-13627422Y-12238749D01*
X-13663883Y-12217431D01*
X-13697198Y-12196997D01*
X-13727497Y-12177486D01*
X-13754913Y-12158935D01*
X-13779576Y-12141384D01*
X-13801620Y-12124873D01*
X-13821176Y-12109438D01*
X-13821176Y-12231147D01*
X-13921717Y-12231147D01*
X-13921717Y-12109438D01*
X-13921717Y-11995667D01*
X-13921656Y-11993443D01*
X-13921474Y-11991237D01*
X-13921174Y-11989053D01*
X-13920761Y-11986893D01*
X-13920238Y-11984759D01*
X-13919607Y-11982656D01*
X-13918873Y-11980586D01*
X-13918038Y-11978552D01*
X-13917106Y-11976556D01*
X-13916081Y-11974603D01*
X-13914966Y-11972693D01*
X-13913764Y-11970832D01*
X-13912479Y-11969020D01*
X-13911114Y-11967262D01*
X-13909672Y-11965560D01*
X-13908157Y-11963917D01*
X-13906573Y-11962336D01*
X-13904922Y-11960821D01*
X-13903208Y-11959372D01*
X-13901434Y-11957995D01*
X-13899605Y-11956691D01*
X-13897722Y-11955464D01*
X-13895790Y-11954317D01*
X-13893812Y-11953251D01*
X-13891792Y-11952271D01*
X-13889732Y-11951379D01*
X-13887636Y-11950578D01*
X-13885508Y-11949871D01*
X-13883350Y-11949262D01*
X-13881168Y-11948751D01*
X-13878962Y-11948344D01*
X-13876738Y-11948042D01*
X-13765531Y-11931795D01*
X-13651729Y-11911440D01*
X-13510952Y-11881566D01*
X-13352067Y-11841150D01*
X-13268606Y-11816669D01*
X-13183943Y-11789168D01*
X-13099188Y-11758521D01*
X-13015447Y-11724599D01*
X-12933831Y-11687273D01*
X-12855447Y-11646417D01*
X-12853432Y-11645239D01*
X-12851361Y-11644184D01*
X-12849239Y-11643250D01*
X-12847070Y-11642438D01*
X-12844861Y-11641746D01*
X-12842616Y-11641173D01*
X-12840341Y-11640719D01*
X-12838042Y-11640381D01*
X-12835723Y-11640160D01*
X-12833391Y-11640054D01*
X-12831049Y-11640063D01*
G37*
G36*
X-9751223Y-12531242D02*
G01*
X-9723950Y-12535000D01*
X-9696503Y-12540103D01*
X-9668955Y-12546644D01*
X-9641380Y-12554719D01*
X-9613851Y-12564419D01*
X-9586442Y-12575838D01*
X-9559228Y-12589070D01*
X-9532280Y-12604209D01*
X-9506896Y-12620951D01*
X-9484264Y-12638833D01*
X-9464303Y-12657708D01*
X-9446926Y-12677429D01*
X-9432052Y-12697850D01*
X-9419595Y-12718824D01*
X-9409473Y-12740204D01*
X-9401601Y-12761843D01*
X-9395895Y-12783594D01*
X-9392272Y-12805311D01*
X-9390649Y-12826847D01*
X-9390940Y-12848055D01*
X-9393062Y-12868788D01*
X-9396932Y-12888899D01*
X-9402466Y-12908242D01*
X-9409579Y-12926670D01*
X-9418189Y-12944036D01*
X-9428211Y-12960193D01*
X-9439561Y-12974995D01*
X-9452156Y-12988294D01*
X-9465911Y-12999944D01*
X-9480744Y-13009799D01*
X-9496569Y-13017710D01*
X-9513304Y-13023532D01*
X-9530865Y-13027118D01*
X-9549167Y-13028321D01*
X-9568127Y-13026994D01*
X-9587662Y-13022990D01*
X-9607686Y-13016162D01*
X-9628117Y-13006365D01*
X-9648871Y-12993450D01*
X-9669864Y-12977272D01*
X-9689779Y-12957763D01*
X-9705660Y-12937905D01*
X-9718681Y-12917659D01*
X-9730015Y-12896987D01*
X-9752324Y-12854209D01*
X-9765647Y-12832026D01*
X-9781981Y-12809261D01*
X-9802501Y-12785876D01*
X-9828381Y-12761833D01*
X-9860796Y-12737091D01*
X-9900920Y-12711613D01*
X-9949926Y-12685361D01*
X-10008990Y-12658294D01*
X-10079286Y-12630374D01*
X-10161989Y-12601563D01*
X-10103780Y-12577792D01*
X-10073493Y-12567538D01*
X-10038089Y-12557054D01*
X-9998159Y-12547090D01*
X-9954291Y-12538394D01*
X-9907074Y-12531713D01*
X-9857098Y-12527795D01*
X-9804951Y-12527389D01*
X-9751223Y-12531242D01*
G37*
G36*
X-12121627Y-9605328D02*
G01*
X-12113779Y-9605840D01*
X-12105967Y-9606692D01*
X-12098206Y-9607886D01*
X-12090508Y-9609421D01*
X-12082888Y-9611297D01*
X-12075360Y-9613514D01*
X-12067939Y-9616072D01*
X-12060637Y-9618971D01*
X-12053470Y-9622211D01*
X-12046451Y-9625792D01*
X-12039594Y-9629714D01*
X-12032914Y-9633977D01*
X-12026424Y-9638582D01*
X-12020138Y-9643527D01*
X-12014071Y-9648814D01*
X-12009206Y-9654859D01*
X-12004542Y-9661087D01*
X-12000096Y-9667493D01*
X-11995881Y-9674073D01*
X-11991915Y-9680824D01*
X-11988213Y-9687741D01*
X-11984789Y-9694822D01*
X-11981660Y-9702061D01*
X-11978841Y-9709455D01*
X-11976348Y-9717001D01*
X-11974195Y-9724693D01*
X-11972400Y-9732529D01*
X-11970976Y-9740505D01*
X-11969940Y-9748616D01*
X-11969307Y-9756859D01*
X-11969092Y-9765230D01*
X-11969307Y-9772262D01*
X-11969940Y-9779441D01*
X-11970976Y-9786729D01*
X-11972400Y-9794086D01*
X-11974195Y-9801475D01*
X-11976348Y-9808855D01*
X-11978841Y-9816190D01*
X-11981660Y-9823438D01*
X-11984789Y-9830563D01*
X-11988213Y-9837525D01*
X-11991915Y-9844286D01*
X-11995881Y-9850806D01*
X-12000096Y-9857048D01*
X-12004542Y-9862971D01*
X-12009206Y-9868538D01*
X-12014071Y-9873709D01*
X-12020117Y-9879972D01*
X-12026345Y-9885859D01*
X-12032751Y-9891365D01*
X-12039331Y-9896488D01*
X-12046082Y-9901224D01*
X-12052999Y-9905568D01*
X-12060080Y-9909517D01*
X-12067319Y-9913066D01*
X-12074713Y-9916213D01*
X-12082259Y-9918952D01*
X-12089951Y-9921281D01*
X-12097787Y-9923195D01*
X-12105763Y-9924690D01*
X-12113874Y-9925763D01*
X-12122117Y-9926410D01*
X-12130488Y-9926626D01*
X-12138859Y-9926380D01*
X-12147102Y-9925654D01*
X-12155214Y-9924463D01*
X-12163189Y-9922823D01*
X-12171025Y-9920748D01*
X-12178718Y-9918254D01*
X-12186263Y-9915358D01*
X-12193658Y-9912074D01*
X-12200897Y-9908418D01*
X-12207977Y-9904405D01*
X-12214895Y-9900051D01*
X-12221645Y-9895372D01*
X-12228226Y-9890383D01*
X-12234632Y-9885099D01*
X-12240859Y-9879536D01*
X-12246905Y-9873709D01*
X-12251770Y-9869003D01*
X-12256434Y-9863839D01*
X-12260881Y-9858257D01*
X-12265095Y-9852295D01*
X-12269061Y-9845991D01*
X-12272764Y-9839386D01*
X-12276187Y-9832517D01*
X-12279316Y-9825423D01*
X-12282135Y-9818143D01*
X-12284629Y-9810716D01*
X-12286781Y-9803180D01*
X-12288577Y-9795575D01*
X-12290000Y-9787938D01*
X-12291036Y-9780309D01*
X-12291669Y-9772727D01*
X-12291884Y-9765230D01*
X-12291669Y-9756859D01*
X-12291036Y-9748616D01*
X-12290000Y-9740505D01*
X-12288577Y-9732530D01*
X-12286781Y-9724693D01*
X-12284629Y-9717001D01*
X-12282135Y-9709455D01*
X-12279316Y-9702061D01*
X-12276187Y-9694822D01*
X-12272764Y-9687742D01*
X-12269061Y-9680824D01*
X-12265095Y-9674073D01*
X-12260881Y-9667493D01*
X-12256434Y-9661087D01*
X-12251770Y-9654859D01*
X-12246905Y-9648814D01*
X-12240597Y-9643527D01*
X-12234087Y-9638582D01*
X-12227388Y-9633977D01*
X-12220514Y-9629714D01*
X-12213479Y-9625792D01*
X-12206297Y-9622211D01*
X-12198982Y-9618971D01*
X-12191549Y-9616072D01*
X-12184011Y-9613514D01*
X-12176383Y-9611297D01*
X-12168677Y-9609421D01*
X-12160910Y-9607886D01*
X-12153094Y-9606692D01*
X-12145244Y-9605840D01*
X-12137373Y-9605328D01*
X-12129496Y-9605157D01*
X-12121627Y-9605328D01*
G37*
D11*
%TO.C,J1*%
X-3620000Y10000000D03*
D12*
X-1080000Y10000000D03*
X1460000Y10000000D03*
X4000000Y10000000D03*
%TD*%
D13*
%TO.C,R3*%
X-8500000Y8500000D03*
X-12813352Y12813352D03*
%TD*%
D14*
%TO.C,H1*%
X-18550000Y16500000D03*
X-17956891Y17931891D03*
X-17956891Y15068109D03*
X-16525000Y18525000D03*
D15*
X-16525000Y16500000D03*
D14*
X-16525000Y14475000D03*
X-15093109Y17931891D03*
X-15093109Y15068109D03*
X-14500000Y16500000D03*
%TD*%
D16*
%TO.C,U1*%
X-5656854Y5656854D03*
X-5656854Y-5656854D03*
D17*
X-5000000Y5000000D03*
X-5000000Y4250000D03*
X-5000000Y-4250000D03*
X-5000000Y-5000000D03*
D18*
X0Y0D03*
D17*
X5000000Y5000000D03*
X5000000Y4250000D03*
X5000000Y-4250000D03*
X5000000Y-5000000D03*
D16*
X5656854Y5656854D03*
X5656854Y-5656854D03*
%TD*%
D14*
%TO.C,H2*%
X14475000Y16475000D03*
X15068109Y17906891D03*
X15068109Y15043109D03*
X16500000Y18500000D03*
D15*
X16500000Y16475000D03*
D14*
X16500000Y14450000D03*
X17931891Y17906891D03*
X17931891Y15043109D03*
X18525000Y16475000D03*
%TD*%
D13*
%TO.C,R1*%
X12656676Y-12656676D03*
X8343324Y-8343324D03*
%TD*%
D14*
%TO.C,H3*%
X-18550000Y-16500000D03*
X-17956891Y-15068109D03*
X-17956891Y-17931891D03*
X-16525000Y-14475000D03*
D15*
X-16525000Y-16500000D03*
D14*
X-16525000Y-18525000D03*
X-15093109Y-15068109D03*
X-15093109Y-17931891D03*
X-14500000Y-16500000D03*
%TD*%
%TO.C,H4*%
X14543109Y-16431891D03*
X15136218Y-15000000D03*
X15136218Y-17863782D03*
X16568109Y-14406891D03*
D15*
X16568109Y-16431891D03*
D14*
X16568109Y-18456891D03*
X18000000Y-15000000D03*
X18000000Y-17863782D03*
X18593109Y-16431891D03*
%TD*%
M02*
