%TF.GenerationSoftware,KiCad,Pcbnew,7.0.7*%
%TF.CreationDate,2023-09-04T20:48:42-04:00*%
%TF.ProjectId,square,73717561-7265-42e6-9b69-6361645f7063,rev?*%
%TF.SameCoordinates,Original*%
%TF.FileFunction,Legend,Bot*%
%TF.FilePolarity,Positive*%
%FSLAX46Y46*%
G04 Gerber Fmt 4.6, Leading zero omitted, Abs format (unit mm)*
G04 Created by KiCad (PCBNEW 7.0.7) date 2023-09-04 20:48:42*
%MOMM*%
%LPD*%
G01*
G04 APERTURE LIST*
G04 Aperture macros list*
%AMRoundRect*
0 Rectangle with rounded corners*
0 $1 Rounding radius*
0 $2 $3 $4 $5 $6 $7 $8 $9 X,Y pos of 4 corners*
0 Add a 4 corners polygon primitive as box body*
4,1,4,$2,$3,$4,$5,$6,$7,$8,$9,$2,$3,0*
0 Add four circle primitives for the rounded corners*
1,1,$1+$1,$2,$3*
1,1,$1+$1,$4,$5*
1,1,$1+$1,$6,$7*
1,1,$1+$1,$8,$9*
0 Add four rect primitives between the rounded corners*
20,1,$1+$1,$2,$3,$4,$5,0*
20,1,$1+$1,$4,$5,$6,$7,0*
20,1,$1+$1,$6,$7,$8,$9,0*
20,1,$1+$1,$8,$9,$2,$3,0*%
%AMFreePoly0*
4,1,45,0.263282,1.831170,0.521205,1.775062,0.768518,1.682819,1.000186,1.556319,1.211492,1.398137,1.398137,1.211492,1.556319,1.000186,1.682819,0.768518,1.775062,0.521205,1.831170,0.263282,1.850000,0.000000,1.831170,-0.263282,1.775062,-0.521205,1.682819,-0.768518,1.556319,-1.000186,1.398137,-1.211492,1.211492,-1.398137,1.000186,-1.556319,0.768518,-1.682819,0.521205,-1.775062,
0.263282,-1.831170,0.000000,-1.850000,-0.263282,-1.831170,-0.521205,-1.775062,-0.768518,-1.682819,-1.000186,-1.556319,-1.211492,-1.398137,-1.398137,-1.211492,-1.556319,-1.000186,-1.682819,-0.768518,-1.775062,-0.521205,-1.831170,-0.263282,-1.850000,0.000000,-1.831170,0.263282,-1.775062,0.521205,-1.682819,0.768518,-1.556319,1.000186,-1.398137,1.211492,-1.211492,1.398137,-1.000186,1.556319,
-0.768518,1.682819,-0.521205,1.775062,-0.263282,1.831170,0.000000,1.850000,0.263282,1.831170,0.263282,1.831170,$1*%
%AMFreePoly1*
4,1,49,0.287158,2.181179,0.569402,2.125037,0.841904,2.032535,1.100000,1.905256,1.339275,1.745377,1.555635,1.555635,1.745377,1.339275,1.905256,1.100000,2.032535,0.841904,2.125037,0.569402,2.181179,0.287158,2.200000,0.000000,2.181179,-0.287158,2.125037,-0.569402,2.032535,-0.841904,1.905256,-1.100000,1.745377,-1.339275,1.555635,-1.555635,1.339275,-1.745377,1.100000,-1.905256,
0.841904,-2.032535,0.569402,-2.125037,0.287158,-2.181179,0.000000,-2.200000,-0.287158,-2.181179,-0.569402,-2.125037,-0.841904,-2.032535,-1.100000,-1.905256,-1.339275,-1.745377,-1.555635,-1.555635,-1.745377,-1.339275,-1.905256,-1.100000,-2.032535,-0.841904,-2.125037,-0.569402,-2.181179,-0.287158,-2.200000,0.000000,-2.181179,0.287158,-2.125037,0.569402,-2.032535,0.841904,-1.905256,1.100000,
-1.745377,1.339275,-1.555635,1.555635,-1.339275,1.745377,-1.100000,1.905256,-0.841904,2.032535,-0.569402,2.125037,-0.287158,2.181179,0.000000,2.200000,0.287158,2.181179,0.287158,2.181179,$1*%
%AMFreePoly2*
4,1,53,0.313395,2.581043,0.622221,2.524449,0.921973,2.431042,1.208280,2.302186,1.476968,2.139758,1.724119,1.946128,1.946128,1.724119,2.139758,1.476968,2.302186,1.208280,2.431042,0.921973,2.524449,0.622221,2.581043,0.313395,2.600000,0.000000,2.581043,-0.313395,2.524449,-0.622221,2.431042,-0.921973,2.302186,-1.208280,2.139758,-1.476968,1.946128,-1.724119,1.724119,-1.946128,
1.476968,-2.139758,1.208280,-2.302186,0.921973,-2.431042,0.622221,-2.524449,0.313395,-2.581043,0.000000,-2.600000,-0.313395,-2.581043,-0.622221,-2.524449,-0.921973,-2.431042,-1.208280,-2.302186,-1.476968,-2.139758,-1.724119,-1.946128,-1.946128,-1.724119,-2.139758,-1.476968,-2.302186,-1.208280,-2.431042,-0.921973,-2.524449,-0.622221,-2.581043,-0.313395,-2.600000,0.000000,-2.581043,0.313395,
-2.524449,0.622221,-2.431042,0.921973,-2.302186,1.208280,-2.139758,1.476968,-1.946128,1.724119,-1.724119,1.946128,-1.476968,2.139758,-1.208280,2.302186,-0.921973,2.431042,-0.622221,2.524449,-0.313395,2.581043,0.000000,2.600000,0.313395,2.581043,0.313395,2.581043,$1*%
G04 Aperture macros list end*
%ADD10C,0.150000*%
%ADD11C,0.120000*%
%ADD12R,1.700000X1.700000*%
%ADD13O,1.700000X1.700000*%
%ADD14C,0.800000*%
%ADD15C,5.400000*%
%ADD16FreePoly0,0.000000*%
%ADD17FreePoly1,0.000000*%
%ADD18FreePoly2,0.000000*%
%ADD19RoundRect,0.249999X0.689429X-1.325827X1.325827X-0.689429X-0.689429X1.325827X-1.325827X0.689429X0*%
G04 APERTURE END LIST*
D10*
X-8364599Y-12713050D02*
X-8465614Y-12140631D01*
X-7960538Y-12308989D02*
X-8667645Y-11601883D01*
X-8667645Y-11601883D02*
X-8937019Y-11871257D01*
X-8937019Y-11871257D02*
X-8970691Y-11972272D01*
X-8970691Y-11972272D02*
X-8970691Y-12039615D01*
X-8970691Y-12039615D02*
X-8937019Y-12140631D01*
X-8937019Y-12140631D02*
X-8836004Y-12241646D01*
X-8836004Y-12241646D02*
X-8734988Y-12275318D01*
X-8734988Y-12275318D02*
X-8667645Y-12275318D01*
X-8667645Y-12275318D02*
X-8566630Y-12241646D01*
X-8566630Y-12241646D02*
X-8297256Y-11972272D01*
X-9273736Y-12342661D02*
X-9341080Y-12342661D01*
X-9341080Y-12342661D02*
X-9442095Y-12376333D01*
X-9442095Y-12376333D02*
X-9610454Y-12544692D01*
X-9610454Y-12544692D02*
X-9644126Y-12645707D01*
X-9644126Y-12645707D02*
X-9644126Y-12713050D01*
X-9644126Y-12713050D02*
X-9610454Y-12814066D01*
X-9610454Y-12814066D02*
X-9543110Y-12881409D01*
X-9543110Y-12881409D02*
X-9408423Y-12948753D01*
X-9408423Y-12948753D02*
X-8600301Y-12948753D01*
X-8600301Y-12948753D02*
X-9038034Y-13386485D01*
X12948752Y8600301D02*
X12847737Y9172720D01*
X13352813Y9004362D02*
X12645706Y9711468D01*
X12645706Y9711468D02*
X12376332Y9442094D01*
X12376332Y9442094D02*
X12342660Y9341079D01*
X12342660Y9341079D02*
X12342660Y9273736D01*
X12342660Y9273736D02*
X12376332Y9172720D01*
X12376332Y9172720D02*
X12477347Y9071705D01*
X12477347Y9071705D02*
X12578363Y9038033D01*
X12578363Y9038033D02*
X12645706Y9038033D01*
X12645706Y9038033D02*
X12746721Y9071705D01*
X12746721Y9071705D02*
X13016095Y9341079D01*
X11871256Y8465614D02*
X12342660Y7994209D01*
X11770241Y8903346D02*
X12443676Y8566629D01*
X12443676Y8566629D02*
X12005943Y8128896D01*
D11*
%TO.C,R2*%
X-13405245Y-10986940D02*
X-10326412Y-7908107D01*
X-10986940Y-13405245D02*
X-7908107Y-10326412D01*
%TO.C,R4*%
X7908107Y10326412D02*
X10986940Y13405245D01*
X10326412Y7908107D02*
X13405245Y10986940D01*
%TD*%
%LPC*%
D12*
%TO.C,J1*%
X-3620000Y10000000D03*
D13*
X-1080000Y10000000D03*
X1460000Y10000000D03*
X4000000Y10000000D03*
%TD*%
D14*
%TO.C,H1*%
X-18550000Y16500000D03*
X-17956891Y17931891D03*
X-17956891Y15068109D03*
X-16525000Y18525000D03*
D15*
X-16525000Y16500000D03*
D14*
X-16525000Y14475000D03*
X-15093109Y17931891D03*
X-15093109Y15068109D03*
X-14500000Y16500000D03*
%TD*%
D16*
%TO.C,U1*%
X-5656854Y5656854D03*
X-5656854Y-5656854D03*
D17*
X-5000000Y5000000D03*
X-5000000Y4250000D03*
X-5000000Y-4250000D03*
X-5000000Y-5000000D03*
D18*
X0Y0D03*
D17*
X5000000Y5000000D03*
X5000000Y4250000D03*
X5000000Y-4250000D03*
X5000000Y-5000000D03*
D16*
X5656854Y5656854D03*
X5656854Y-5656854D03*
%TD*%
D14*
%TO.C,H2*%
X14475000Y16475000D03*
X15068109Y17906891D03*
X15068109Y15043109D03*
X16500000Y18500000D03*
D15*
X16500000Y16475000D03*
D14*
X16500000Y14450000D03*
X17931891Y17906891D03*
X17931891Y15043109D03*
X18525000Y16475000D03*
%TD*%
%TO.C,H3*%
X-18550000Y-16500000D03*
X-17956891Y-15068109D03*
X-17956891Y-17931891D03*
X-16525000Y-14475000D03*
D15*
X-16525000Y-16500000D03*
D14*
X-16525000Y-18525000D03*
X-15093109Y-15068109D03*
X-15093109Y-17931891D03*
X-14500000Y-16500000D03*
%TD*%
%TO.C,H4*%
X14543109Y-16431891D03*
X15136218Y-15000000D03*
X15136218Y-17863782D03*
X16568109Y-14406891D03*
D15*
X16568109Y-16431891D03*
D14*
X16568109Y-18456891D03*
X18000000Y-15000000D03*
X18000000Y-17863782D03*
X18593109Y-16431891D03*
%TD*%
D19*
%TO.C,R2*%
X-12813352Y-12813352D03*
X-8500000Y-8500000D03*
%TD*%
%TO.C,R4*%
X8500000Y8500000D03*
X12813352Y12813352D03*
%TD*%
%LPD*%
M02*
