M48
; DRILL file {KiCad 7.0.7} date Mon Sep  4 20:48:43 2023
; FORMAT={-:-/ absolute / inch / decimal}
; #@! TF.CreationDate,2023-09-04T20:48:43-04:00
; #@! TF.GenerationSoftware,Kicad,Pcbnew,7.0.7
; #@! TF.FileFunction,Plated,1,2,PTH
FMAT,2
INCH
; #@! TA.AperFunction,Plated,PTH,ViaDrill
T1C0.0118
; #@! TA.AperFunction,Plated,PTH,ComponentDrill
T2C0.0197
; #@! TA.AperFunction,Plated,PTH,ComponentDrill
T3C0.0394
; #@! TA.AperFunction,Plated,PTH,ComponentDrill
T4C0.1063
; #@! TA.AperFunction,Plated,PTH,ComponentDrill
T5C0.1339
; #@! TA.AperFunction,Plated,PTH,ComponentDrill
T6C0.1654
%
G90
G05
T1
X-0.3937Y0.0394
X0.0Y-0.374
X0.0591Y0.2953
X0.3543Y0.1575
X0.3937Y0.0
T2
X-0.7303Y0.6496
X-0.7303Y-0.6496
X-0.707Y0.706
X-0.707Y0.5932
X-0.707Y-0.5932
X-0.707Y-0.706
X-0.6506Y0.7293
X-0.6506Y0.5699
X-0.6506Y-0.5699
X-0.6506Y-0.7293
X-0.5942Y0.706
X-0.5942Y0.5932
X-0.5942Y-0.5932
X-0.5942Y-0.706
X-0.5709Y0.6496
X-0.5709Y-0.6496
X0.5699Y0.6486
X0.5726Y-0.6469
X0.5932Y0.705
X0.5932Y0.5922
X0.5959Y-0.5906
X0.5959Y-0.7033
X0.6496Y0.7283
X0.6496Y0.5689
X0.6523Y-0.5672
X0.6523Y-0.7266
X0.706Y0.705
X0.706Y0.5922
X0.7087Y-0.5906
X0.7087Y-0.7033
X0.7293Y0.6486
X0.732Y-0.6469
T3
X-0.1425Y0.3937
X-0.0425Y0.3937
X0.0575Y0.3937
X0.1575Y0.3937
T4
X-0.6506Y0.6496
X-0.6506Y-0.6496
X-0.2227Y0.2227
X-0.2227Y-0.2227
X0.2227Y0.2227
X0.2227Y-0.2227
X0.6496Y0.6486
X0.6523Y-0.6469
T5
X-0.1969Y0.1969
X-0.1969Y0.1673
X-0.1969Y-0.1673
X-0.1969Y-0.1969
X0.1969Y0.1969
X0.1969Y0.1673
X0.1969Y-0.1673
X0.1969Y-0.1969
T6
X0.0Y0.0
T0
M30
