<?xml version="1.0" encoding="utf-8"?>
<!-- Generator: Adobe Illustrator 26.0.3, SVG Export Plug-In . SVG Version: 6.00 Build 0)  -->
<svg version="1.1" id="Layer_1" xmlns="http://www.w3.org/2000/svg" xmlns:xlink="http://www.w3.org/1999/xlink" x="0px" y="0px"
	 viewBox="0 0 36 36" style="enable-background:new 0 0 36 36;" xml:space="preserve">
<style type="text/css">
	.st0{fill:#FFFFFF;}
</style>
<g>
	<path class="st0" d="M34.5,29.5c-1.8-1.1-4,0-4,0c3,1,2.4,1.7,3.1,2.4C35,33,36.3,30.6,34.5,29.5z"/>
	<path class="st0" d="M32.5,27c0.8-0.5-0.2-1.4-1-0.7s-0.6,1.9-0.6,1.9C31.8,26.9,32.1,27.3,32.5,27z"/>
	<path class="st0" d="M34.4,28.9c0.7,0.5,1.2-0.6,0.3-1.1c-0.8-0.5-1.8,0.1-1.8,0.1C34.3,28.2,34,28.6,34.4,28.9z"/>
	<path class="st0" d="M30.5,28.6V28l-1.3-0.5c0.1,0,0.1-0.1,0.1-0.1c0.1-0.1,0.1-0.2,0.1-0.2v-1.7l0,0l0,0c0-0.1,0-0.1-0.1-0.2l0,0
		l0,0l0,0l0,0l0,0l0,0l0,0l0,0c-0.1-0.1-0.1-0.1-0.2-0.1c-0.2,0-3.9-0.5-6.5-1.9c-0.2-0.1-0.3,0-0.4,0.1c-0.1,0.2,0,0.3,0.1,0.4
		c2.1,1.2,4.9,1.7,6.1,1.9c-0.5,0.4-1.7,1.3-4.3,2.2c-3.1,1.2-5.8,1.2-6.1,1.2c0,0,0,0,0,0l0,0l0,0c0,0-2.9,0-6.2-1.2
		c-2.5-1-3.7-1.8-4.3-2.2c1.2-0.2,4-0.7,6.1-1.9c0.2-0.1,0.2-0.3,0.1-0.4c-0.1-0.2-0.3-0.2-0.4-0.1c-2.6,1.4-6.4,1.9-6.5,1.9
		c-0.2,0-0.3,0.2-0.3,0.3v1.7c0,0.1,0,0.2,0.1,0.2c0,0,0,0,0.1,0.1L5.4,28v0.6l1.3,0.4c-0.1,0.1-0.1,0.1-0.1,0.2V31
		c0,0.1,0.1,0.3,0.2,0.3l11.1,4.1c0,0,0.1,0,0.1,0c0,0,0.1,0,0.1,0l11.1-4.1c0.1-0.1,0.2-0.2,0.2-0.3v-1.7c0-0.1,0-0.2-0.1-0.2
		L30.5,28.6z M17.6,34.6L7.2,30.8v-1.1l10.4,3.6V34.6z M17.6,30.9c-0.9-0.1-3.7-0.6-5.7-1.3c-2.8-1-4.4-2.2-4.7-2.5v-0.8
		c0.6,0.5,1.9,1.3,4.4,2.3c2.8,1.1,5.2,1.2,6.1,1.3V30.9z M28.7,30.8l-10.4,3.8v-1.3l10.4-3.6C28.7,29.7,28.7,30.8,28.7,30.8z
		 M28.7,27.1c-0.4,0.3-2,1.5-4.8,2.5c-2,0.7-4.7,1.2-5.7,1.3v-1c0.8,0,3.3-0.2,6.1-1.3c2.5-0.9,3.7-1.7,4.4-2.3
		C28.7,26.3,28.7,27.1,28.7,27.1z"/>
	<path class="st0" d="M17.5,26.9c0.1,0.1,0.1,0.1,0.2,0.1h0.2h0.2c0.1,0,0.2,0,0.2-0.1l3.4-3.7c0.2-0.2,0.3-0.5,0.3-0.8v-2
		c0-0.4-0.3-0.7-0.7-0.7h-1v-1.4l0.4-0.1c0.2,0,0.3-0.2,0.3-0.4c0-0.2-0.1-0.4-0.3-0.4l-0.4-0.1v-0.5l0.4-0.1c0.2,0,0.3-0.2,0.3-0.4
		c0-0.2-0.1-0.4-0.3-0.4l-0.4-0.1v-0.5l0.4-0.1c0.2,0,0.3-0.2,0.3-0.4c0-0.2-0.1-0.4-0.3-0.4l-0.4-0.1v-0.1c0-0.1,0-0.2-0.1-0.2
		l-0.3-0.3c-0.1-0.1-0.1-0.1-0.2-0.1h-1.9H16c-0.1,0-0.2,0-0.2,0.1l-0.3,0.3c-0.1,0.1-0.1,0.1-0.1,0.2v1l-0.4,0.1
		c-0.2,0-0.3,0.2-0.4,0.4c0,0.2,0.1,0.4,0.3,0.4l0.4,0.1v0.5L15,16.9c-0.2,0-0.3,0.2-0.4,0.4c0,0.2,0.1,0.4,0.3,0.4l0.4,0.1v0.5
		L15,18.4c-0.2,0-0.3,0.2-0.4,0.4c0,0.2,0.1,0.4,0.3,0.4l0.4,0.1v0.4h-1c-0.4,0-0.7,0.3-0.7,0.7v2c0,0.3,0.1,0.6,0.3,0.8L17.5,26.9z
		 M18.9,25.5l-0.9,0l-0.9,0l-1.8-1.9c0.2,0.1,0.4,0.1,0.7,0.1c0.9,0,1.6-0.4,2-0.5c0.3,0.2,1.1,0.5,2,0.5c0.3,0,0.5,0,0.7-0.1
		L18.9,25.5z M16.8,20.3h1.1h1.1c-0.5,0.1-0.9,0.3-1.1,0.4C17.7,20.7,17.3,20.5,16.8,20.3z M21.4,20.3
		C21.5,20.3,21.5,20.4,21.4,20.3l0.1,0.3c-0.2-0.1-0.4-0.2-0.7-0.3H21.4z M21.5,21.3v1.1c0,0.1,0,0.1,0,0.2
		c-0.2,0.1-0.7,0.5-1.5,0.5c-0.8,0-1.4-0.3-1.7-0.5v-1.3c0.3-0.2,0.9-0.5,1.7-0.5C20.7,20.9,21.3,21.2,21.5,21.3z M19.8,19.7h-1.9
		H16v-0.7l3.8-0.6L19.8,19.7L19.8,19.7z M16,14.5L16,14.5l1.9-0.1h1.8l0.1,0.1v0.2L16,15.3L16,14.5L16,14.5z M16,16.1l3.8-0.6v0.6
		L16,16.7V16.1z M16,17.6l3.8-0.6v0.6L16,18.2V17.6z M14.4,20.4C14.4,20.4,14.4,20.3,14.4,20.4l0.7-0.1c-0.3,0.1-0.5,0.2-0.7,0.3
		L14.4,20.4L14.4,20.4z M14.4,21.3c0.2-0.2,0.8-0.5,1.6-0.5c0.8,0,1.4,0.3,1.7,0.5v1.3C17.4,22.7,16.7,23,16,23
		c-0.8,0-1.4-0.4-1.5-0.5c0-0.1,0-0.1,0-0.2C14.4,22.4,14.4,21.3,14.4,21.3z"/>
	<path class="st0" d="M15.9,25.8c-0.1-0.1-0.3-0.1-0.4,0c-0.2,0.2-0.3,0.5-0.3,0.7c0,0.9,1.2,1.5,2.8,1.5c1.6,0,2.8-0.7,2.8-1.5
		c0-0.3-0.1-0.5-0.3-0.7c-0.1-0.1-0.3-0.1-0.4,0c-0.1,0.1-0.1,0.3,0,0.4c0.1,0.1,0.1,0.2,0.1,0.3c0,0.4-0.9,0.9-2.1,0.9
		c-1.2,0-2.1-0.5-2.1-0.9c0-0.1,0-0.2,0.1-0.3C16,26.1,16,25.9,15.9,25.8z"/>
	<path class="st0" d="M1.4,29.5c-1.8,1.1-0.6,3.6,0.9,2.4c0.8-0.7,0.1-1.4,3.1-2.4C5.4,29.5,3.3,28.4,1.4,29.5z"/>
	<path class="st0" d="M3.4,27c0.4,0.3,0.7-0.1,1.5,1.1c0,0,0.2-1.2-0.6-1.9C3.7,25.6,2.7,26.5,3.4,27z"/>
	<path class="st0" d="M1.5,28.9c0.4-0.3,0.1-0.6,1.4-1c0,0-1-0.5-1.8-0.1C0.3,28.2,0.8,29.4,1.5,28.9z"/>
	<path class="st0" d="M17.9,9.6c0.6,0,1-0.5,1-1V3.4c0-0.6-0.5-1-1-1c-0.6,0-1,0.5-1,1v5.2C16.9,9.2,17.4,9.6,17.9,9.6z"/>
	<path class="st0" d="M17.9,12.4c0.3,0,0.5-0.1,0.7-0.3c0.2-0.2,0.3-0.5,0.3-0.7c0-0.3-0.1-0.5-0.3-0.7c-0.4-0.4-1.1-0.4-1.5,0
		c-0.2,0.2-0.3,0.5-0.3,0.7c0,0.3,0.1,0.5,0.3,0.7C17.4,12.3,17.7,12.4,17.9,12.4z"/>
</g>
</svg>
