<?xml version="1.0" encoding="utf-8"?>
<!-- Generator: Adobe Illustrator 26.0.3, SVG Export Plug-In . SVG Version: 6.00 Build 0)  -->
<svg version="1.1" xmlns="http://www.w3.org/2000/svg" xmlns:xlink="http://www.w3.org/1999/xlink" x="0px" y="0px"
	 viewBox="0 0 35.96 35.96" style="enable-background:new 0 0 35.96 35.96;" xml:space="preserve">
<style type="text/css">
	.st0{fill:none;stroke:#C4C6C8;stroke-width:0.0861;stroke-miterlimit:10;}
	.st1{display:none;fill:none;stroke:#C4C6C8;stroke-width:0.0861;stroke-miterlimit:10;}
	.st2{fill:none;stroke:#000000;stroke-width:0.15;stroke-linecap:round;stroke-linejoin:round;stroke-miterlimit:10;}
	.st3{fill:none;stroke:#000000;stroke-width:0.0861;stroke-linecap:round;stroke-miterlimit:10;}
	.st4{fill:none;stroke:#000000;stroke-width:0.15;stroke-linecap:round;stroke-miterlimit:10;}
	.st5{fill:none;stroke:#000000;stroke-width:0.0861;stroke-linecap:round;stroke-linejoin:round;stroke-miterlimit:10;}
	.st6{fill:none;stroke:#000000;stroke-width:0.2;stroke-linejoin:round;stroke-miterlimit:10;}
	.st7{fill:none;stroke:#000000;stroke-width:0.5;stroke-linecap:round;stroke-linejoin:round;stroke-miterlimit:10;}
</style>
<g id="center">
	<line class="st0" x1="-20.5" y1="0" x2="-20.5" y2="36"/>
</g>
<g id="symmetry">
	<g>
		<g>
			<rect x="-39.58" y="-1.29" class="st1" width="38.17" height="38.58"/>
			<path class="st2" d="M-20.5,19.16h0.85c0.05,0,0.09,0.04,0.09,0.09v0.49c0,0.05-0.02,0.1-0.05,0.14l-0.84,0.89h-0.05"/>
			<path class="st3" d="M-19.56,16.94"/>
			<path class="st4" d="M-19.56,19.37c0,0-0.19-0.14-0.46-0.14c-0.27,0-0.48,0.14-0.48,0.14v0.45c0,0,0.21,0.14,0.48,0.14
				c0.27,0,0.44-0.14,0.44-0.14"/>
			<path class="st3" d="M-19.98,20.29"/>
			<polygon points="-20.41,20.77 -20.14,20.48 -20.5,20.48 -20.5,20.77 			"/>
			<polyline class="st2" points="-20.5,17.7 -20.03,17.7 -19.96,17.76 -19.96,19.16 			"/>
			<path class="st2" d="M-17.8,20.5v0.41c0,0-0.39,0.34-1.21,0.64c-0.62,0.23-1.49,0.33-1.49,0.33v-0.41c0,0,0.71,0.01,1.53-0.3
				C-17.96,20.78-17.8,20.5-17.8,20.5s-0.95-0.11-1.61-0.48"/>
			<path class="st2" d="M-19.87,22.32"/>
			<polyline class="st2" points="-20.5,22.35 -17.8,21.41 -17.8,21.82 -20.5,22.81 -20.5,22.35 			"/>
			<path class="st5" d="M-19.9,20.43"/>
			<path class="st2" d="M-20.5,21.03c0.33,0,0.6-0.13,0.6-0.3c0-0.04-0.02-0.08-0.05-0.12"/>
			<path d="M-17.45,21.45c0,0,0.53-0.26,0.98,0c0.44,0.27,0.13,0.87-0.21,0.58C-16.87,21.87-16.71,21.69-17.45,21.45z"/>
			<path d="M-17.33,21.14c0,0-0.05-0.29,0.13-0.46c0.19-0.17,0.43,0.06,0.24,0.18C-17.06,20.93-17.12,20.83-17.33,21.14z"/>
			<path d="M-16.84,21.06c0,0,0.23-0.13,0.44-0.02c0.2,0.11,0.08,0.39-0.08,0.26C-16.57,21.24-16.5,21.16-16.84,21.06z"/>
			<path class="st5" d="M-18.33,19.11"/>
			<path class="st2" d="M-17.73,20.91"/>
			<path d="M-20.5,22.09v0.22l3.05-1.06V21.1l-0.41-0.15c0,0-1.17,0.74-2.64,0.93"/>
		</g>
	</g>
	<g>
		<g>
			<rect x="-39.58" y="-1.29" class="st1" width="38.17" height="38.58"/>
			<path class="st2" d="M-20.5,19.16h-0.85c-0.05,0-0.09,0.04-0.09,0.09v0.49c0,0.05,0.02,0.1,0.05,0.14l0.84,0.89h0.05"/>
			<path class="st3" d="M-21.44,16.94"/>
			<path class="st4" d="M-21.44,19.37c0,0,0.19-0.14,0.46-0.14c0.27,0,0.48,0.14,0.48,0.14v0.45c0,0-0.21,0.14-0.48,0.14
				c-0.27,0-0.44-0.14-0.44-0.14"/>
			<path class="st3" d="M-21.02,20.29"/>
			<polygon points="-20.59,20.77 -20.86,20.48 -20.5,20.48 -20.5,20.77 			"/>
			<polyline class="st2" points="-20.5,17.7 -20.97,17.7 -21.04,17.76 -21.04,19.16 			"/>
			<path class="st2" d="M-23.2,20.5v0.41c0,0,0.39,0.34,1.21,0.64c0.62,0.23,1.49,0.33,1.49,0.33v-0.41c0,0-0.71,0.01-1.53-0.3
				C-23.04,20.78-23.2,20.5-23.2,20.5s0.95-0.11,1.61-0.48"/>
			<path class="st2" d="M-21.13,22.32"/>
			<polyline class="st2" points="-20.5,22.35 -23.2,21.41 -23.2,21.82 -20.5,22.81 -20.5,22.35 			"/>
			<path class="st5" d="M-21.1,20.43"/>
			<path class="st2" d="M-20.5,21.03c-0.33,0-0.6-0.13-0.6-0.3c0-0.04,0.02-0.08,0.05-0.12"/>
			<path d="M-23.55,21.45c0,0-0.53-0.26-0.98,0c-0.44,0.27-0.13,0.87,0.21,0.58C-24.13,21.87-24.29,21.69-23.55,21.45z"/>
			<path d="M-23.67,21.14c0,0,0.05-0.29-0.13-0.46c-0.19-0.17-0.43,0.06-0.24,0.18C-23.94,20.93-23.88,20.83-23.67,21.14z"/>
			<path d="M-24.16,21.06c0,0-0.23-0.13-0.44-0.02c-0.2,0.11-0.08,0.39,0.08,0.26C-24.43,21.24-24.5,21.16-24.16,21.06z"/>
			<path class="st5" d="M-22.67,19.11"/>
			<path class="st2" d="M-23.27,20.91"/>
			<path d="M-20.5,22.09v0.22l-3.05-1.06V21.1l0.41-0.15c0,0,1.17,0.74,2.64,0.93"/>
		</g>
	</g>
</g>
<g id="other">
	<g>
		<g>
			<polyline class="st6" points="-19.94,17.88 -19.93,17.88 -19.81,17.91 -21.19,18.13 -21.09,18.16 -21.06,18.16 			"/>
		</g>
		<g>
			<polyline class="st6" points="-19.94,18.24 -19.93,18.24 -19.81,18.27 -21.19,18.49 -21.09,18.52 -21.06,18.52 			"/>
		</g>
		<g>
			<polyline class="st6" points="-19.94,18.6 -19.93,18.6 -19.81,18.63 -21.19,18.85 -21.09,18.88 -21.06,18.88 			"/>
		</g>
	</g>
	<line class="st7" x1="-20.5" y1="16.36" x2="-20.5" y2="15.09"/>
	<line class="st7" x1="-20.5" y1="17.05" x2="-20.5" y2="17.05"/>
</g>
<g id="other_copy">
	<g>
		<path d="M27.46,25.17c-1.08-0.65-2.38-0.01-2.38-0.01c1.8,0.59,1.41,1.03,1.86,1.42C27.79,27.3,28.54,25.82,27.46,25.17z"/>
		<path d="M26.28,23.73c0.45-0.3-0.14-0.85-0.59-0.43c-0.45,0.42-0.33,1.12-0.33,1.12C25.88,23.65,26.04,23.89,26.28,23.73z"/>
		<path d="M27.43,24.82c0.39,0.31,0.7-0.37,0.2-0.64c-0.5-0.27-1.06,0.04-1.06,0.04C27.39,24.45,27.22,24.66,27.43,24.82z"/>
		<path d="M25.08,24.67v-0.36l-0.8-0.29c0.03-0.02,0.05-0.04,0.05-0.04c0.04-0.04,0.06-0.09,0.06-0.14v-0.99c0,0,0,0,0,0s0,0,0,0
			c0-0.05-0.02-0.08-0.05-0.11c0,0,0,0,0,0c0,0,0,0,0,0c0,0,0,0,0,0s0,0,0,0c0,0,0,0,0,0c0,0,0,0,0,0v0c0,0,0,0,0,0
			c-0.03-0.03-0.07-0.05-0.11-0.05c-0.09-0.01-2.33-0.28-3.87-1.14c-0.09-0.05-0.2-0.02-0.25,0.07c-0.05,0.09-0.02,0.2,0.07,0.25
			c1.27,0.71,2.93,1.03,3.65,1.14c-0.31,0.26-1.02,0.75-2.53,1.32c-1.85,0.71-3.46,0.73-3.65,0.73c-0.01,0-0.02,0-0.02,0
			c0,0,0,0,0,0c0,0,0,0,0,0c-0.01,0.01-1.72,0.02-3.67-0.73c-1.51-0.58-2.22-1.06-2.53-1.32c0.72-0.11,2.38-0.43,3.65-1.14
			c0.09-0.05,0.12-0.16,0.07-0.25c-0.05-0.09-0.17-0.12-0.25-0.07c-1.54,0.86-3.78,1.13-3.86,1.14c-0.09,0.01-0.17,0.09-0.17,0.18
			v0.99c0,0.05,0.02,0.1,0.06,0.14c0,0,0.02,0.02,0.05,0.04l-0.8,0.29v0.36l0.75,0.26c-0.04,0.03-0.06,0.08-0.06,0.13v1.02
			c0,0.08,0.05,0.15,0.12,0.17l6.58,2.41c0.02,0.01,0.04,0.01,0.06,0.01c0.02,0,0.04,0,0.06-0.01l6.58-2.41
			c0.07-0.03,0.12-0.1,0.12-0.17v-1.02c0-0.05-0.02-0.1-0.06-0.13L25.08,24.67z M17.46,28.23l-6.21-2.28v-0.63l6.21,2.16V28.23z
			 M17.46,26c-0.56-0.08-2.18-0.33-3.39-0.76c-1.65-0.6-2.59-1.29-2.82-1.48V23.3c0.37,0.3,1.12,0.78,2.59,1.34
			c1.67,0.64,3.12,0.74,3.62,0.75V26z M24.03,25.95l-6.21,2.28v-0.75l6.21-2.16V25.95z M24.03,23.75c-0.24,0.19-1.17,0.88-2.83,1.48
			c-1.2,0.44-2.82,0.69-3.38,0.76v-0.6c0.5-0.01,1.95-0.11,3.62-0.75c1.47-0.56,2.22-1.04,2.59-1.35V23.75z"/>
		<path d="M17.38,23.63c0.03,0.04,0.08,0.06,0.13,0.06h0.13h0.13c0.05,0,0.1-0.02,0.13-0.06l2.04-2.18
			c0.12-0.12,0.18-0.29,0.18-0.46V19.8c0-0.23-0.18-0.41-0.41-0.41h-0.58v-0.81l0.23-0.04c0.11-0.02,0.2-0.11,0.2-0.22
			c0.01-0.11-0.06-0.22-0.17-0.25l-0.26-0.08V17.7l0.23-0.04c0.11-0.02,0.2-0.11,0.2-0.22c0.01-0.11-0.06-0.22-0.17-0.25l-0.26-0.08
			v-0.29l0.23-0.04c0.11-0.02,0.2-0.11,0.2-0.22c0.01-0.11-0.06-0.22-0.17-0.25l-0.26-0.08v-0.06c0-0.05-0.02-0.1-0.05-0.13
			l-0.16-0.16c-0.03-0.03-0.08-0.05-0.13-0.05h-1.15h-1.15c-0.05,0-0.1,0.02-0.13,0.05l-0.16,0.16c-0.03,0.03-0.05,0.08-0.05,0.13
			v0.62l-0.23,0.04c-0.11,0.02-0.2,0.11-0.21,0.23c0,0.12,0.07,0.22,0.18,0.25l0.25,0.06v0.3l-0.23,0.04
			c-0.11,0.02-0.2,0.11-0.21,0.23c0,0.12,0.07,0.22,0.18,0.25l0.25,0.06v0.3l-0.23,0.04c-0.11,0.02-0.2,0.11-0.21,0.23
			c0,0.12,0.07,0.22,0.18,0.25l0.25,0.06v0.26h-0.58c-0.23,0-0.41,0.19-0.41,0.41v1.19c0,0.17,0.07,0.34,0.18,0.46L17.38,23.63z
			 M18.18,22.8l-0.54-0.01L17.1,22.8l-1.05-1.12c0.13,0.03,0.26,0.04,0.41,0.04c0.54,0,0.98-0.21,1.18-0.32
			c0.19,0.11,0.63,0.32,1.18,0.32c0.15,0,0.28-0.02,0.41-0.04L18.18,22.8z M16.97,19.75h0.67h0.67c-0.3,0.07-0.54,0.19-0.67,0.26
			C17.51,19.94,17.28,19.82,16.97,19.75z M19.71,19.75c0.03,0,0.05,0.02,0.05,0.05v0.11c-0.12-0.06-0.26-0.12-0.43-0.16H19.71z
			 M19.75,20.33v0.66c0,0.03-0.01,0.06-0.02,0.09c-0.09,0.06-0.42,0.28-0.92,0.28c-0.45,0-0.84-0.18-0.99-0.27v-0.75
			c0.16-0.09,0.54-0.27,0.99-0.27C19.27,20.06,19.61,20.24,19.75,20.33z M18.77,19.39h-1.13h-1.13v-0.4l2.25-0.35V19.39z
			 M16.51,16.25l0.05-0.05h1.07h1.07l0.05,0.05v0.13l-2.25,0.35V16.25z M16.51,17.23l2.25-0.35v0.38l-2.25,0.35V17.23z M16.51,18.11
			l2.25-0.35v0.38l-2.25,0.35V18.11z M15.53,19.8c0-0.03,0.02-0.05,0.05-0.05h0.39c-0.17,0.04-0.32,0.1-0.43,0.16V19.8z
			 M15.53,20.33c0.14-0.09,0.49-0.27,0.94-0.27c0.45,0,0.84,0.18,0.99,0.27v0.75c-0.16,0.09-0.54,0.27-0.99,0.27
			c-0.5,0-0.83-0.21-0.92-0.28c-0.01-0.03-0.02-0.06-0.02-0.09V20.33z"/>
		<path d="M16.43,23c-0.08-0.07-0.19-0.06-0.26,0.01C16.06,23.14,16,23.28,16,23.43c0,0.51,0.7,0.9,1.64,0.9
			c0.93,0,1.64-0.39,1.64-0.9c0-0.15-0.06-0.29-0.17-0.41c-0.07-0.08-0.18-0.08-0.26-0.01c-0.08,0.07-0.08,0.18-0.02,0.26
			c0.05,0.06,0.07,0.11,0.07,0.17c0,0.25-0.54,0.54-1.27,0.54c-0.73,0-1.27-0.28-1.27-0.54c0-0.06,0.02-0.11,0.07-0.17
			C16.51,23.18,16.5,23.07,16.43,23z"/>
		<path d="M7.82,25.17c-1.08,0.65-0.33,2.13,0.51,1.41c0.45-0.39,0.06-0.82,1.86-1.42C10.2,25.17,8.9,24.52,7.82,25.17z"/>
		<path d="M9,23.73c0.24,0.16,0.4-0.08,0.92,0.68c0,0,0.13-0.7-0.33-1.12C9.14,22.88,8.55,23.43,9,23.73z"/>
		<path d="M7.85,24.82c0.21-0.16,0.04-0.37,0.86-0.6c0,0-0.57-0.31-1.06-0.04C7.15,24.45,7.46,25.13,7.85,24.82z"/>
		<path d="M17.64,13.38c0.34,0,0.61-0.27,0.61-0.61v-3.1c0-0.34-0.27-0.61-0.61-0.61c-0.34,0-0.61,0.27-0.61,0.61v3.1
			C17.03,13.1,17.3,13.38,17.64,13.38z"/>
		<path d="M17.64,15.05c0.17,0,0.32-0.07,0.44-0.2c0.1-0.1,0.17-0.27,0.17-0.41c0-0.17-0.07-0.32-0.17-0.44
			c-0.24-0.22-0.63-0.22-0.88,0c-0.1,0.12-0.17,0.27-0.17,0.44c0,0.15,0.07,0.32,0.17,0.41C17.32,14.97,17.47,15.05,17.64,15.05z"/>
	</g>
	<g>
		<path d="M29.44,12.45c-0.14,0.4-0.72,0.8-1.21,0.8h-1.91l-0.78,2.39h-1.92l1.55-4.79H29c0.35,0,0.73,0.27,0.73,0.59
			c0,0.04-0.02,0.12-0.04,0.22L29.44,12.45z M27.53,12.45l0.26-0.79h-0.96l-0.26,0.79H27.53z"/>
		<path d="M31.31,18.83h-3.82c-0.25,0-0.48-0.19-0.48-0.41c0-0.04,0.01-0.08,0.01-0.12l1.04-3.19h-0.63l-0.52,1.6h-1.27l1.03-3.19
			h2.55c0.33,0,0.49,0.11,0.49,0.34c0,0.06-0.01,0.12-0.03,0.2l-0.12,0.35c-0.06,0.19-0.29,0.34-0.68,0.44
			c0.27,0.08,0.4,0.2,0.4,0.36c0,0.03-0.01,0.05-0.01,0.08l-0.46,1.42c-0.03,0.1-0.05,0.17-0.05,0.23c0,0.2,0.17,0.3,0.51,0.3h2.54
			L31.31,18.83z M28.23,14.58l0.17-0.53h-0.64l-0.17,0.53H28.23z"/>
		<path d="M33.36,20.14c-0.09,0.27-0.46,0.53-0.81,0.53h-3.82l0.52-1.6h2.54c0.43,0,0.69-0.17,0.81-0.53l1.04-3.19h1.28L33.36,20.14
			z"/>
	</g>
	<g>
		<path d="M33.13,16.17h-0.95l-0.26,0.8h-1.91l0.25-0.8h-0.94l0.25-0.8h0.96l0.25-0.79h1.91l-0.25,0.79h0.94L33.13,16.17z"/>
	</g>
</g>
</svg>
