%TF.GenerationSoftware,KiCad,Pcbnew,7.0.7*%
%TF.CreationDate,2023-09-04T20:44:38-04:00*%
%TF.ProjectId,minimal,6d696e69-6d61-46c2-9e6b-696361645f70,rev?*%
%TF.SameCoordinates,Original*%
%TF.FileFunction,Copper,L2,Bot*%
%TF.FilePolarity,Positive*%
%FSLAX46Y46*%
G04 Gerber Fmt 4.6, Leading zero omitted, Abs format (unit mm)*
G04 Created by KiCad (PCBNEW 7.0.7) date 2023-09-04 20:44:38*
%MOMM*%
%LPD*%
G01*
G04 APERTURE LIST*
G04 Aperture macros list*
%AMRoundRect*
0 Rectangle with rounded corners*
0 $1 Rounding radius*
0 $2 $3 $4 $5 $6 $7 $8 $9 X,Y pos of 4 corners*
0 Add a 4 corners polygon primitive as box body*
4,1,4,$2,$3,$4,$5,$6,$7,$8,$9,$2,$3,0*
0 Add four circle primitives for the rounded corners*
1,1,$1+$1,$2,$3*
1,1,$1+$1,$4,$5*
1,1,$1+$1,$6,$7*
1,1,$1+$1,$8,$9*
0 Add four rect primitives between the rounded corners*
20,1,$1+$1,$2,$3,$4,$5,0*
20,1,$1+$1,$4,$5,$6,$7,0*
20,1,$1+$1,$6,$7,$8,$9,0*
20,1,$1+$1,$8,$9,$2,$3,0*%
%AMFreePoly0*
4,1,45,0.263282,1.831170,0.521205,1.775062,0.768518,1.682819,1.000186,1.556319,1.211492,1.398137,1.398137,1.211492,1.556319,1.000186,1.682819,0.768518,1.775062,0.521205,1.831170,0.263282,1.850000,0.000000,1.831170,-0.263282,1.775062,-0.521205,1.682819,-0.768518,1.556319,-1.000186,1.398137,-1.211492,1.211492,-1.398137,1.000186,-1.556319,0.768518,-1.682819,0.521205,-1.775062,
0.263282,-1.831170,0.000000,-1.850000,-0.263282,-1.831170,-0.521205,-1.775062,-0.768518,-1.682819,-1.000186,-1.556319,-1.211492,-1.398137,-1.398137,-1.211492,-1.556319,-1.000186,-1.682819,-0.768518,-1.775062,-0.521205,-1.831170,-0.263282,-1.850000,0.000000,-1.831170,0.263282,-1.775062,0.521205,-1.682819,0.768518,-1.556319,1.000186,-1.398137,1.211492,-1.211492,1.398137,-1.000186,1.556319,
-0.768518,1.682819,-0.521205,1.775062,-0.263282,1.831170,0.000000,1.850000,0.263282,1.831170,0.263282,1.831170,$1*%
%AMFreePoly1*
4,1,49,0.287158,2.181179,0.569402,2.125037,0.841904,2.032535,1.100000,1.905256,1.339275,1.745377,1.555635,1.555635,1.745377,1.339275,1.905256,1.100000,2.032535,0.841904,2.125037,0.569402,2.181179,0.287158,2.200000,0.000000,2.181179,-0.287158,2.125037,-0.569402,2.032535,-0.841904,1.905256,-1.100000,1.745377,-1.339275,1.555635,-1.555635,1.339275,-1.745377,1.100000,-1.905256,
0.841904,-2.032535,0.569402,-2.125037,0.287158,-2.181179,0.000000,-2.200000,-0.287158,-2.181179,-0.569402,-2.125037,-0.841904,-2.032535,-1.100000,-1.905256,-1.339275,-1.745377,-1.555635,-1.555635,-1.745377,-1.339275,-1.905256,-1.100000,-2.032535,-0.841904,-2.125037,-0.569402,-2.181179,-0.287158,-2.200000,0.000000,-2.181179,0.287158,-2.125037,0.569402,-2.032535,0.841904,-1.905256,1.100000,
-1.745377,1.339275,-1.555635,1.555635,-1.339275,1.745377,-1.100000,1.905256,-0.841904,2.032535,-0.569402,2.125037,-0.287158,2.181179,0.000000,2.200000,0.287158,2.181179,0.287158,2.181179,$1*%
%AMFreePoly2*
4,1,53,0.313395,2.581043,0.622221,2.524449,0.921973,2.431042,1.208280,2.302186,1.476968,2.139758,1.724119,1.946128,1.946128,1.724119,2.139758,1.476968,2.302186,1.208280,2.431042,0.921973,2.524449,0.622221,2.581043,0.313395,2.600000,0.000000,2.581043,-0.313395,2.524449,-0.622221,2.431042,-0.921973,2.302186,-1.208280,2.139758,-1.476968,1.946128,-1.724119,1.724119,-1.946128,
1.476968,-2.139758,1.208280,-2.302186,0.921973,-2.431042,0.622221,-2.524449,0.313395,-2.581043,0.000000,-2.600000,-0.313395,-2.581043,-0.622221,-2.524449,-0.921973,-2.431042,-1.208280,-2.302186,-1.476968,-2.139758,-1.724119,-1.946128,-1.946128,-1.724119,-2.139758,-1.476968,-2.302186,-1.208280,-2.431042,-0.921973,-2.524449,-0.622221,-2.581043,-0.313395,-2.600000,0.000000,-2.581043,0.313395,
-2.524449,0.622221,-2.431042,0.921973,-2.302186,1.208280,-2.139758,1.476968,-1.946128,1.724119,-1.724119,1.946128,-1.476968,2.139758,-1.208280,2.302186,-0.921973,2.431042,-0.622221,2.524449,-0.313395,2.581043,0.000000,2.600000,0.313395,2.581043,0.313395,2.581043,$1*%
G04 Aperture macros list end*
%TA.AperFunction,ComponentPad*%
%ADD10R,1.700000X1.700000*%
%TD*%
%TA.AperFunction,ComponentPad*%
%ADD11O,1.700000X1.700000*%
%TD*%
%TA.AperFunction,ComponentPad*%
%ADD12C,0.800000*%
%TD*%
%TA.AperFunction,ComponentPad*%
%ADD13C,6.400000*%
%TD*%
%TA.AperFunction,ComponentPad*%
%ADD14FreePoly0,0.000000*%
%TD*%
%TA.AperFunction,ComponentPad*%
%ADD15FreePoly1,0.000000*%
%TD*%
%TA.AperFunction,ComponentPad*%
%ADD16FreePoly2,0.000000*%
%TD*%
%TA.AperFunction,SMDPad,CuDef*%
%ADD17RoundRect,0.250000X1.425000X-0.362500X1.425000X0.362500X-1.425000X0.362500X-1.425000X-0.362500X0*%
%TD*%
%TA.AperFunction,ViaPad*%
%ADD18C,0.800000*%
%TD*%
%TA.AperFunction,Conductor*%
%ADD19C,0.250000*%
%TD*%
%TA.AperFunction,Conductor*%
%ADD20C,0.200000*%
%TD*%
G04 APERTURE END LIST*
D10*
%TO.P,J1,1,Pin_1*%
%TO.N,GND*%
X8260000Y-34300000D03*
D11*
%TO.P,J1,2,Pin_2*%
%TO.N,VDDA*%
X10800000Y-34300000D03*
%TO.P,J1,3,Pin_3*%
%TO.N,IN+*%
X13340000Y-34300000D03*
%TO.P,J1,4,Pin_4*%
%TO.N,IN-*%
X15880000Y-34300000D03*
%TD*%
D12*
%TO.P,H1,1,1*%
%TO.N,GND*%
X1100000Y-3500000D03*
X1802944Y-1802944D03*
X1802944Y-5197056D03*
X3500000Y-1100000D03*
D13*
X3500000Y-3500000D03*
D12*
X3500000Y-5900000D03*
X5197056Y-1802944D03*
X5197056Y-5197056D03*
X5900000Y-3500000D03*
%TD*%
D14*
%TO.P,U1,1,GND*%
%TO.N,GND*%
X6343146Y-8493146D03*
X6343146Y-19806854D03*
D15*
X7000000Y-9150000D03*
X7000000Y-9900000D03*
X7000000Y-18400000D03*
X7000000Y-19150000D03*
D16*
X12000000Y-14150000D03*
D15*
X17000000Y-9150000D03*
X17000000Y-9900000D03*
X17000000Y-18400000D03*
X17000000Y-19150000D03*
D14*
X17656854Y-8493146D03*
X17656854Y-19806854D03*
%TD*%
D12*
%TO.P,H2,1,1*%
%TO.N,GND*%
X18100000Y-3500000D03*
X18802944Y-1802944D03*
X18802944Y-5197056D03*
X20500000Y-1100000D03*
D13*
X20500000Y-3500000D03*
D12*
X20500000Y-5900000D03*
X22197056Y-1802944D03*
X22197056Y-5197056D03*
X22900000Y-3500000D03*
%TD*%
%TO.P,H3,1,1*%
%TO.N,GND*%
X1100000Y-25000000D03*
X1802944Y-23302944D03*
X1802944Y-26697056D03*
X3500000Y-22600000D03*
D13*
X3500000Y-25000000D03*
D12*
X3500000Y-27400000D03*
X5197056Y-23302944D03*
X5197056Y-26697056D03*
X5900000Y-25000000D03*
%TD*%
%TO.P,H4,1,1*%
%TO.N,GND*%
X18100000Y-25000000D03*
X18802944Y-23302944D03*
X18802944Y-26697056D03*
X20500000Y-22600000D03*
D13*
X20500000Y-25000000D03*
D12*
X20500000Y-27400000D03*
X22197056Y-23302944D03*
X22197056Y-26697056D03*
X22900000Y-25000000D03*
%TD*%
D17*
%TO.P,R2,1*%
%TO.N,GND*%
X12000000Y-25112500D03*
%TO.P,R2,2*%
%TO.N,IN+*%
X12000000Y-19187500D03*
%TD*%
%TO.P,R4,1*%
%TO.N,IN-*%
X12000000Y-9112500D03*
%TO.P,R4,2*%
%TO.N,VDDA*%
X12000000Y-3187500D03*
%TD*%
D18*
%TO.N,GND*%
X12000000Y-22200000D03*
%TD*%
D19*
%TO.N,GND*%
X17000000Y-18400000D02*
X12750000Y-14150000D01*
X12750000Y-14150000D02*
X12000000Y-14150000D01*
X12000000Y-22200000D02*
X12000000Y-25200000D01*
%TO.N,VDDA*%
X10000000Y-8361827D02*
X10000000Y-10470890D01*
X10000000Y-17500000D02*
X10000000Y-33500000D01*
X10000000Y-33500000D02*
X10800000Y-34300000D01*
X12000000Y-6361827D02*
X10000000Y-8361827D01*
X8750000Y-11720890D02*
X8750000Y-16250000D01*
X12000000Y-3037500D02*
X12000000Y-6361827D01*
X10000000Y-10470890D02*
X8750000Y-11720890D01*
X8750000Y-16250000D02*
X10000000Y-17500000D01*
D20*
%TO.N,IN+*%
X12000000Y-19187500D02*
X14190000Y-21377500D01*
X14190000Y-33450000D02*
X13340000Y-34300000D01*
X14190000Y-21377500D02*
X14190000Y-33450000D01*
%TO.N,IN-*%
X19806854Y-20697414D02*
X15880000Y-24624268D01*
X15880000Y-24624268D02*
X15880000Y-34300000D01*
X19806854Y-16769354D02*
X19806854Y-20697414D01*
X12000000Y-8962500D02*
X19806854Y-16769354D01*
%TD*%
M02*
