%TF.GenerationSoftware,KiCad,Pcbnew,7.0.7*%
%TF.CreationDate,2023-09-04T20:44:38-04:00*%
%TF.ProjectId,minimal,6d696e69-6d61-46c2-9e6b-696361645f70,rev?*%
%TF.SameCoordinates,Original*%
%TF.FileFunction,Legend,Bot*%
%TF.FilePolarity,Positive*%
%FSLAX46Y46*%
G04 Gerber Fmt 4.6, Leading zero omitted, Abs format (unit mm)*
G04 Created by KiCad (PCBNEW 7.0.7) date 2023-09-04 20:44:38*
%MOMM*%
%LPD*%
G01*
G04 APERTURE LIST*
G04 Aperture macros list*
%AMRoundRect*
0 Rectangle with rounded corners*
0 $1 Rounding radius*
0 $2 $3 $4 $5 $6 $7 $8 $9 X,Y pos of 4 corners*
0 Add a 4 corners polygon primitive as box body*
4,1,4,$2,$3,$4,$5,$6,$7,$8,$9,$2,$3,0*
0 Add four circle primitives for the rounded corners*
1,1,$1+$1,$2,$3*
1,1,$1+$1,$4,$5*
1,1,$1+$1,$6,$7*
1,1,$1+$1,$8,$9*
0 Add four rect primitives between the rounded corners*
20,1,$1+$1,$2,$3,$4,$5,0*
20,1,$1+$1,$4,$5,$6,$7,0*
20,1,$1+$1,$6,$7,$8,$9,0*
20,1,$1+$1,$8,$9,$2,$3,0*%
%AMFreePoly0*
4,1,45,0.263282,1.831170,0.521205,1.775062,0.768518,1.682819,1.000186,1.556319,1.211492,1.398137,1.398137,1.211492,1.556319,1.000186,1.682819,0.768518,1.775062,0.521205,1.831170,0.263282,1.850000,0.000000,1.831170,-0.263282,1.775062,-0.521205,1.682819,-0.768518,1.556319,-1.000186,1.398137,-1.211492,1.211492,-1.398137,1.000186,-1.556319,0.768518,-1.682819,0.521205,-1.775062,
0.263282,-1.831170,0.000000,-1.850000,-0.263282,-1.831170,-0.521205,-1.775062,-0.768518,-1.682819,-1.000186,-1.556319,-1.211492,-1.398137,-1.398137,-1.211492,-1.556319,-1.000186,-1.682819,-0.768518,-1.775062,-0.521205,-1.831170,-0.263282,-1.850000,0.000000,-1.831170,0.263282,-1.775062,0.521205,-1.682819,0.768518,-1.556319,1.000186,-1.398137,1.211492,-1.211492,1.398137,-1.000186,1.556319,
-0.768518,1.682819,-0.521205,1.775062,-0.263282,1.831170,0.000000,1.850000,0.263282,1.831170,0.263282,1.831170,$1*%
%AMFreePoly1*
4,1,49,0.287158,2.181179,0.569402,2.125037,0.841904,2.032535,1.100000,1.905256,1.339275,1.745377,1.555635,1.555635,1.745377,1.339275,1.905256,1.100000,2.032535,0.841904,2.125037,0.569402,2.181179,0.287158,2.200000,0.000000,2.181179,-0.287158,2.125037,-0.569402,2.032535,-0.841904,1.905256,-1.100000,1.745377,-1.339275,1.555635,-1.555635,1.339275,-1.745377,1.100000,-1.905256,
0.841904,-2.032535,0.569402,-2.125037,0.287158,-2.181179,0.000000,-2.200000,-0.287158,-2.181179,-0.569402,-2.125037,-0.841904,-2.032535,-1.100000,-1.905256,-1.339275,-1.745377,-1.555635,-1.555635,-1.745377,-1.339275,-1.905256,-1.100000,-2.032535,-0.841904,-2.125037,-0.569402,-2.181179,-0.287158,-2.200000,0.000000,-2.181179,0.287158,-2.125037,0.569402,-2.032535,0.841904,-1.905256,1.100000,
-1.745377,1.339275,-1.555635,1.555635,-1.339275,1.745377,-1.100000,1.905256,-0.841904,2.032535,-0.569402,2.125037,-0.287158,2.181179,0.000000,2.200000,0.287158,2.181179,0.287158,2.181179,$1*%
%AMFreePoly2*
4,1,53,0.313395,2.581043,0.622221,2.524449,0.921973,2.431042,1.208280,2.302186,1.476968,2.139758,1.724119,1.946128,1.946128,1.724119,2.139758,1.476968,2.302186,1.208280,2.431042,0.921973,2.524449,0.622221,2.581043,0.313395,2.600000,0.000000,2.581043,-0.313395,2.524449,-0.622221,2.431042,-0.921973,2.302186,-1.208280,2.139758,-1.476968,1.946128,-1.724119,1.724119,-1.946128,
1.476968,-2.139758,1.208280,-2.302186,0.921973,-2.431042,0.622221,-2.524449,0.313395,-2.581043,0.000000,-2.600000,-0.313395,-2.581043,-0.622221,-2.524449,-0.921973,-2.431042,-1.208280,-2.302186,-1.476968,-2.139758,-1.724119,-1.946128,-1.946128,-1.724119,-2.139758,-1.476968,-2.302186,-1.208280,-2.431042,-0.921973,-2.524449,-0.622221,-2.581043,-0.313395,-2.600000,0.000000,-2.581043,0.313395,
-2.524449,0.622221,-2.431042,0.921973,-2.302186,1.208280,-2.139758,1.476968,-1.946128,1.724119,-1.724119,1.946128,-1.476968,2.139758,-1.208280,2.302186,-0.921973,2.431042,-0.622221,2.524449,-0.313395,2.581043,0.000000,2.600000,0.313395,2.581043,0.313395,2.581043,$1*%
G04 Aperture macros list end*
%ADD10C,0.150000*%
%ADD11C,0.120000*%
%ADD12R,1.700000X1.700000*%
%ADD13O,1.700000X1.700000*%
%ADD14C,0.800000*%
%ADD15C,6.400000*%
%ADD16FreePoly0,0.000000*%
%ADD17FreePoly1,0.000000*%
%ADD18FreePoly2,0.000000*%
%ADD19RoundRect,0.250000X1.425000X-0.362500X1.425000X0.362500X-1.425000X0.362500X-1.425000X-0.362500X0*%
G04 APERTURE END LIST*
D10*
X15074819Y-21983333D02*
X14598628Y-21650000D01*
X15074819Y-21411905D02*
X14074819Y-21411905D01*
X14074819Y-21411905D02*
X14074819Y-21792857D01*
X14074819Y-21792857D02*
X14122438Y-21888095D01*
X14122438Y-21888095D02*
X14170057Y-21935714D01*
X14170057Y-21935714D02*
X14265295Y-21983333D01*
X14265295Y-21983333D02*
X14408152Y-21983333D01*
X14408152Y-21983333D02*
X14503390Y-21935714D01*
X14503390Y-21935714D02*
X14551009Y-21888095D01*
X14551009Y-21888095D02*
X14598628Y-21792857D01*
X14598628Y-21792857D02*
X14598628Y-21411905D01*
X14170057Y-22364286D02*
X14122438Y-22411905D01*
X14122438Y-22411905D02*
X14074819Y-22507143D01*
X14074819Y-22507143D02*
X14074819Y-22745238D01*
X14074819Y-22745238D02*
X14122438Y-22840476D01*
X14122438Y-22840476D02*
X14170057Y-22888095D01*
X14170057Y-22888095D02*
X14265295Y-22935714D01*
X14265295Y-22935714D02*
X14360533Y-22935714D01*
X14360533Y-22935714D02*
X14503390Y-22888095D01*
X14503390Y-22888095D02*
X15074819Y-22316667D01*
X15074819Y-22316667D02*
X15074819Y-22935714D01*
X15074819Y-5983333D02*
X14598628Y-5650000D01*
X15074819Y-5411905D02*
X14074819Y-5411905D01*
X14074819Y-5411905D02*
X14074819Y-5792857D01*
X14074819Y-5792857D02*
X14122438Y-5888095D01*
X14122438Y-5888095D02*
X14170057Y-5935714D01*
X14170057Y-5935714D02*
X14265295Y-5983333D01*
X14265295Y-5983333D02*
X14408152Y-5983333D01*
X14408152Y-5983333D02*
X14503390Y-5935714D01*
X14503390Y-5935714D02*
X14551009Y-5888095D01*
X14551009Y-5888095D02*
X14598628Y-5792857D01*
X14598628Y-5792857D02*
X14598628Y-5411905D01*
X14408152Y-6840476D02*
X15074819Y-6840476D01*
X14027200Y-6602381D02*
X14741485Y-6364286D01*
X14741485Y-6364286D02*
X14741485Y-6983333D01*
D11*
%TO.C,R2*%
X10290000Y-24327064D02*
X10290000Y-19972936D01*
X13710000Y-24327064D02*
X13710000Y-19972936D01*
%TO.C,R4*%
X10290000Y-8327064D02*
X10290000Y-3972936D01*
X13710000Y-8327064D02*
X13710000Y-3972936D01*
%TD*%
%LPC*%
D12*
%TO.C,J1*%
X8260000Y-34300000D03*
D13*
X10800000Y-34300000D03*
X13340000Y-34300000D03*
X15880000Y-34300000D03*
%TD*%
D14*
%TO.C,H1*%
X1100000Y-3500000D03*
X1802944Y-1802944D03*
X1802944Y-5197056D03*
X3500000Y-1100000D03*
D15*
X3500000Y-3500000D03*
D14*
X3500000Y-5900000D03*
X5197056Y-1802944D03*
X5197056Y-5197056D03*
X5900000Y-3500000D03*
%TD*%
D16*
%TO.C,U1*%
X6343146Y-8493146D03*
X6343146Y-19806854D03*
D17*
X7000000Y-9150000D03*
X7000000Y-9900000D03*
X7000000Y-18400000D03*
X7000000Y-19150000D03*
D18*
X12000000Y-14150000D03*
D17*
X17000000Y-9150000D03*
X17000000Y-9900000D03*
X17000000Y-18400000D03*
X17000000Y-19150000D03*
D16*
X17656854Y-8493146D03*
X17656854Y-19806854D03*
%TD*%
D14*
%TO.C,H2*%
X18100000Y-3500000D03*
X18802944Y-1802944D03*
X18802944Y-5197056D03*
X20500000Y-1100000D03*
D15*
X20500000Y-3500000D03*
D14*
X20500000Y-5900000D03*
X22197056Y-1802944D03*
X22197056Y-5197056D03*
X22900000Y-3500000D03*
%TD*%
%TO.C,H3*%
X1100000Y-25000000D03*
X1802944Y-23302944D03*
X1802944Y-26697056D03*
X3500000Y-22600000D03*
D15*
X3500000Y-25000000D03*
D14*
X3500000Y-27400000D03*
X5197056Y-23302944D03*
X5197056Y-26697056D03*
X5900000Y-25000000D03*
%TD*%
%TO.C,H4*%
X18100000Y-25000000D03*
X18802944Y-23302944D03*
X18802944Y-26697056D03*
X20500000Y-22600000D03*
D15*
X20500000Y-25000000D03*
D14*
X20500000Y-27400000D03*
X22197056Y-23302944D03*
X22197056Y-26697056D03*
X22900000Y-25000000D03*
%TD*%
D19*
%TO.C,R2*%
X12000000Y-25112500D03*
X12000000Y-19187500D03*
%TD*%
%TO.C,R4*%
X12000000Y-9112500D03*
X12000000Y-3187500D03*
%TD*%
%LPD*%
M02*
