M48
; DRILL file {KiCad 7.0.7} date Mon Sep  4 20:44:38 2023
; FORMAT={-:-/ absolute / inch / decimal}
; #@! TF.CreationDate,2023-09-04T20:44:38-04:00
; #@! TF.GenerationSoftware,Kicad,Pcbnew,7.0.7
; #@! TF.FileFunction,Plated,1,2,PTH
FMAT,2
INCH
; #@! TA.AperFunction,Plated,PTH,ViaDrill
T1C0.0157
; #@! TA.AperFunction,Plated,PTH,ComponentDrill
T2C0.0197
; #@! TA.AperFunction,Plated,PTH,ComponentDrill
T3C0.0394
; #@! TA.AperFunction,Plated,PTH,ComponentDrill
T4C0.1063
; #@! TA.AperFunction,Plated,PTH,ComponentDrill
T5C0.1260
; #@! TA.AperFunction,Plated,PTH,ComponentDrill
T6C0.1339
; #@! TA.AperFunction,Plated,PTH,ComponentDrill
T7C0.1654
%
G90
G05
T1
X0.4724Y-0.874
T2
X0.0433Y-0.1378
X0.0433Y-0.9843
X0.071Y-0.071
X0.071Y-0.2046
X0.071Y-0.9174
X0.071Y-1.0511
X0.1378Y-0.0433
X0.1378Y-0.2323
X0.1378Y-0.8898
X0.1378Y-1.0787
X0.2046Y-0.071
X0.2046Y-0.2046
X0.2046Y-0.9174
X0.2046Y-1.0511
X0.2323Y-0.1378
X0.2323Y-0.9843
X0.7126Y-0.1378
X0.7126Y-0.9843
X0.7403Y-0.071
X0.7403Y-0.2046
X0.7403Y-0.9174
X0.7403Y-1.0511
X0.8071Y-0.0433
X0.8071Y-0.2323
X0.8071Y-0.8898
X0.8071Y-1.0787
X0.8739Y-0.071
X0.8739Y-0.2046
X0.8739Y-0.9174
X0.8739Y-1.0511
X0.9016Y-0.1378
X0.9016Y-0.9843
T3
X0.3252Y-1.3504
X0.4252Y-1.3504
X0.5252Y-1.3504
X0.6252Y-1.3504
T4
X0.2497Y-0.3344
X0.2497Y-0.7798
X0.6952Y-0.3344
X0.6952Y-0.7798
T5
X0.1378Y-0.1378
X0.1378Y-0.9843
X0.8071Y-0.1378
X0.8071Y-0.9843
T6
X0.2756Y-0.3602
X0.2756Y-0.3898
X0.2756Y-0.7244
X0.2756Y-0.7539
X0.6693Y-0.3602
X0.6693Y-0.3898
X0.6693Y-0.7244
X0.6693Y-0.7539
T7
X0.4724Y-0.5571
T0
M30
